%TF.GenerationSoftware,KiCad,Pcbnew,(6.0.9)*%
%TF.CreationDate,2025-12-22T11:41:54+09:00*%
%TF.ProjectId,ESP8266-clock,45535038-3236-4362-9d63-6c6f636b2e6b,rev?*%
%TF.SameCoordinates,Original*%
%TF.FileFunction,Legend,Bot*%
%TF.FilePolarity,Positive*%
%FSLAX46Y46*%
G04 Gerber Fmt 4.6, Leading zero omitted, Abs format (unit mm)*
G04 Created by KiCad (PCBNEW (6.0.9)) date 2025-12-22 11:41:54*
%MOMM*%
%LPD*%
G01*
G04 APERTURE LIST*
%ADD10C,0.150000*%
%ADD11C,0.200000*%
%ADD12C,0.500000*%
%ADD13C,0.010000*%
G04 APERTURE END LIST*
D10*
X33869047Y-157396428D02*
X34630952Y-157396428D01*
X39869047Y-157396428D02*
X40630952Y-157396428D01*
X40250000Y-157777380D02*
X40250000Y-157015476D01*
X65300000Y-154900000D02*
X65300000Y-127150000D01*
X56700000Y-154900000D02*
X56700000Y-143000000D01*
X65300000Y-154900000D02*
X56700000Y-154900000D01*
X56700000Y-139050000D02*
X56700000Y-127150000D01*
X56700000Y-139050000D02*
X56450000Y-139050000D01*
X56450000Y-143000000D02*
X56700000Y-143000000D01*
X56450000Y-139050000D02*
X56450000Y-143000000D01*
X56700000Y-127150000D02*
X65300000Y-127150000D01*
D11*
X67607143Y-147902857D02*
X68178571Y-147902857D01*
X68178571Y-146702857D01*
X67264285Y-147560000D02*
X66692857Y-147560000D01*
X67378571Y-147902857D02*
X66978571Y-146702857D01*
X66578571Y-147902857D01*
X66350000Y-146702857D02*
X65664285Y-146702857D01*
X66007143Y-147902857D02*
X66007143Y-146702857D01*
X55464286Y-137742857D02*
X55864286Y-137171428D01*
X56150000Y-137742857D02*
X56150000Y-136542857D01*
X55692857Y-136542857D01*
X55578571Y-136600000D01*
X55521429Y-136657142D01*
X55464286Y-136771428D01*
X55464286Y-136942857D01*
X55521429Y-137057142D01*
X55578571Y-137114285D01*
X55692857Y-137171428D01*
X56150000Y-137171428D01*
X54950000Y-137114285D02*
X54550000Y-137114285D01*
X54378571Y-137742857D02*
X54950000Y-137742857D01*
X54950000Y-136542857D01*
X54378571Y-136542857D01*
X53864286Y-137742857D02*
X53864286Y-136542857D01*
X53578571Y-136542857D01*
X53407143Y-136600000D01*
X53292857Y-136714285D01*
X53235714Y-136828571D01*
X53178571Y-137057142D01*
X53178571Y-137228571D01*
X53235714Y-137457142D01*
X53292857Y-137571428D01*
X53407143Y-137685714D01*
X53578571Y-137742857D01*
X53864286Y-137742857D01*
X52721429Y-136657142D02*
X52664286Y-136600000D01*
X52550000Y-136542857D01*
X52264286Y-136542857D01*
X52150000Y-136600000D01*
X52092857Y-136657142D01*
X52035714Y-136771428D01*
X52035714Y-136885714D01*
X52092857Y-137057142D01*
X52778571Y-137742857D01*
X52035714Y-137742857D01*
X85025000Y-132667857D02*
X85425000Y-132096428D01*
X85710714Y-132667857D02*
X85710714Y-131467857D01*
X85253571Y-131467857D01*
X85139285Y-131525000D01*
X85082142Y-131582142D01*
X85025000Y-131696428D01*
X85025000Y-131867857D01*
X85082142Y-131982142D01*
X85139285Y-132039285D01*
X85253571Y-132096428D01*
X85710714Y-132096428D01*
X84567857Y-131582142D02*
X84510714Y-131525000D01*
X84396428Y-131467857D01*
X84110714Y-131467857D01*
X83996428Y-131525000D01*
X83939285Y-131582142D01*
X83882142Y-131696428D01*
X83882142Y-131810714D01*
X83939285Y-131982142D01*
X84625000Y-132667857D01*
X83882142Y-132667857D01*
X55464286Y-145248571D02*
X55521429Y-145305714D01*
X55692857Y-145362857D01*
X55807143Y-145362857D01*
X55978572Y-145305714D01*
X56092857Y-145191428D01*
X56150000Y-145077142D01*
X56207143Y-144848571D01*
X56207143Y-144677142D01*
X56150000Y-144448571D01*
X56092857Y-144334285D01*
X55978572Y-144220000D01*
X55807143Y-144162857D01*
X55692857Y-144162857D01*
X55521429Y-144220000D01*
X55464286Y-144277142D01*
X85310714Y-134579285D02*
X85139285Y-134636428D01*
X85082142Y-134693571D01*
X85025000Y-134807857D01*
X85025000Y-134979285D01*
X85082142Y-135093571D01*
X85139285Y-135150714D01*
X85253571Y-135207857D01*
X85710714Y-135207857D01*
X85710714Y-134007857D01*
X85310714Y-134007857D01*
X85196428Y-134065000D01*
X85139285Y-134122142D01*
X85082142Y-134236428D01*
X85082142Y-134350714D01*
X85139285Y-134465000D01*
X85196428Y-134522142D01*
X85310714Y-134579285D01*
X85710714Y-134579285D01*
X84567857Y-134122142D02*
X84510714Y-134065000D01*
X84396428Y-134007857D01*
X84110714Y-134007857D01*
X83996428Y-134065000D01*
X83939285Y-134122142D01*
X83882142Y-134236428D01*
X83882142Y-134350714D01*
X83939285Y-134522142D01*
X84625000Y-135207857D01*
X83882142Y-135207857D01*
X88210357Y-113485714D02*
X87010357Y-113485714D01*
X88210357Y-114171429D01*
X87010357Y-114171429D01*
X88096071Y-115428572D02*
X88153214Y-115371429D01*
X88210357Y-115200000D01*
X88210357Y-115085714D01*
X88153214Y-114914286D01*
X88038928Y-114800000D01*
X87924642Y-114742857D01*
X87696071Y-114685714D01*
X87524642Y-114685714D01*
X87296071Y-114742857D01*
X87181785Y-114800000D01*
X87067500Y-114914286D01*
X87010357Y-115085714D01*
X87010357Y-115200000D01*
X87067500Y-115371429D01*
X87124642Y-115428572D01*
X68292856Y-149300000D02*
X68407142Y-149242857D01*
X68578571Y-149242857D01*
X68749999Y-149300000D01*
X68864285Y-149414285D01*
X68921428Y-149528571D01*
X68978571Y-149757142D01*
X68978571Y-149928571D01*
X68921428Y-150157142D01*
X68864285Y-150271428D01*
X68749999Y-150385714D01*
X68578571Y-150442857D01*
X68464285Y-150442857D01*
X68292856Y-150385714D01*
X68235713Y-150328571D01*
X68235713Y-149928571D01*
X68464285Y-149928571D01*
X67721428Y-150442857D02*
X67721428Y-149242857D01*
X67035713Y-150442857D01*
X67035713Y-149242857D01*
X66464285Y-150442857D02*
X66464285Y-149242857D01*
X66178571Y-149242857D01*
X66007142Y-149300000D01*
X65892856Y-149414285D01*
X65835713Y-149528571D01*
X65778571Y-149757142D01*
X65778571Y-149928571D01*
X65835713Y-150157142D01*
X65892856Y-150271428D01*
X66007142Y-150385714D01*
X66178571Y-150442857D01*
X66464285Y-150442857D01*
X66464285Y-145362857D02*
X66464285Y-144162857D01*
X66178571Y-144162857D01*
X66007142Y-144220000D01*
X65892857Y-144334285D01*
X65835714Y-144448571D01*
X65778571Y-144677142D01*
X65778571Y-144848571D01*
X65835714Y-145077142D01*
X65892857Y-145191428D01*
X66007142Y-145305714D01*
X66178571Y-145362857D01*
X66464285Y-145362857D01*
X68292856Y-139140000D02*
X68407142Y-139082857D01*
X68578571Y-139082857D01*
X68749999Y-139140000D01*
X68864285Y-139254285D01*
X68921428Y-139368571D01*
X68978571Y-139597142D01*
X68978571Y-139768571D01*
X68921428Y-139997142D01*
X68864285Y-140111428D01*
X68749999Y-140225714D01*
X68578571Y-140282857D01*
X68464285Y-140282857D01*
X68292856Y-140225714D01*
X68235713Y-140168571D01*
X68235713Y-139768571D01*
X68464285Y-139768571D01*
X67721428Y-140282857D02*
X67721428Y-139082857D01*
X67035713Y-140282857D01*
X67035713Y-139082857D01*
X66464285Y-140282857D02*
X66464285Y-139082857D01*
X66178571Y-139082857D01*
X66007142Y-139140000D01*
X65892856Y-139254285D01*
X65835713Y-139368571D01*
X65778571Y-139597142D01*
X65778571Y-139768571D01*
X65835713Y-139997142D01*
X65892856Y-140111428D01*
X66007142Y-140225714D01*
X66178571Y-140282857D01*
X66464285Y-140282857D01*
X92685714Y-137114285D02*
X92514285Y-137171428D01*
X92457142Y-137228571D01*
X92400000Y-137342857D01*
X92400000Y-137514285D01*
X92457142Y-137628571D01*
X92514285Y-137685714D01*
X92628571Y-137742857D01*
X93085714Y-137742857D01*
X93085714Y-136542857D01*
X92685714Y-136542857D01*
X92571428Y-136600000D01*
X92514285Y-136657142D01*
X92457142Y-136771428D01*
X92457142Y-136885714D01*
X92514285Y-137000000D01*
X92571428Y-137057142D01*
X92685714Y-137114285D01*
X93085714Y-137114285D01*
X91257142Y-137742857D02*
X91942857Y-137742857D01*
X91600000Y-137742857D02*
X91600000Y-136542857D01*
X91714285Y-136714285D01*
X91828571Y-136828571D01*
X91942857Y-136885714D01*
X68292856Y-134060000D02*
X68407142Y-134002857D01*
X68578571Y-134002857D01*
X68749999Y-134060000D01*
X68864285Y-134174285D01*
X68921428Y-134288571D01*
X68978571Y-134517142D01*
X68978571Y-134688571D01*
X68921428Y-134917142D01*
X68864285Y-135031428D01*
X68749999Y-135145714D01*
X68578571Y-135202857D01*
X68464285Y-135202857D01*
X68292856Y-135145714D01*
X68235713Y-135088571D01*
X68235713Y-134688571D01*
X68464285Y-134688571D01*
X67721428Y-135202857D02*
X67721428Y-134002857D01*
X67035713Y-135202857D01*
X67035713Y-134002857D01*
X66464285Y-135202857D02*
X66464285Y-134002857D01*
X66178571Y-134002857D01*
X66007142Y-134060000D01*
X65892856Y-134174285D01*
X65835713Y-134288571D01*
X65778571Y-134517142D01*
X65778571Y-134688571D01*
X65835713Y-134917142D01*
X65892856Y-135031428D01*
X66007142Y-135145714D01*
X66178571Y-135202857D01*
X66464285Y-135202857D01*
X55464285Y-147788571D02*
X55521428Y-147845714D01*
X55692857Y-147902857D01*
X55807142Y-147902857D01*
X55978571Y-147845714D01*
X56092857Y-147731428D01*
X56150000Y-147617142D01*
X56207142Y-147388571D01*
X56207142Y-147217142D01*
X56150000Y-146988571D01*
X56092857Y-146874285D01*
X55978571Y-146760000D01*
X55807142Y-146702857D01*
X55692857Y-146702857D01*
X55521428Y-146760000D01*
X55464285Y-146817142D01*
X54378571Y-147902857D02*
X54950000Y-147902857D01*
X54950000Y-146702857D01*
X53978571Y-147902857D02*
X53978571Y-146702857D01*
X53292857Y-147902857D02*
X53807142Y-147217142D01*
X53292857Y-146702857D02*
X53978571Y-147388571D01*
X69435714Y-136600000D02*
X69550000Y-136542857D01*
X69721428Y-136542857D01*
X69892857Y-136600000D01*
X70007142Y-136714285D01*
X70064285Y-136828571D01*
X70121428Y-137057142D01*
X70121428Y-137228571D01*
X70064285Y-137457142D01*
X70007142Y-137571428D01*
X69892857Y-137685714D01*
X69721428Y-137742857D01*
X69607142Y-137742857D01*
X69435714Y-137685714D01*
X69378571Y-137628571D01*
X69378571Y-137228571D01*
X69607142Y-137228571D01*
X68178571Y-137742857D02*
X68578571Y-137171428D01*
X68864285Y-137742857D02*
X68864285Y-136542857D01*
X68407142Y-136542857D01*
X68292857Y-136600000D01*
X68235714Y-136657142D01*
X68178571Y-136771428D01*
X68178571Y-136942857D01*
X68235714Y-137057142D01*
X68292857Y-137114285D01*
X68407142Y-137171428D01*
X68864285Y-137171428D01*
X67664285Y-137742857D02*
X67664285Y-136542857D01*
X66978571Y-137742857D01*
X66978571Y-136542857D01*
X66464285Y-136657142D02*
X66407142Y-136600000D01*
X66292857Y-136542857D01*
X66007142Y-136542857D01*
X65892857Y-136600000D01*
X65835714Y-136657142D01*
X65778571Y-136771428D01*
X65778571Y-136885714D01*
X65835714Y-137057142D01*
X66521428Y-137742857D01*
X65778571Y-137742857D01*
X85082142Y-136605000D02*
X85196428Y-136547857D01*
X85367857Y-136547857D01*
X85539285Y-136605000D01*
X85653571Y-136719285D01*
X85710714Y-136833571D01*
X85767857Y-137062142D01*
X85767857Y-137233571D01*
X85710714Y-137462142D01*
X85653571Y-137576428D01*
X85539285Y-137690714D01*
X85367857Y-137747857D01*
X85253571Y-137747857D01*
X85082142Y-137690714D01*
X85025000Y-137633571D01*
X85025000Y-137233571D01*
X85253571Y-137233571D01*
X83882142Y-137747857D02*
X84567857Y-137747857D01*
X84225000Y-137747857D02*
X84225000Y-136547857D01*
X84339285Y-136719285D01*
X84453571Y-136833571D01*
X84567857Y-136890714D01*
X55750000Y-139654285D02*
X55578571Y-139711428D01*
X55521428Y-139768571D01*
X55464285Y-139882857D01*
X55464285Y-140054285D01*
X55521428Y-140168571D01*
X55578571Y-140225714D01*
X55692857Y-140282857D01*
X56150000Y-140282857D01*
X56150000Y-139082857D01*
X55750000Y-139082857D01*
X55635714Y-139140000D01*
X55578571Y-139197142D01*
X55521428Y-139311428D01*
X55521428Y-139425714D01*
X55578571Y-139540000D01*
X55635714Y-139597142D01*
X55750000Y-139654285D01*
X56150000Y-139654285D01*
X54378571Y-140282857D02*
X54950000Y-140282857D01*
X54950000Y-139082857D01*
X53978571Y-139082857D02*
X53978571Y-140054285D01*
X53921428Y-140168571D01*
X53864285Y-140225714D01*
X53750000Y-140282857D01*
X53521428Y-140282857D01*
X53407142Y-140225714D01*
X53350000Y-140168571D01*
X53292857Y-140054285D01*
X53292857Y-139082857D01*
X52778571Y-139197142D02*
X52721428Y-139140000D01*
X52607142Y-139082857D01*
X52321428Y-139082857D01*
X52207142Y-139140000D01*
X52150000Y-139197142D01*
X52092857Y-139311428D01*
X52092857Y-139425714D01*
X52150000Y-139597142D01*
X52835714Y-140282857D01*
X52092857Y-140282857D01*
X92507142Y-131550000D02*
X92621428Y-131492857D01*
X92792857Y-131492857D01*
X92964285Y-131550000D01*
X93078571Y-131664285D01*
X93135714Y-131778571D01*
X93192857Y-132007142D01*
X93192857Y-132178571D01*
X93135714Y-132407142D01*
X93078571Y-132521428D01*
X92964285Y-132635714D01*
X92792857Y-132692857D01*
X92678571Y-132692857D01*
X92507142Y-132635714D01*
X92450000Y-132578571D01*
X92450000Y-132178571D01*
X92678571Y-132178571D01*
X91992857Y-131607142D02*
X91935714Y-131550000D01*
X91821428Y-131492857D01*
X91535714Y-131492857D01*
X91421428Y-131550000D01*
X91364285Y-131607142D01*
X91307142Y-131721428D01*
X91307142Y-131835714D01*
X91364285Y-132007142D01*
X92050000Y-132692857D01*
X91307142Y-132692857D01*
X55750000Y-134574285D02*
X55578571Y-134631428D01*
X55521428Y-134688571D01*
X55464285Y-134802857D01*
X55464285Y-134974285D01*
X55521428Y-135088571D01*
X55578571Y-135145714D01*
X55692857Y-135202857D01*
X56150000Y-135202857D01*
X56150000Y-134002857D01*
X55750000Y-134002857D01*
X55635714Y-134060000D01*
X55578571Y-134117142D01*
X55521428Y-134231428D01*
X55521428Y-134345714D01*
X55578571Y-134460000D01*
X55635714Y-134517142D01*
X55750000Y-134574285D01*
X56150000Y-134574285D01*
X54378571Y-135202857D02*
X54950000Y-135202857D01*
X54950000Y-134002857D01*
X53978571Y-134002857D02*
X53978571Y-134974285D01*
X53921428Y-135088571D01*
X53864285Y-135145714D01*
X53750000Y-135202857D01*
X53521428Y-135202857D01*
X53407142Y-135145714D01*
X53350000Y-135088571D01*
X53292857Y-134974285D01*
X53292857Y-134002857D01*
X52092857Y-135202857D02*
X52778571Y-135202857D01*
X52435714Y-135202857D02*
X52435714Y-134002857D01*
X52550000Y-134174285D01*
X52664285Y-134288571D01*
X52778571Y-134345714D01*
X84470357Y-112742858D02*
X84470357Y-112971429D01*
X84527500Y-113085715D01*
X84641785Y-113200000D01*
X84870357Y-113257143D01*
X85270357Y-113257143D01*
X85498928Y-113200000D01*
X85613214Y-113085715D01*
X85670357Y-112971429D01*
X85670357Y-112742858D01*
X85613214Y-112628572D01*
X85498928Y-112514286D01*
X85270357Y-112457143D01*
X84870357Y-112457143D01*
X84641785Y-112514286D01*
X84527500Y-112628572D01*
X84470357Y-112742858D01*
X84470357Y-113771429D02*
X85441785Y-113771429D01*
X85556071Y-113828572D01*
X85613214Y-113885715D01*
X85670357Y-114000000D01*
X85670357Y-114228572D01*
X85613214Y-114342858D01*
X85556071Y-114400000D01*
X85441785Y-114457143D01*
X84470357Y-114457143D01*
X84470357Y-114857143D02*
X84470357Y-115542858D01*
X85670357Y-115200000D02*
X84470357Y-115200000D01*
X83942857Y-164779410D02*
X83942857Y-164207982D01*
X84514285Y-164150839D01*
X84457142Y-164207982D01*
X84400000Y-164322267D01*
X84400000Y-164607982D01*
X84457142Y-164722267D01*
X84514285Y-164779410D01*
X84628571Y-164836553D01*
X84914285Y-164836553D01*
X85028571Y-164779410D01*
X85085714Y-164722267D01*
X85142857Y-164607982D01*
X85142857Y-164322267D01*
X85085714Y-164207982D01*
X85028571Y-164150839D01*
X83942857Y-165179410D02*
X85142857Y-165579410D01*
X83942857Y-165979410D01*
X56085714Y-142450000D02*
X55514285Y-142450000D01*
X56200000Y-142792857D02*
X55800000Y-141592857D01*
X55400000Y-142792857D01*
X35628571Y-118642857D02*
X36200000Y-118642857D01*
X36257142Y-119214285D01*
X36200000Y-119157142D01*
X36085714Y-119100000D01*
X35800000Y-119100000D01*
X35685714Y-119157142D01*
X35628571Y-119214285D01*
X35571428Y-119328571D01*
X35571428Y-119614285D01*
X35628571Y-119728571D01*
X35685714Y-119785714D01*
X35800000Y-119842857D01*
X36085714Y-119842857D01*
X36200000Y-119785714D01*
X36257142Y-119728571D01*
X35228571Y-118642857D02*
X34828571Y-119842857D01*
X34428571Y-118642857D01*
X66064285Y-142194285D02*
X65892857Y-142251428D01*
X65835714Y-142308571D01*
X65778571Y-142422857D01*
X65778571Y-142594285D01*
X65835714Y-142708571D01*
X65892857Y-142765714D01*
X66007142Y-142822857D01*
X66464285Y-142822857D01*
X66464285Y-141622857D01*
X66064285Y-141622857D01*
X65950000Y-141680000D01*
X65892857Y-141737142D01*
X65835714Y-141851428D01*
X65835714Y-141965714D01*
X65892857Y-142080000D01*
X65950000Y-142137142D01*
X66064285Y-142194285D01*
X66464285Y-142194285D01*
X55292857Y-149185714D02*
X56321429Y-150728571D01*
X54664286Y-149242857D02*
X54435715Y-149242857D01*
X54321429Y-149300000D01*
X54207143Y-149414285D01*
X54150000Y-149642857D01*
X54150000Y-150042857D01*
X54207143Y-150271428D01*
X54321429Y-150385714D01*
X54435715Y-150442857D01*
X54664286Y-150442857D01*
X54778572Y-150385714D01*
X54892857Y-150271428D01*
X54950000Y-150042857D01*
X54950000Y-149642857D01*
X54892857Y-149414285D01*
X54778572Y-149300000D01*
X54664286Y-149242857D01*
X53635715Y-149814285D02*
X53235715Y-149814285D01*
X53064286Y-150442857D02*
X53635715Y-150442857D01*
X53635715Y-149242857D01*
X53064286Y-149242857D01*
X55464286Y-132662857D02*
X55864286Y-132091428D01*
X56150000Y-132662857D02*
X56150000Y-131462857D01*
X55692857Y-131462857D01*
X55578571Y-131520000D01*
X55521429Y-131577142D01*
X55464286Y-131691428D01*
X55464286Y-131862857D01*
X55521429Y-131977142D01*
X55578571Y-132034285D01*
X55692857Y-132091428D01*
X56150000Y-132091428D01*
X54950000Y-132034285D02*
X54550000Y-132034285D01*
X54378571Y-132662857D02*
X54950000Y-132662857D01*
X54950000Y-131462857D01*
X54378571Y-131462857D01*
X53864286Y-132662857D02*
X53864286Y-131462857D01*
X53578571Y-131462857D01*
X53407143Y-131520000D01*
X53292857Y-131634285D01*
X53235714Y-131748571D01*
X53178571Y-131977142D01*
X53178571Y-132148571D01*
X53235714Y-132377142D01*
X53292857Y-132491428D01*
X53407143Y-132605714D01*
X53578571Y-132662857D01*
X53864286Y-132662857D01*
X52035714Y-132662857D02*
X52721429Y-132662857D01*
X52378571Y-132662857D02*
X52378571Y-131462857D01*
X52492857Y-131634285D01*
X52607143Y-131748571D01*
X52721429Y-131805714D01*
X69435714Y-131520000D02*
X69550000Y-131462857D01*
X69721428Y-131462857D01*
X69892857Y-131520000D01*
X70007142Y-131634285D01*
X70064285Y-131748571D01*
X70121428Y-131977142D01*
X70121428Y-132148571D01*
X70064285Y-132377142D01*
X70007142Y-132491428D01*
X69892857Y-132605714D01*
X69721428Y-132662857D01*
X69607142Y-132662857D01*
X69435714Y-132605714D01*
X69378571Y-132548571D01*
X69378571Y-132148571D01*
X69607142Y-132148571D01*
X68178571Y-132662857D02*
X68578571Y-132091428D01*
X68864285Y-132662857D02*
X68864285Y-131462857D01*
X68407142Y-131462857D01*
X68292857Y-131520000D01*
X68235714Y-131577142D01*
X68178571Y-131691428D01*
X68178571Y-131862857D01*
X68235714Y-131977142D01*
X68292857Y-132034285D01*
X68407142Y-132091428D01*
X68864285Y-132091428D01*
X67664285Y-132662857D02*
X67664285Y-131462857D01*
X66978571Y-132662857D01*
X66978571Y-131462857D01*
X65778571Y-132662857D02*
X66464285Y-132662857D01*
X66121428Y-132662857D02*
X66121428Y-131462857D01*
X66235714Y-131634285D01*
X66350000Y-131748571D01*
X66464285Y-131805714D01*
X81930357Y-112514285D02*
X81930357Y-113257142D01*
X82387500Y-112857142D01*
X82387500Y-113028571D01*
X82444642Y-113142857D01*
X82501785Y-113200000D01*
X82616071Y-113257142D01*
X82901785Y-113257142D01*
X83016071Y-113200000D01*
X83073214Y-113142857D01*
X83130357Y-113028571D01*
X83130357Y-112685714D01*
X83073214Y-112571428D01*
X83016071Y-112514285D01*
X81930357Y-113600000D02*
X83130357Y-114000000D01*
X81930357Y-114400000D01*
X81930357Y-114685714D02*
X81930357Y-115428571D01*
X82387500Y-115028571D01*
X82387500Y-115200000D01*
X82444642Y-115314285D01*
X82501785Y-115371428D01*
X82616071Y-115428571D01*
X82901785Y-115428571D01*
X83016071Y-115371428D01*
X83073214Y-115314285D01*
X83130357Y-115200000D01*
X83130357Y-114857142D01*
X83073214Y-114742857D01*
X83016071Y-114685714D01*
D10*
%TO.C,REF\u002A\u002A*%
X41175000Y-157400000D02*
G75*
G03*
X41175000Y-157400000I-925000J0D01*
G01*
X35175000Y-157400000D02*
G75*
G03*
X35175000Y-157400000I-925000J0D01*
G01*
D12*
X37425000Y-157400000D02*
G75*
G03*
X37425000Y-157400000I-175000J0D01*
G01*
D10*
X38000000Y-156725000D02*
G75*
G03*
X37925000Y-158150000I-750000J-675000D01*
G01*
X35250000Y-157400000D02*
X36150000Y-157400000D01*
X37250000Y-157400000D02*
X39250000Y-157400000D01*
G36*
X61971634Y-157633172D02*
G01*
X62084216Y-158230363D01*
X62499629Y-158401610D01*
X62915043Y-158572857D01*
X63413400Y-158233978D01*
X63512036Y-158167170D01*
X63642797Y-158079479D01*
X63756008Y-158004580D01*
X63845789Y-157946320D01*
X63906261Y-157908545D01*
X63931544Y-157895098D01*
X63947072Y-157904661D01*
X63993487Y-157944730D01*
X64063730Y-158010487D01*
X64151848Y-158095895D01*
X64251889Y-158194915D01*
X64357902Y-158301509D01*
X64463935Y-158409640D01*
X64564035Y-158513268D01*
X64652251Y-158606358D01*
X64722632Y-158682869D01*
X64769225Y-158736765D01*
X64786079Y-158762007D01*
X64782158Y-158772852D01*
X64755012Y-158821228D01*
X64705439Y-158900842D01*
X64637459Y-159005454D01*
X64555091Y-159128822D01*
X64462353Y-159264706D01*
X64411460Y-159338815D01*
X64323912Y-159467835D01*
X64248853Y-159580434D01*
X64190285Y-159670505D01*
X64152209Y-159731942D01*
X64138628Y-159758640D01*
X64138851Y-159760119D01*
X64150831Y-159793962D01*
X64178316Y-159863071D01*
X64217474Y-159958416D01*
X64264474Y-160070972D01*
X64315485Y-160191710D01*
X64366676Y-160311602D01*
X64414215Y-160421622D01*
X64454271Y-160512740D01*
X64483013Y-160575931D01*
X64496610Y-160602165D01*
X64504655Y-160604492D01*
X64553535Y-160614988D01*
X64640652Y-160632376D01*
X64759033Y-160655295D01*
X64901704Y-160682389D01*
X65061692Y-160712296D01*
X65146015Y-160728153D01*
X65300783Y-160758407D01*
X65436104Y-160786347D01*
X65544582Y-160810369D01*
X65618820Y-160828868D01*
X65651422Y-160840238D01*
X65657278Y-160851511D01*
X65666992Y-160906586D01*
X65674624Y-160998317D01*
X65680180Y-161118073D01*
X65683666Y-161257221D01*
X65685087Y-161407131D01*
X65684450Y-161559172D01*
X65681760Y-161704712D01*
X65677024Y-161835121D01*
X65670247Y-161941766D01*
X65661436Y-162016018D01*
X65650595Y-162049245D01*
X65644017Y-162052993D01*
X65594955Y-162069069D01*
X65509847Y-162090338D01*
X65398529Y-162114472D01*
X65270840Y-162139143D01*
X65227757Y-162147000D01*
X65028773Y-162183542D01*
X64872388Y-162212910D01*
X64753183Y-162236321D01*
X64665737Y-162254994D01*
X64604628Y-162270146D01*
X64564435Y-162282995D01*
X64539738Y-162294758D01*
X64525116Y-162306653D01*
X64523416Y-162308649D01*
X64499504Y-162350271D01*
X64464119Y-162426430D01*
X64420692Y-162528193D01*
X64372651Y-162646624D01*
X64323425Y-162772789D01*
X64276445Y-162897754D01*
X64235140Y-163012584D01*
X64202939Y-163108344D01*
X64183271Y-163176100D01*
X64179565Y-163206917D01*
X64182043Y-163210915D01*
X64207689Y-163249584D01*
X64255920Y-163320907D01*
X64322262Y-163418314D01*
X64402245Y-163535234D01*
X64491397Y-163665098D01*
X64515865Y-163700828D01*
X64601903Y-163828990D01*
X64676258Y-163943608D01*
X64734688Y-164037887D01*
X64772947Y-164105029D01*
X64786792Y-164138235D01*
X64783809Y-164146965D01*
X64752711Y-164189982D01*
X64691355Y-164260230D01*
X64604137Y-164352979D01*
X64495449Y-164463502D01*
X64369685Y-164587071D01*
X64297800Y-164656235D01*
X64184139Y-164763957D01*
X64084657Y-164856225D01*
X64004695Y-164928181D01*
X63949595Y-164974968D01*
X63924698Y-164991727D01*
X63907593Y-164985515D01*
X63854929Y-164956126D01*
X63778449Y-164908063D01*
X63688129Y-164847412D01*
X63623911Y-164803153D01*
X63495705Y-164715261D01*
X63358894Y-164621915D01*
X63233932Y-164537091D01*
X62989137Y-164371515D01*
X62783649Y-164482620D01*
X62735263Y-164508265D01*
X62647270Y-164552130D01*
X62579223Y-164582414D01*
X62542856Y-164593706D01*
X62530954Y-164579205D01*
X62501400Y-164523992D01*
X62457748Y-164432962D01*
X62402426Y-164311892D01*
X62337863Y-164166559D01*
X62266489Y-164002741D01*
X62190732Y-163826213D01*
X62113022Y-163642753D01*
X62035786Y-163458138D01*
X61961456Y-163278146D01*
X61892458Y-163108552D01*
X61831223Y-162955135D01*
X61780179Y-162823670D01*
X61741755Y-162719936D01*
X61718380Y-162649709D01*
X61712483Y-162618766D01*
X61712883Y-162617862D01*
X61740349Y-162589257D01*
X61797799Y-162544457D01*
X61873373Y-162492751D01*
X61897227Y-162476962D01*
X62078734Y-162327174D01*
X62228953Y-162148767D01*
X62344327Y-161949165D01*
X62421299Y-161735797D01*
X62456314Y-161516087D01*
X62445813Y-161297462D01*
X62403277Y-161103011D01*
X62326903Y-160906657D01*
X62215565Y-160731484D01*
X62062774Y-160565082D01*
X62002739Y-160511924D01*
X61808658Y-160380951D01*
X61598999Y-160292744D01*
X61379837Y-160246512D01*
X61157247Y-160241467D01*
X60937307Y-160276820D01*
X60726090Y-160351779D01*
X60529673Y-160465557D01*
X60354132Y-160617363D01*
X60205542Y-160806409D01*
X60176974Y-160853224D01*
X60079873Y-161067204D01*
X60028303Y-161290026D01*
X60020914Y-161515922D01*
X60056355Y-161739119D01*
X60133276Y-161953847D01*
X60250326Y-162154336D01*
X60406155Y-162334814D01*
X60599413Y-162489510D01*
X60605689Y-162493679D01*
X60680461Y-162546370D01*
X60736504Y-162591169D01*
X60762100Y-162618766D01*
X60758870Y-162640402D01*
X60738790Y-162703399D01*
X60703184Y-162801038D01*
X60654480Y-162927542D01*
X60595108Y-163077132D01*
X60527494Y-163244030D01*
X60454066Y-163422457D01*
X60377254Y-163606636D01*
X60299484Y-163790787D01*
X60223185Y-163969133D01*
X60150784Y-164135895D01*
X60084710Y-164285294D01*
X60027391Y-164411554D01*
X59981255Y-164508894D01*
X59948730Y-164571538D01*
X59932243Y-164593706D01*
X59918533Y-164590703D01*
X59864670Y-164569126D01*
X59785064Y-164531293D01*
X59691449Y-164482620D01*
X59485962Y-164371515D01*
X59241167Y-164537091D01*
X59168845Y-164586120D01*
X59034326Y-164677729D01*
X58900215Y-164769485D01*
X58786970Y-164847412D01*
X58724470Y-164889881D01*
X58643239Y-164942644D01*
X58583009Y-164978765D01*
X58553591Y-164992157D01*
X58540953Y-164986471D01*
X58495267Y-164951645D01*
X58424838Y-164890329D01*
X58335796Y-164808554D01*
X58234272Y-164712351D01*
X58126394Y-164607751D01*
X58018295Y-164500786D01*
X57916103Y-164397485D01*
X57825950Y-164303882D01*
X57753964Y-164226006D01*
X57706278Y-164169889D01*
X57689020Y-164141562D01*
X57690015Y-164136172D01*
X57710555Y-164092304D01*
X57754434Y-164016407D01*
X57817412Y-163915336D01*
X57895247Y-163795948D01*
X57983701Y-163665098D01*
X58008509Y-163629005D01*
X58095618Y-163502000D01*
X58172347Y-163389718D01*
X58234224Y-163298730D01*
X58276777Y-163235606D01*
X58295534Y-163206917D01*
X58295995Y-163205687D01*
X58290459Y-163170588D01*
X58269320Y-163099484D01*
X58236005Y-163001310D01*
X58193945Y-162885002D01*
X58146570Y-162759493D01*
X58097308Y-162633718D01*
X58049589Y-162516612D01*
X58006842Y-162417110D01*
X57972497Y-162344145D01*
X57949983Y-162306653D01*
X57947728Y-162304325D01*
X57931608Y-162292549D01*
X57904383Y-162280673D01*
X57860633Y-162267481D01*
X57794935Y-162251754D01*
X57701870Y-162232274D01*
X57576016Y-162207824D01*
X57411953Y-162177186D01*
X57204259Y-162139143D01*
X57161181Y-162131136D01*
X57037777Y-162106384D01*
X56933972Y-162082933D01*
X56859601Y-162063110D01*
X56824504Y-162049245D01*
X56818632Y-162037677D01*
X56808842Y-161982110D01*
X56801085Y-161889990D01*
X56795365Y-161769951D01*
X56791689Y-161630622D01*
X56790062Y-161480635D01*
X56790491Y-161328621D01*
X56792982Y-161183212D01*
X56797540Y-161053037D01*
X56804171Y-160946730D01*
X56812881Y-160872919D01*
X56823677Y-160840238D01*
X56834699Y-160835410D01*
X56889531Y-160820191D01*
X56982213Y-160798666D01*
X57105351Y-160772439D01*
X57251548Y-160743114D01*
X57413406Y-160712296D01*
X57501784Y-160695831D01*
X57653259Y-160667279D01*
X57783640Y-160642277D01*
X57885954Y-160622185D01*
X57953228Y-160608362D01*
X57978489Y-160602165D01*
X57979438Y-160600888D01*
X57995526Y-160568437D01*
X58026194Y-160500452D01*
X58067611Y-160405954D01*
X58115941Y-160293964D01*
X58167354Y-160173500D01*
X58218014Y-160053584D01*
X58264089Y-159943235D01*
X58301746Y-159851473D01*
X58327151Y-159787319D01*
X58336471Y-159759792D01*
X58332360Y-159750106D01*
X58305000Y-159704018D01*
X58255370Y-159626440D01*
X58187460Y-159523461D01*
X58105255Y-159401167D01*
X58012746Y-159265646D01*
X57961991Y-159191429D01*
X57874403Y-159061309D01*
X57799306Y-158947112D01*
X57740707Y-158855066D01*
X57702609Y-158791398D01*
X57689020Y-158762337D01*
X57698462Y-158746573D01*
X57737960Y-158699471D01*
X57802758Y-158628186D01*
X57886909Y-158538760D01*
X57984464Y-158437232D01*
X58089474Y-158329643D01*
X58195993Y-158222034D01*
X58298071Y-158120445D01*
X58389760Y-158030917D01*
X58465112Y-157959489D01*
X58518180Y-157912203D01*
X58543014Y-157895098D01*
X58556799Y-157901749D01*
X58607418Y-157932592D01*
X58689105Y-157985083D01*
X58795972Y-158055375D01*
X58922132Y-158139622D01*
X59061698Y-158233978D01*
X59560056Y-158572857D01*
X59975469Y-158401610D01*
X60390883Y-158230363D01*
X60503465Y-157633172D01*
X60616048Y-157035980D01*
X61859051Y-157035980D01*
X61971634Y-157633172D01*
G37*
D13*
X61971634Y-157633172D02*
X62084216Y-158230363D01*
X62499629Y-158401610D01*
X62915043Y-158572857D01*
X63413400Y-158233978D01*
X63512036Y-158167170D01*
X63642797Y-158079479D01*
X63756008Y-158004580D01*
X63845789Y-157946320D01*
X63906261Y-157908545D01*
X63931544Y-157895098D01*
X63947072Y-157904661D01*
X63993487Y-157944730D01*
X64063730Y-158010487D01*
X64151848Y-158095895D01*
X64251889Y-158194915D01*
X64357902Y-158301509D01*
X64463935Y-158409640D01*
X64564035Y-158513268D01*
X64652251Y-158606358D01*
X64722632Y-158682869D01*
X64769225Y-158736765D01*
X64786079Y-158762007D01*
X64782158Y-158772852D01*
X64755012Y-158821228D01*
X64705439Y-158900842D01*
X64637459Y-159005454D01*
X64555091Y-159128822D01*
X64462353Y-159264706D01*
X64411460Y-159338815D01*
X64323912Y-159467835D01*
X64248853Y-159580434D01*
X64190285Y-159670505D01*
X64152209Y-159731942D01*
X64138628Y-159758640D01*
X64138851Y-159760119D01*
X64150831Y-159793962D01*
X64178316Y-159863071D01*
X64217474Y-159958416D01*
X64264474Y-160070972D01*
X64315485Y-160191710D01*
X64366676Y-160311602D01*
X64414215Y-160421622D01*
X64454271Y-160512740D01*
X64483013Y-160575931D01*
X64496610Y-160602165D01*
X64504655Y-160604492D01*
X64553535Y-160614988D01*
X64640652Y-160632376D01*
X64759033Y-160655295D01*
X64901704Y-160682389D01*
X65061692Y-160712296D01*
X65146015Y-160728153D01*
X65300783Y-160758407D01*
X65436104Y-160786347D01*
X65544582Y-160810369D01*
X65618820Y-160828868D01*
X65651422Y-160840238D01*
X65657278Y-160851511D01*
X65666992Y-160906586D01*
X65674624Y-160998317D01*
X65680180Y-161118073D01*
X65683666Y-161257221D01*
X65685087Y-161407131D01*
X65684450Y-161559172D01*
X65681760Y-161704712D01*
X65677024Y-161835121D01*
X65670247Y-161941766D01*
X65661436Y-162016018D01*
X65650595Y-162049245D01*
X65644017Y-162052993D01*
X65594955Y-162069069D01*
X65509847Y-162090338D01*
X65398529Y-162114472D01*
X65270840Y-162139143D01*
X65227757Y-162147000D01*
X65028773Y-162183542D01*
X64872388Y-162212910D01*
X64753183Y-162236321D01*
X64665737Y-162254994D01*
X64604628Y-162270146D01*
X64564435Y-162282995D01*
X64539738Y-162294758D01*
X64525116Y-162306653D01*
X64523416Y-162308649D01*
X64499504Y-162350271D01*
X64464119Y-162426430D01*
X64420692Y-162528193D01*
X64372651Y-162646624D01*
X64323425Y-162772789D01*
X64276445Y-162897754D01*
X64235140Y-163012584D01*
X64202939Y-163108344D01*
X64183271Y-163176100D01*
X64179565Y-163206917D01*
X64182043Y-163210915D01*
X64207689Y-163249584D01*
X64255920Y-163320907D01*
X64322262Y-163418314D01*
X64402245Y-163535234D01*
X64491397Y-163665098D01*
X64515865Y-163700828D01*
X64601903Y-163828990D01*
X64676258Y-163943608D01*
X64734688Y-164037887D01*
X64772947Y-164105029D01*
X64786792Y-164138235D01*
X64783809Y-164146965D01*
X64752711Y-164189982D01*
X64691355Y-164260230D01*
X64604137Y-164352979D01*
X64495449Y-164463502D01*
X64369685Y-164587071D01*
X64297800Y-164656235D01*
X64184139Y-164763957D01*
X64084657Y-164856225D01*
X64004695Y-164928181D01*
X63949595Y-164974968D01*
X63924698Y-164991727D01*
X63907593Y-164985515D01*
X63854929Y-164956126D01*
X63778449Y-164908063D01*
X63688129Y-164847412D01*
X63623911Y-164803153D01*
X63495705Y-164715261D01*
X63358894Y-164621915D01*
X63233932Y-164537091D01*
X62989137Y-164371515D01*
X62783649Y-164482620D01*
X62735263Y-164508265D01*
X62647270Y-164552130D01*
X62579223Y-164582414D01*
X62542856Y-164593706D01*
X62530954Y-164579205D01*
X62501400Y-164523992D01*
X62457748Y-164432962D01*
X62402426Y-164311892D01*
X62337863Y-164166559D01*
X62266489Y-164002741D01*
X62190732Y-163826213D01*
X62113022Y-163642753D01*
X62035786Y-163458138D01*
X61961456Y-163278146D01*
X61892458Y-163108552D01*
X61831223Y-162955135D01*
X61780179Y-162823670D01*
X61741755Y-162719936D01*
X61718380Y-162649709D01*
X61712483Y-162618766D01*
X61712883Y-162617862D01*
X61740349Y-162589257D01*
X61797799Y-162544457D01*
X61873373Y-162492751D01*
X61897227Y-162476962D01*
X62078734Y-162327174D01*
X62228953Y-162148767D01*
X62344327Y-161949165D01*
X62421299Y-161735797D01*
X62456314Y-161516087D01*
X62445813Y-161297462D01*
X62403277Y-161103011D01*
X62326903Y-160906657D01*
X62215565Y-160731484D01*
X62062774Y-160565082D01*
X62002739Y-160511924D01*
X61808658Y-160380951D01*
X61598999Y-160292744D01*
X61379837Y-160246512D01*
X61157247Y-160241467D01*
X60937307Y-160276820D01*
X60726090Y-160351779D01*
X60529673Y-160465557D01*
X60354132Y-160617363D01*
X60205542Y-160806409D01*
X60176974Y-160853224D01*
X60079873Y-161067204D01*
X60028303Y-161290026D01*
X60020914Y-161515922D01*
X60056355Y-161739119D01*
X60133276Y-161953847D01*
X60250326Y-162154336D01*
X60406155Y-162334814D01*
X60599413Y-162489510D01*
X60605689Y-162493679D01*
X60680461Y-162546370D01*
X60736504Y-162591169D01*
X60762100Y-162618766D01*
X60758870Y-162640402D01*
X60738790Y-162703399D01*
X60703184Y-162801038D01*
X60654480Y-162927542D01*
X60595108Y-163077132D01*
X60527494Y-163244030D01*
X60454066Y-163422457D01*
X60377254Y-163606636D01*
X60299484Y-163790787D01*
X60223185Y-163969133D01*
X60150784Y-164135895D01*
X60084710Y-164285294D01*
X60027391Y-164411554D01*
X59981255Y-164508894D01*
X59948730Y-164571538D01*
X59932243Y-164593706D01*
X59918533Y-164590703D01*
X59864670Y-164569126D01*
X59785064Y-164531293D01*
X59691449Y-164482620D01*
X59485962Y-164371515D01*
X59241167Y-164537091D01*
X59168845Y-164586120D01*
X59034326Y-164677729D01*
X58900215Y-164769485D01*
X58786970Y-164847412D01*
X58724470Y-164889881D01*
X58643239Y-164942644D01*
X58583009Y-164978765D01*
X58553591Y-164992157D01*
X58540953Y-164986471D01*
X58495267Y-164951645D01*
X58424838Y-164890329D01*
X58335796Y-164808554D01*
X58234272Y-164712351D01*
X58126394Y-164607751D01*
X58018295Y-164500786D01*
X57916103Y-164397485D01*
X57825950Y-164303882D01*
X57753964Y-164226006D01*
X57706278Y-164169889D01*
X57689020Y-164141562D01*
X57690015Y-164136172D01*
X57710555Y-164092304D01*
X57754434Y-164016407D01*
X57817412Y-163915336D01*
X57895247Y-163795948D01*
X57983701Y-163665098D01*
X58008509Y-163629005D01*
X58095618Y-163502000D01*
X58172347Y-163389718D01*
X58234224Y-163298730D01*
X58276777Y-163235606D01*
X58295534Y-163206917D01*
X58295995Y-163205687D01*
X58290459Y-163170588D01*
X58269320Y-163099484D01*
X58236005Y-163001310D01*
X58193945Y-162885002D01*
X58146570Y-162759493D01*
X58097308Y-162633718D01*
X58049589Y-162516612D01*
X58006842Y-162417110D01*
X57972497Y-162344145D01*
X57949983Y-162306653D01*
X57947728Y-162304325D01*
X57931608Y-162292549D01*
X57904383Y-162280673D01*
X57860633Y-162267481D01*
X57794935Y-162251754D01*
X57701870Y-162232274D01*
X57576016Y-162207824D01*
X57411953Y-162177186D01*
X57204259Y-162139143D01*
X57161181Y-162131136D01*
X57037777Y-162106384D01*
X56933972Y-162082933D01*
X56859601Y-162063110D01*
X56824504Y-162049245D01*
X56818632Y-162037677D01*
X56808842Y-161982110D01*
X56801085Y-161889990D01*
X56795365Y-161769951D01*
X56791689Y-161630622D01*
X56790062Y-161480635D01*
X56790491Y-161328621D01*
X56792982Y-161183212D01*
X56797540Y-161053037D01*
X56804171Y-160946730D01*
X56812881Y-160872919D01*
X56823677Y-160840238D01*
X56834699Y-160835410D01*
X56889531Y-160820191D01*
X56982213Y-160798666D01*
X57105351Y-160772439D01*
X57251548Y-160743114D01*
X57413406Y-160712296D01*
X57501784Y-160695831D01*
X57653259Y-160667279D01*
X57783640Y-160642277D01*
X57885954Y-160622185D01*
X57953228Y-160608362D01*
X57978489Y-160602165D01*
X57979438Y-160600888D01*
X57995526Y-160568437D01*
X58026194Y-160500452D01*
X58067611Y-160405954D01*
X58115941Y-160293964D01*
X58167354Y-160173500D01*
X58218014Y-160053584D01*
X58264089Y-159943235D01*
X58301746Y-159851473D01*
X58327151Y-159787319D01*
X58336471Y-159759792D01*
X58332360Y-159750106D01*
X58305000Y-159704018D01*
X58255370Y-159626440D01*
X58187460Y-159523461D01*
X58105255Y-159401167D01*
X58012746Y-159265646D01*
X57961991Y-159191429D01*
X57874403Y-159061309D01*
X57799306Y-158947112D01*
X57740707Y-158855066D01*
X57702609Y-158791398D01*
X57689020Y-158762337D01*
X57698462Y-158746573D01*
X57737960Y-158699471D01*
X57802758Y-158628186D01*
X57886909Y-158538760D01*
X57984464Y-158437232D01*
X58089474Y-158329643D01*
X58195993Y-158222034D01*
X58298071Y-158120445D01*
X58389760Y-158030917D01*
X58465112Y-157959489D01*
X58518180Y-157912203D01*
X58543014Y-157895098D01*
X58556799Y-157901749D01*
X58607418Y-157932592D01*
X58689105Y-157985083D01*
X58795972Y-158055375D01*
X58922132Y-158139622D01*
X59061698Y-158233978D01*
X59560056Y-158572857D01*
X59975469Y-158401610D01*
X60390883Y-158230363D01*
X60503465Y-157633172D01*
X60616048Y-157035980D01*
X61859051Y-157035980D01*
X61971634Y-157633172D01*
G36*
X61445810Y-165887820D02*
G01*
X61589629Y-165923866D01*
X61694691Y-165990677D01*
X61761594Y-166088702D01*
X61790940Y-166218387D01*
X61784999Y-166342544D01*
X61742114Y-166447266D01*
X61659876Y-166524693D01*
X61536635Y-166576337D01*
X61370744Y-166603710D01*
X61262952Y-166618057D01*
X61164566Y-166649099D01*
X61113771Y-166694053D01*
X61110704Y-166752838D01*
X61131146Y-166789493D01*
X61194454Y-166832935D01*
X61284449Y-166853483D01*
X61389913Y-166850673D01*
X61499626Y-166824042D01*
X61602368Y-166773128D01*
X61704804Y-166705339D01*
X61794902Y-166796508D01*
X61885000Y-166887676D01*
X61810295Y-166948655D01*
X61781246Y-166969842D01*
X61699517Y-167017978D01*
X61611079Y-167059457D01*
X61541087Y-167083262D01*
X61438602Y-167100504D01*
X61312255Y-167100732D01*
X61157318Y-167081748D01*
X61017745Y-167033630D01*
X60918950Y-166957195D01*
X60860701Y-166852254D01*
X60842762Y-166718617D01*
X60855747Y-166601054D01*
X60897431Y-166504803D01*
X60972477Y-166435873D01*
X61085635Y-166390030D01*
X61241654Y-166363042D01*
X61259574Y-166361088D01*
X61356714Y-166348630D01*
X61435514Y-166335592D01*
X61480344Y-166324499D01*
X61495304Y-166315567D01*
X61520596Y-166269509D01*
X61516488Y-166210553D01*
X61482688Y-166159373D01*
X61464939Y-166148210D01*
X61390981Y-166130326D01*
X61295451Y-166131529D01*
X61195836Y-166150561D01*
X61109621Y-166186168D01*
X61019031Y-166239618D01*
X60948763Y-166157505D01*
X60931712Y-166136644D01*
X60893298Y-166080761D01*
X60877483Y-166042887D01*
X60894090Y-166019664D01*
X60945469Y-165983412D01*
X61019657Y-165944402D01*
X61030110Y-165939633D01*
X61127941Y-165902229D01*
X61222241Y-165884345D01*
X61339262Y-165880754D01*
X61445810Y-165887820D01*
G37*
X61445810Y-165887820D02*
X61589629Y-165923866D01*
X61694691Y-165990677D01*
X61761594Y-166088702D01*
X61790940Y-166218387D01*
X61784999Y-166342544D01*
X61742114Y-166447266D01*
X61659876Y-166524693D01*
X61536635Y-166576337D01*
X61370744Y-166603710D01*
X61262952Y-166618057D01*
X61164566Y-166649099D01*
X61113771Y-166694053D01*
X61110704Y-166752838D01*
X61131146Y-166789493D01*
X61194454Y-166832935D01*
X61284449Y-166853483D01*
X61389913Y-166850673D01*
X61499626Y-166824042D01*
X61602368Y-166773128D01*
X61704804Y-166705339D01*
X61794902Y-166796508D01*
X61885000Y-166887676D01*
X61810295Y-166948655D01*
X61781246Y-166969842D01*
X61699517Y-167017978D01*
X61611079Y-167059457D01*
X61541087Y-167083262D01*
X61438602Y-167100504D01*
X61312255Y-167100732D01*
X61157318Y-167081748D01*
X61017745Y-167033630D01*
X60918950Y-166957195D01*
X60860701Y-166852254D01*
X60842762Y-166718617D01*
X60855747Y-166601054D01*
X60897431Y-166504803D01*
X60972477Y-166435873D01*
X61085635Y-166390030D01*
X61241654Y-166363042D01*
X61259574Y-166361088D01*
X61356714Y-166348630D01*
X61435514Y-166335592D01*
X61480344Y-166324499D01*
X61495304Y-166315567D01*
X61520596Y-166269509D01*
X61516488Y-166210553D01*
X61482688Y-166159373D01*
X61464939Y-166148210D01*
X61390981Y-166130326D01*
X61295451Y-166131529D01*
X61195836Y-166150561D01*
X61109621Y-166186168D01*
X61019031Y-166239618D01*
X60948763Y-166157505D01*
X60931712Y-166136644D01*
X60893298Y-166080761D01*
X60877483Y-166042887D01*
X60894090Y-166019664D01*
X60945469Y-165983412D01*
X61019657Y-165944402D01*
X61030110Y-165939633D01*
X61127941Y-165902229D01*
X61222241Y-165884345D01*
X61339262Y-165880754D01*
X61445810Y-165887820D01*
G36*
X64630841Y-168647844D02*
G01*
X64600497Y-168775772D01*
X64533002Y-168871986D01*
X64425000Y-168941318D01*
X64369189Y-168958186D01*
X64273593Y-168971333D01*
X64169055Y-168974472D01*
X64074738Y-168967237D01*
X64009808Y-168949262D01*
X63970370Y-168934864D01*
X63931758Y-168949262D01*
X63917634Y-168957604D01*
X63861261Y-168971131D01*
X63785020Y-168976471D01*
X63665491Y-168976471D01*
X63665491Y-168549278D01*
X63939412Y-168549278D01*
X63948619Y-168622143D01*
X63984951Y-168686239D01*
X64005744Y-168700110D01*
X64079958Y-168721731D01*
X64172610Y-168727129D01*
X64263468Y-168716162D01*
X64332303Y-168688686D01*
X64366595Y-168652358D01*
X64387647Y-168587808D01*
X64368977Y-168536639D01*
X64307259Y-168492148D01*
X64208047Y-168463605D01*
X64077173Y-168453530D01*
X63939412Y-168453530D01*
X63939412Y-168549278D01*
X63665491Y-168549278D01*
X63665491Y-168494565D01*
X63665500Y-168452890D01*
X63665954Y-168295810D01*
X63667658Y-168179029D01*
X63671385Y-168094788D01*
X63677911Y-168035329D01*
X63688008Y-167992891D01*
X63702452Y-167959716D01*
X63722016Y-167928045D01*
X63784949Y-167853837D01*
X63874130Y-167797180D01*
X63991280Y-167765922D01*
X64145653Y-167756313D01*
X64150671Y-167756323D01*
X64257980Y-167761170D01*
X64354028Y-167773252D01*
X64419575Y-167790191D01*
X64437545Y-167798679D01*
X64494740Y-167834627D01*
X64546499Y-167877352D01*
X64580553Y-167915800D01*
X64584635Y-167938916D01*
X64576669Y-167945164D01*
X64489875Y-168011855D01*
X64431839Y-168051188D01*
X64393465Y-168067057D01*
X64365659Y-168063359D01*
X64339327Y-168043990D01*
X64290730Y-168019809D01*
X64208833Y-168003687D01*
X64116273Y-167999505D01*
X64032519Y-168008015D01*
X63977035Y-168029972D01*
X63974116Y-168032644D01*
X63949183Y-168082836D01*
X63939412Y-168157755D01*
X63939412Y-168254314D01*
X64169755Y-168254407D01*
X64275565Y-168256082D01*
X64364632Y-168263368D01*
X64428345Y-168278357D01*
X64479821Y-168303110D01*
X64491800Y-168310712D01*
X64578466Y-168394282D01*
X64624564Y-168504790D01*
X64628460Y-168587808D01*
X64631123Y-168644559D01*
X64630841Y-168647844D01*
G37*
X64630841Y-168647844D02*
X64600497Y-168775772D01*
X64533002Y-168871986D01*
X64425000Y-168941318D01*
X64369189Y-168958186D01*
X64273593Y-168971333D01*
X64169055Y-168974472D01*
X64074738Y-168967237D01*
X64009808Y-168949262D01*
X63970370Y-168934864D01*
X63931758Y-168949262D01*
X63917634Y-168957604D01*
X63861261Y-168971131D01*
X63785020Y-168976471D01*
X63665491Y-168976471D01*
X63665491Y-168549278D01*
X63939412Y-168549278D01*
X63948619Y-168622143D01*
X63984951Y-168686239D01*
X64005744Y-168700110D01*
X64079958Y-168721731D01*
X64172610Y-168727129D01*
X64263468Y-168716162D01*
X64332303Y-168688686D01*
X64366595Y-168652358D01*
X64387647Y-168587808D01*
X64368977Y-168536639D01*
X64307259Y-168492148D01*
X64208047Y-168463605D01*
X64077173Y-168453530D01*
X63939412Y-168453530D01*
X63939412Y-168549278D01*
X63665491Y-168549278D01*
X63665491Y-168494565D01*
X63665500Y-168452890D01*
X63665954Y-168295810D01*
X63667658Y-168179029D01*
X63671385Y-168094788D01*
X63677911Y-168035329D01*
X63688008Y-167992891D01*
X63702452Y-167959716D01*
X63722016Y-167928045D01*
X63784949Y-167853837D01*
X63874130Y-167797180D01*
X63991280Y-167765922D01*
X64145653Y-167756313D01*
X64150671Y-167756323D01*
X64257980Y-167761170D01*
X64354028Y-167773252D01*
X64419575Y-167790191D01*
X64437545Y-167798679D01*
X64494740Y-167834627D01*
X64546499Y-167877352D01*
X64580553Y-167915800D01*
X64584635Y-167938916D01*
X64576669Y-167945164D01*
X64489875Y-168011855D01*
X64431839Y-168051188D01*
X64393465Y-168067057D01*
X64365659Y-168063359D01*
X64339327Y-168043990D01*
X64290730Y-168019809D01*
X64208833Y-168003687D01*
X64116273Y-167999505D01*
X64032519Y-168008015D01*
X63977035Y-168029972D01*
X63974116Y-168032644D01*
X63949183Y-168082836D01*
X63939412Y-168157755D01*
X63939412Y-168254314D01*
X64169755Y-168254407D01*
X64275565Y-168256082D01*
X64364632Y-168263368D01*
X64428345Y-168278357D01*
X64479821Y-168303110D01*
X64491800Y-168310712D01*
X64578466Y-168394282D01*
X64624564Y-168504790D01*
X64628460Y-168587808D01*
X64631123Y-168644559D01*
X64630841Y-168647844D01*
G36*
X63416471Y-168976471D02*
G01*
X63167451Y-168976471D01*
X63167451Y-168592111D01*
X63167176Y-168502706D01*
X63164344Y-168354629D01*
X63157176Y-168245003D01*
X63144116Y-168166252D01*
X63123608Y-168110798D01*
X63094098Y-168071061D01*
X63054031Y-168039465D01*
X63010290Y-168015921D01*
X62958496Y-168009246D01*
X62884831Y-168024090D01*
X62861159Y-168030271D01*
X62802069Y-168039572D01*
X62759818Y-168026245D01*
X62710848Y-167984996D01*
X62701555Y-167976026D01*
X62650179Y-167920534D01*
X62617047Y-167875415D01*
X62612502Y-167864545D01*
X62621508Y-167824409D01*
X62667174Y-167792320D01*
X62739246Y-167769799D01*
X62827471Y-167758367D01*
X62921594Y-167759544D01*
X63011362Y-167774850D01*
X63086520Y-167805806D01*
X63110343Y-167820260D01*
X63150449Y-167841417D01*
X63165296Y-167836572D01*
X63167451Y-167805712D01*
X63167957Y-167794633D01*
X63179970Y-167770091D01*
X63217236Y-167758921D01*
X63291961Y-167756275D01*
X63416471Y-167756275D01*
X63416471Y-168976471D01*
G37*
X63416471Y-168976471D02*
X63167451Y-168976471D01*
X63167451Y-168592111D01*
X63167176Y-168502706D01*
X63164344Y-168354629D01*
X63157176Y-168245003D01*
X63144116Y-168166252D01*
X63123608Y-168110798D01*
X63094098Y-168071061D01*
X63054031Y-168039465D01*
X63010290Y-168015921D01*
X62958496Y-168009246D01*
X62884831Y-168024090D01*
X62861159Y-168030271D01*
X62802069Y-168039572D01*
X62759818Y-168026245D01*
X62710848Y-167984996D01*
X62701555Y-167976026D01*
X62650179Y-167920534D01*
X62617047Y-167875415D01*
X62612502Y-167864545D01*
X62621508Y-167824409D01*
X62667174Y-167792320D01*
X62739246Y-167769799D01*
X62827471Y-167758367D01*
X62921594Y-167759544D01*
X63011362Y-167774850D01*
X63086520Y-167805806D01*
X63110343Y-167820260D01*
X63150449Y-167841417D01*
X63165296Y-167836572D01*
X63167451Y-167805712D01*
X63167957Y-167794633D01*
X63179970Y-167770091D01*
X63217236Y-167758921D01*
X63291961Y-167756275D01*
X63416471Y-167756275D01*
X63416471Y-168976471D01*
G36*
X57857842Y-165879381D02*
G01*
X57918889Y-165898439D01*
X57994069Y-165930115D01*
X58030469Y-165947138D01*
X58056740Y-165950215D01*
X58062549Y-165926620D01*
X58062555Y-165925952D01*
X58074856Y-165903426D01*
X58117281Y-165891879D01*
X58199510Y-165888628D01*
X58336471Y-165888628D01*
X58336471Y-167083922D01*
X58062549Y-167083922D01*
X58062549Y-166259779D01*
X57994454Y-166196670D01*
X57973180Y-166178735D01*
X57909811Y-166148091D01*
X57831776Y-166146863D01*
X57725520Y-166173903D01*
X57689701Y-166175615D01*
X57647683Y-166149383D01*
X57591757Y-166087035D01*
X57564628Y-166052547D01*
X57532543Y-166003852D01*
X57527599Y-165972855D01*
X57545563Y-165946707D01*
X57600710Y-165913641D01*
X57686363Y-165887472D01*
X57779292Y-165874496D01*
X57857842Y-165879381D01*
G37*
X57857842Y-165879381D02*
X57918889Y-165898439D01*
X57994069Y-165930115D01*
X58030469Y-165947138D01*
X58056740Y-165950215D01*
X58062549Y-165926620D01*
X58062555Y-165925952D01*
X58074856Y-165903426D01*
X58117281Y-165891879D01*
X58199510Y-165888628D01*
X58336471Y-165888628D01*
X58336471Y-167083922D01*
X58062549Y-167083922D01*
X58062549Y-166259779D01*
X57994454Y-166196670D01*
X57973180Y-166178735D01*
X57909811Y-166148091D01*
X57831776Y-166146863D01*
X57725520Y-166173903D01*
X57689701Y-166175615D01*
X57647683Y-166149383D01*
X57591757Y-166087035D01*
X57564628Y-166052547D01*
X57532543Y-166003852D01*
X57527599Y-165972855D01*
X57545563Y-165946707D01*
X57600710Y-165913641D01*
X57686363Y-165887472D01*
X57779292Y-165874496D01*
X57857842Y-165879381D01*
G36*
X58834510Y-166276245D02*
G01*
X58836611Y-166450624D01*
X58844833Y-166591460D01*
X58861491Y-166693825D01*
X58888891Y-166763458D01*
X58929343Y-166806093D01*
X58985152Y-166827468D01*
X59058628Y-166833318D01*
X59128783Y-166828097D01*
X59185443Y-166807659D01*
X59226626Y-166766254D01*
X59254640Y-166698147D01*
X59271793Y-166597600D01*
X59280392Y-166458879D01*
X59282746Y-166276245D01*
X59282746Y-165888628D01*
X59531765Y-165888628D01*
X59531765Y-166355928D01*
X59531338Y-166480659D01*
X59528018Y-166641955D01*
X59519687Y-166764965D01*
X59504326Y-166856729D01*
X59479919Y-166924291D01*
X59444447Y-166974691D01*
X59395892Y-167014971D01*
X59332235Y-167052174D01*
X59198562Y-167099270D01*
X59059055Y-167102342D01*
X58927524Y-167058971D01*
X58870135Y-167030857D01*
X58841664Y-167026654D01*
X58834510Y-167046520D01*
X58822632Y-167068826D01*
X58780116Y-167080576D01*
X58697549Y-167083922D01*
X58560589Y-167083922D01*
X58560589Y-165888628D01*
X58834510Y-165888628D01*
X58834510Y-166276245D01*
G37*
X58834510Y-166276245D02*
X58836611Y-166450624D01*
X58844833Y-166591460D01*
X58861491Y-166693825D01*
X58888891Y-166763458D01*
X58929343Y-166806093D01*
X58985152Y-166827468D01*
X59058628Y-166833318D01*
X59128783Y-166828097D01*
X59185443Y-166807659D01*
X59226626Y-166766254D01*
X59254640Y-166698147D01*
X59271793Y-166597600D01*
X59280392Y-166458879D01*
X59282746Y-166276245D01*
X59282746Y-165888628D01*
X59531765Y-165888628D01*
X59531765Y-166355928D01*
X59531338Y-166480659D01*
X59528018Y-166641955D01*
X59519687Y-166764965D01*
X59504326Y-166856729D01*
X59479919Y-166924291D01*
X59444447Y-166974691D01*
X59395892Y-167014971D01*
X59332235Y-167052174D01*
X59198562Y-167099270D01*
X59059055Y-167102342D01*
X58927524Y-167058971D01*
X58870135Y-167030857D01*
X58841664Y-167026654D01*
X58834510Y-167046520D01*
X58822632Y-167068826D01*
X58780116Y-167080576D01*
X58697549Y-167083922D01*
X58560589Y-167083922D01*
X58560589Y-165888628D01*
X58834510Y-165888628D01*
X58834510Y-166276245D01*
G36*
X62614822Y-168566032D02*
G01*
X62608474Y-168640192D01*
X62607386Y-168646989D01*
X62564660Y-168768555D01*
X62486634Y-168871619D01*
X62384274Y-168941444D01*
X62274354Y-168970346D01*
X62139151Y-168968103D01*
X62014776Y-168929351D01*
X61982379Y-168912998D01*
X61940720Y-168895475D01*
X61924867Y-168900927D01*
X61922353Y-168929351D01*
X61921199Y-168943525D01*
X61906292Y-168964488D01*
X61864889Y-168974140D01*
X61785393Y-168976471D01*
X61648432Y-168976471D01*
X61648432Y-168378607D01*
X61922353Y-168378607D01*
X61924316Y-168482181D01*
X61932283Y-168551138D01*
X61949292Y-168598379D01*
X61978383Y-168637968D01*
X62055196Y-168696831D01*
X62145086Y-168716564D01*
X62232254Y-168692162D01*
X62305669Y-168624090D01*
X62325075Y-168574278D01*
X62339410Y-168486070D01*
X62345711Y-168379052D01*
X62343726Y-168269284D01*
X62333199Y-168172827D01*
X62313876Y-168105743D01*
X62307703Y-168094742D01*
X62248193Y-168039453D01*
X62167546Y-168014959D01*
X62080933Y-168020656D01*
X62003522Y-168055940D01*
X61950486Y-168120208D01*
X61948294Y-168125613D01*
X61935143Y-168185921D01*
X61925866Y-168276039D01*
X61922353Y-168378607D01*
X61648432Y-168378607D01*
X61648432Y-167283137D01*
X61922353Y-167283137D01*
X61922353Y-167863601D01*
X61973090Y-167817685D01*
X62021942Y-167789146D01*
X62114402Y-167765290D01*
X62222485Y-167757603D01*
X62328036Y-167767040D01*
X62412900Y-167794557D01*
X62473641Y-167833699D01*
X62536207Y-167900379D01*
X62578315Y-167990053D01*
X62603627Y-168111355D01*
X62615806Y-168272918D01*
X62617596Y-168338225D01*
X62617725Y-168379052D01*
X62617979Y-168459570D01*
X62614822Y-168566032D01*
G37*
X62614822Y-168566032D02*
X62608474Y-168640192D01*
X62607386Y-168646989D01*
X62564660Y-168768555D01*
X62486634Y-168871619D01*
X62384274Y-168941444D01*
X62274354Y-168970346D01*
X62139151Y-168968103D01*
X62014776Y-168929351D01*
X61982379Y-168912998D01*
X61940720Y-168895475D01*
X61924867Y-168900927D01*
X61922353Y-168929351D01*
X61921199Y-168943525D01*
X61906292Y-168964488D01*
X61864889Y-168974140D01*
X61785393Y-168976471D01*
X61648432Y-168976471D01*
X61648432Y-168378607D01*
X61922353Y-168378607D01*
X61924316Y-168482181D01*
X61932283Y-168551138D01*
X61949292Y-168598379D01*
X61978383Y-168637968D01*
X62055196Y-168696831D01*
X62145086Y-168716564D01*
X62232254Y-168692162D01*
X62305669Y-168624090D01*
X62325075Y-168574278D01*
X62339410Y-168486070D01*
X62345711Y-168379052D01*
X62343726Y-168269284D01*
X62333199Y-168172827D01*
X62313876Y-168105743D01*
X62307703Y-168094742D01*
X62248193Y-168039453D01*
X62167546Y-168014959D01*
X62080933Y-168020656D01*
X62003522Y-168055940D01*
X61950486Y-168120208D01*
X61948294Y-168125613D01*
X61935143Y-168185921D01*
X61925866Y-168276039D01*
X61922353Y-168378607D01*
X61648432Y-168378607D01*
X61648432Y-167283137D01*
X61922353Y-167283137D01*
X61922353Y-167863601D01*
X61973090Y-167817685D01*
X62021942Y-167789146D01*
X62114402Y-167765290D01*
X62222485Y-167757603D01*
X62328036Y-167767040D01*
X62412900Y-167794557D01*
X62473641Y-167833699D01*
X62536207Y-167900379D01*
X62578315Y-167990053D01*
X62603627Y-168111355D01*
X62615806Y-168272918D01*
X62617596Y-168338225D01*
X62617725Y-168379052D01*
X62617979Y-168459570D01*
X62614822Y-168566032D01*
G36*
X58220525Y-167772675D02*
G01*
X58295760Y-167807886D01*
X58361373Y-167859497D01*
X58361373Y-167807886D01*
X58363008Y-167788290D01*
X58378221Y-167767513D01*
X58419362Y-167758337D01*
X58498334Y-167756275D01*
X58635295Y-167756275D01*
X58635295Y-168976471D01*
X58361373Y-168976471D01*
X58361373Y-168579211D01*
X58361340Y-168556405D01*
X58359003Y-168396089D01*
X58353268Y-168265500D01*
X58344544Y-168171314D01*
X58333241Y-168120208D01*
X58322862Y-168100915D01*
X58258968Y-168040406D01*
X58171937Y-168013622D01*
X58076904Y-168026117D01*
X58053594Y-168034586D01*
X58003937Y-168049555D01*
X57969999Y-168044907D01*
X57935850Y-168014479D01*
X57885559Y-167952111D01*
X57803992Y-167849123D01*
X57861323Y-167802699D01*
X57915823Y-167774755D01*
X58011554Y-167755883D01*
X58119456Y-167755265D01*
X58220525Y-167772675D01*
G37*
X58220525Y-167772675D02*
X58295760Y-167807886D01*
X58361373Y-167859497D01*
X58361373Y-167807886D01*
X58363008Y-167788290D01*
X58378221Y-167767513D01*
X58419362Y-167758337D01*
X58498334Y-167756275D01*
X58635295Y-167756275D01*
X58635295Y-168976471D01*
X58361373Y-168976471D01*
X58361373Y-168579211D01*
X58361340Y-168556405D01*
X58359003Y-168396089D01*
X58353268Y-168265500D01*
X58344544Y-168171314D01*
X58333241Y-168120208D01*
X58322862Y-168100915D01*
X58258968Y-168040406D01*
X58171937Y-168013622D01*
X58076904Y-168026117D01*
X58053594Y-168034586D01*
X58003937Y-168049555D01*
X57969999Y-168044907D01*
X57935850Y-168014479D01*
X57885559Y-167952111D01*
X57803992Y-167849123D01*
X57861323Y-167802699D01*
X57915823Y-167774755D01*
X58011554Y-167755883D01*
X58119456Y-167755265D01*
X58220525Y-167772675D01*
G36*
X64639286Y-166511108D02*
G01*
X64637109Y-166587224D01*
X64612559Y-166753570D01*
X64558460Y-166884728D01*
X64471982Y-166986101D01*
X64350295Y-167063096D01*
X64232249Y-167099039D01*
X64084161Y-167105915D01*
X63934748Y-167079468D01*
X63801472Y-167021037D01*
X63752083Y-166988532D01*
X63697668Y-166946868D01*
X63672840Y-166919452D01*
X63674247Y-166908140D01*
X63702039Y-166869597D01*
X63754272Y-166822901D01*
X63844791Y-166753858D01*
X63950858Y-166806831D01*
X63979540Y-166819943D01*
X64063971Y-166848441D01*
X64134737Y-166859804D01*
X64186919Y-166850441D01*
X64268806Y-166805351D01*
X64337637Y-166735355D01*
X64377007Y-166654363D01*
X64393047Y-166585882D01*
X63640589Y-166585882D01*
X63640728Y-166455147D01*
X63641867Y-166413713D01*
X63650182Y-166324805D01*
X63914510Y-166324805D01*
X63914995Y-166329899D01*
X63928687Y-166345760D01*
X63967378Y-166355505D01*
X64039317Y-166360413D01*
X64152757Y-166361765D01*
X64190042Y-166361749D01*
X64286873Y-166360854D01*
X64345083Y-166356988D01*
X64373306Y-166347968D01*
X64380173Y-166331611D01*
X64374317Y-166305735D01*
X64373423Y-166302802D01*
X64322973Y-166212759D01*
X64243442Y-166150766D01*
X64148603Y-166127686D01*
X64113547Y-166129532D01*
X64048481Y-166151611D01*
X63986061Y-166207766D01*
X63969247Y-166227621D01*
X63930137Y-166284326D01*
X63914510Y-166324805D01*
X63650182Y-166324805D01*
X63651251Y-166313376D01*
X63666988Y-166230349D01*
X63684236Y-166183868D01*
X63744879Y-166082769D01*
X63826094Y-165990951D01*
X63911981Y-165928037D01*
X63936796Y-165916354D01*
X64081290Y-165877600D01*
X64228842Y-165881686D01*
X64367567Y-165926882D01*
X64485579Y-166011461D01*
X64549410Y-166089461D01*
X64601601Y-166199343D01*
X64629503Y-166331611D01*
X64630573Y-166336685D01*
X64639286Y-166511108D01*
G37*
X64639286Y-166511108D02*
X64637109Y-166587224D01*
X64612559Y-166753570D01*
X64558460Y-166884728D01*
X64471982Y-166986101D01*
X64350295Y-167063096D01*
X64232249Y-167099039D01*
X64084161Y-167105915D01*
X63934748Y-167079468D01*
X63801472Y-167021037D01*
X63752083Y-166988532D01*
X63697668Y-166946868D01*
X63672840Y-166919452D01*
X63674247Y-166908140D01*
X63702039Y-166869597D01*
X63754272Y-166822901D01*
X63844791Y-166753858D01*
X63950858Y-166806831D01*
X63979540Y-166819943D01*
X64063971Y-166848441D01*
X64134737Y-166859804D01*
X64186919Y-166850441D01*
X64268806Y-166805351D01*
X64337637Y-166735355D01*
X64377007Y-166654363D01*
X64393047Y-166585882D01*
X63640589Y-166585882D01*
X63640728Y-166455147D01*
X63641867Y-166413713D01*
X63650182Y-166324805D01*
X63914510Y-166324805D01*
X63914995Y-166329899D01*
X63928687Y-166345760D01*
X63967378Y-166355505D01*
X64039317Y-166360413D01*
X64152757Y-166361765D01*
X64190042Y-166361749D01*
X64286873Y-166360854D01*
X64345083Y-166356988D01*
X64373306Y-166347968D01*
X64380173Y-166331611D01*
X64374317Y-166305735D01*
X64373423Y-166302802D01*
X64322973Y-166212759D01*
X64243442Y-166150766D01*
X64148603Y-166127686D01*
X64113547Y-166129532D01*
X64048481Y-166151611D01*
X63986061Y-166207766D01*
X63969247Y-166227621D01*
X63930137Y-166284326D01*
X63914510Y-166324805D01*
X63650182Y-166324805D01*
X63651251Y-166313376D01*
X63666988Y-166230349D01*
X63684236Y-166183868D01*
X63744879Y-166082769D01*
X63826094Y-165990951D01*
X63911981Y-165928037D01*
X63936796Y-165916354D01*
X64081290Y-165877600D01*
X64228842Y-165881686D01*
X64367567Y-165926882D01*
X64485579Y-166011461D01*
X64549410Y-166089461D01*
X64601601Y-166199343D01*
X64629503Y-166331611D01*
X64630573Y-166336685D01*
X64639286Y-166511108D01*
G36*
X60714005Y-166650982D02*
G01*
X60683299Y-166801438D01*
X60628376Y-166916246D01*
X60544780Y-167002966D01*
X60428058Y-167069155D01*
X60382739Y-167084908D01*
X60265373Y-167104562D01*
X60141866Y-167104027D01*
X60037651Y-167082439D01*
X60035603Y-167081655D01*
X59951618Y-167032251D01*
X59866770Y-166955770D01*
X59796366Y-166868311D01*
X59755714Y-166785969D01*
X59743663Y-166725779D01*
X59733346Y-166613084D01*
X59731617Y-166512632D01*
X59982502Y-166512632D01*
X59997500Y-166633119D01*
X60032735Y-166732123D01*
X60086117Y-166796815D01*
X60106350Y-166807922D01*
X60183506Y-166828111D01*
X60272749Y-166832265D01*
X60347828Y-166818235D01*
X60377132Y-166798116D01*
X60418264Y-166727760D01*
X60444146Y-166617645D01*
X60453138Y-166473145D01*
X60452994Y-166431549D01*
X60449870Y-166347264D01*
X60439482Y-166292281D01*
X60417688Y-166251655D01*
X60380347Y-166210437D01*
X60309293Y-166160481D01*
X60216791Y-166140057D01*
X60127418Y-166159509D01*
X60053210Y-166215771D01*
X60006201Y-166305775D01*
X59989828Y-166383494D01*
X59982502Y-166512632D01*
X59731617Y-166512632D01*
X59731137Y-166484738D01*
X59736672Y-166356993D01*
X59749588Y-166246101D01*
X59769522Y-166168315D01*
X59815953Y-166080245D01*
X59914498Y-165971959D01*
X60040453Y-165903364D01*
X60190074Y-165876213D01*
X60359615Y-165892259D01*
X60387825Y-165899094D01*
X60519201Y-165958040D01*
X60618198Y-166054814D01*
X60684820Y-166189423D01*
X60719070Y-166361874D01*
X60720067Y-166473145D01*
X60720953Y-166572173D01*
X60714005Y-166650982D01*
G37*
X60714005Y-166650982D02*
X60683299Y-166801438D01*
X60628376Y-166916246D01*
X60544780Y-167002966D01*
X60428058Y-167069155D01*
X60382739Y-167084908D01*
X60265373Y-167104562D01*
X60141866Y-167104027D01*
X60037651Y-167082439D01*
X60035603Y-167081655D01*
X59951618Y-167032251D01*
X59866770Y-166955770D01*
X59796366Y-166868311D01*
X59755714Y-166785969D01*
X59743663Y-166725779D01*
X59733346Y-166613084D01*
X59731617Y-166512632D01*
X59982502Y-166512632D01*
X59997500Y-166633119D01*
X60032735Y-166732123D01*
X60086117Y-166796815D01*
X60106350Y-166807922D01*
X60183506Y-166828111D01*
X60272749Y-166832265D01*
X60347828Y-166818235D01*
X60377132Y-166798116D01*
X60418264Y-166727760D01*
X60444146Y-166617645D01*
X60453138Y-166473145D01*
X60452994Y-166431549D01*
X60449870Y-166347264D01*
X60439482Y-166292281D01*
X60417688Y-166251655D01*
X60380347Y-166210437D01*
X60309293Y-166160481D01*
X60216791Y-166140057D01*
X60127418Y-166159509D01*
X60053210Y-166215771D01*
X60006201Y-166305775D01*
X59989828Y-166383494D01*
X59982502Y-166512632D01*
X59731617Y-166512632D01*
X59731137Y-166484738D01*
X59736672Y-166356993D01*
X59749588Y-166246101D01*
X59769522Y-166168315D01*
X59815953Y-166080245D01*
X59914498Y-165971959D01*
X60040453Y-165903364D01*
X60190074Y-165876213D01*
X60359615Y-165892259D01*
X60387825Y-165899094D01*
X60519201Y-165958040D01*
X60618198Y-166054814D01*
X60684820Y-166189423D01*
X60719070Y-166361874D01*
X60720067Y-166473145D01*
X60720953Y-166572173D01*
X60714005Y-166650982D01*
G36*
X62997906Y-165886271D02*
G01*
X63111422Y-165921937D01*
X63161473Y-165946177D01*
X63186646Y-165948681D01*
X63192353Y-165926620D01*
X63192359Y-165925952D01*
X63204660Y-165903426D01*
X63247084Y-165891879D01*
X63329314Y-165888628D01*
X63466275Y-165888628D01*
X63466275Y-167083922D01*
X63192353Y-167083922D01*
X63192353Y-166671907D01*
X63192166Y-166532779D01*
X63190885Y-166418493D01*
X63187458Y-166338519D01*
X63180832Y-166284708D01*
X63169954Y-166248912D01*
X63153771Y-166222982D01*
X63131230Y-166198770D01*
X63100527Y-166173017D01*
X63012239Y-166138416D01*
X62919565Y-166148571D01*
X62834671Y-166203298D01*
X62810406Y-166228768D01*
X62792987Y-166254545D01*
X62781304Y-166288848D01*
X62774212Y-166339933D01*
X62770564Y-166416056D01*
X62769215Y-166525471D01*
X62769020Y-166676435D01*
X62769020Y-167083922D01*
X62495098Y-167083922D01*
X62495645Y-166641912D01*
X62495682Y-166622223D01*
X62498058Y-166434209D01*
X62505353Y-166288159D01*
X62519445Y-166176971D01*
X62542207Y-166093544D01*
X62575514Y-166030775D01*
X62621241Y-165981561D01*
X62681264Y-165938802D01*
X62743240Y-165909199D01*
X62868055Y-165882305D01*
X62997906Y-165886271D01*
G37*
X62997906Y-165886271D02*
X63111422Y-165921937D01*
X63161473Y-165946177D01*
X63186646Y-165948681D01*
X63192353Y-165926620D01*
X63192359Y-165925952D01*
X63204660Y-165903426D01*
X63247084Y-165891879D01*
X63329314Y-165888628D01*
X63466275Y-165888628D01*
X63466275Y-167083922D01*
X63192353Y-167083922D01*
X63192353Y-166671907D01*
X63192166Y-166532779D01*
X63190885Y-166418493D01*
X63187458Y-166338519D01*
X63180832Y-166284708D01*
X63169954Y-166248912D01*
X63153771Y-166222982D01*
X63131230Y-166198770D01*
X63100527Y-166173017D01*
X63012239Y-166138416D01*
X62919565Y-166148571D01*
X62834671Y-166203298D01*
X62810406Y-166228768D01*
X62792987Y-166254545D01*
X62781304Y-166288848D01*
X62774212Y-166339933D01*
X62770564Y-166416056D01*
X62769215Y-166525471D01*
X62769020Y-166676435D01*
X62769020Y-167083922D01*
X62495098Y-167083922D01*
X62495645Y-166641912D01*
X62495682Y-166622223D01*
X62498058Y-166434209D01*
X62505353Y-166288159D01*
X62519445Y-166176971D01*
X62542207Y-166093544D01*
X62575514Y-166030775D01*
X62621241Y-165981561D01*
X62681264Y-165938802D01*
X62743240Y-165909199D01*
X62868055Y-165882305D01*
X62997906Y-165886271D01*
G36*
X59812719Y-168761789D02*
G01*
X59747432Y-168858505D01*
X59648398Y-168928077D01*
X59638679Y-168932305D01*
X59530320Y-168962767D01*
X59408223Y-168974642D01*
X59292138Y-168967382D01*
X59201814Y-168940441D01*
X59165734Y-168922865D01*
X59139256Y-168918674D01*
X59133334Y-168940594D01*
X59122116Y-168960866D01*
X59078713Y-168972938D01*
X58994469Y-168976471D01*
X58855604Y-168976471D01*
X58862995Y-168540686D01*
X59133334Y-168540686D01*
X59142713Y-168605829D01*
X59183138Y-168677647D01*
X59198059Y-168690848D01*
X59259218Y-168718620D01*
X59351226Y-168725766D01*
X59406435Y-168722974D01*
X59509741Y-168701952D01*
X59573771Y-168662782D01*
X59595367Y-168608122D01*
X59571369Y-168540628D01*
X59557367Y-168522964D01*
X59494827Y-168483345D01*
X59395847Y-168460722D01*
X59254731Y-168453530D01*
X59133334Y-168453530D01*
X59133334Y-168540686D01*
X58862995Y-168540686D01*
X58863734Y-168497108D01*
X58865943Y-168386258D01*
X58871761Y-168220305D01*
X58881567Y-168093409D01*
X58897299Y-167998654D01*
X58920894Y-167929120D01*
X58954291Y-167877890D01*
X58999427Y-167838046D01*
X59058239Y-167802669D01*
X59088580Y-167789163D01*
X59193541Y-167763669D01*
X59320134Y-167753129D01*
X59451017Y-167757350D01*
X59568845Y-167776140D01*
X59656275Y-167809305D01*
X59686687Y-167828562D01*
X59756705Y-167885636D01*
X59780403Y-167933427D01*
X59774648Y-167942662D01*
X59738782Y-167974919D01*
X59680881Y-168017950D01*
X59651279Y-168038091D01*
X59600868Y-168066629D01*
X59568110Y-168069354D01*
X59537695Y-168049657D01*
X59461892Y-168009766D01*
X59359895Y-167993361D01*
X59255661Y-168005920D01*
X59253689Y-168006489D01*
X59180171Y-168038431D01*
X59143781Y-168088428D01*
X59133715Y-168171116D01*
X59133334Y-168249780D01*
X59393230Y-168258273D01*
X59434636Y-168259670D01*
X59539027Y-168264528D01*
X59609010Y-168272161D01*
X59656313Y-168285425D01*
X59692668Y-168307181D01*
X59729804Y-168340285D01*
X59791120Y-168416855D01*
X59836059Y-168530157D01*
X59840465Y-168608122D01*
X59842760Y-168648738D01*
X59812719Y-168761789D01*
G37*
X59812719Y-168761789D02*
X59747432Y-168858505D01*
X59648398Y-168928077D01*
X59638679Y-168932305D01*
X59530320Y-168962767D01*
X59408223Y-168974642D01*
X59292138Y-168967382D01*
X59201814Y-168940441D01*
X59165734Y-168922865D01*
X59139256Y-168918674D01*
X59133334Y-168940594D01*
X59122116Y-168960866D01*
X59078713Y-168972938D01*
X58994469Y-168976471D01*
X58855604Y-168976471D01*
X58862995Y-168540686D01*
X59133334Y-168540686D01*
X59142713Y-168605829D01*
X59183138Y-168677647D01*
X59198059Y-168690848D01*
X59259218Y-168718620D01*
X59351226Y-168725766D01*
X59406435Y-168722974D01*
X59509741Y-168701952D01*
X59573771Y-168662782D01*
X59595367Y-168608122D01*
X59571369Y-168540628D01*
X59557367Y-168522964D01*
X59494827Y-168483345D01*
X59395847Y-168460722D01*
X59254731Y-168453530D01*
X59133334Y-168453530D01*
X59133334Y-168540686D01*
X58862995Y-168540686D01*
X58863734Y-168497108D01*
X58865943Y-168386258D01*
X58871761Y-168220305D01*
X58881567Y-168093409D01*
X58897299Y-167998654D01*
X58920894Y-167929120D01*
X58954291Y-167877890D01*
X58999427Y-167838046D01*
X59058239Y-167802669D01*
X59088580Y-167789163D01*
X59193541Y-167763669D01*
X59320134Y-167753129D01*
X59451017Y-167757350D01*
X59568845Y-167776140D01*
X59656275Y-167809305D01*
X59686687Y-167828562D01*
X59756705Y-167885636D01*
X59780403Y-167933427D01*
X59774648Y-167942662D01*
X59738782Y-167974919D01*
X59680881Y-168017950D01*
X59651279Y-168038091D01*
X59600868Y-168066629D01*
X59568110Y-168069354D01*
X59537695Y-168049657D01*
X59461892Y-168009766D01*
X59359895Y-167993361D01*
X59255661Y-168005920D01*
X59253689Y-168006489D01*
X59180171Y-168038431D01*
X59143781Y-168088428D01*
X59133715Y-168171116D01*
X59133334Y-168249780D01*
X59393230Y-168258273D01*
X59434636Y-168259670D01*
X59539027Y-168264528D01*
X59609010Y-168272161D01*
X59656313Y-168285425D01*
X59692668Y-168307181D01*
X59729804Y-168340285D01*
X59791120Y-168416855D01*
X59836059Y-168530157D01*
X59840465Y-168608122D01*
X59842760Y-168648738D01*
X59812719Y-168761789D01*
G36*
X60919270Y-168147297D02*
G01*
X60952936Y-168247741D01*
X60992761Y-168358935D01*
X61026017Y-168443172D01*
X61049954Y-168493587D01*
X61061824Y-168503318D01*
X61064688Y-168494856D01*
X61080191Y-168442953D01*
X61104883Y-168356265D01*
X61136023Y-168244497D01*
X61170870Y-168117353D01*
X61265674Y-167768726D01*
X61410426Y-167761163D01*
X61422645Y-167760557D01*
X61500703Y-167759755D01*
X61538212Y-167767768D01*
X61542989Y-167786065D01*
X61536955Y-167803934D01*
X61517103Y-167865095D01*
X61486023Y-167961960D01*
X61445930Y-168087602D01*
X61399037Y-168235091D01*
X61347561Y-168397500D01*
X61164321Y-168976471D01*
X60935105Y-168976471D01*
X60827101Y-168609167D01*
X60807158Y-168541720D01*
X60770300Y-168419101D01*
X60738805Y-168316930D01*
X60715510Y-168244336D01*
X60703250Y-168210446D01*
X60699757Y-168207918D01*
X60682758Y-168229778D01*
X60658489Y-168287586D01*
X60630982Y-168372309D01*
X60629528Y-168377285D01*
X60592700Y-168502322D01*
X60550562Y-168643896D01*
X60511950Y-168772316D01*
X60449339Y-168979044D01*
X60218411Y-168964020D01*
X60111470Y-168627843D01*
X60064519Y-168480128D01*
X60011926Y-168314458D01*
X59961565Y-168155638D01*
X59919878Y-168023971D01*
X59835227Y-167756275D01*
X60118429Y-167756275D01*
X60187072Y-168011520D01*
X60205321Y-168078963D01*
X60239833Y-168204697D01*
X60271793Y-168319083D01*
X60296089Y-168403726D01*
X60336463Y-168540686D01*
X60465224Y-168154706D01*
X60593986Y-167768726D01*
X60692472Y-167761332D01*
X60790959Y-167753939D01*
X60919270Y-168147297D01*
G37*
X60919270Y-168147297D02*
X60952936Y-168247741D01*
X60992761Y-168358935D01*
X61026017Y-168443172D01*
X61049954Y-168493587D01*
X61061824Y-168503318D01*
X61064688Y-168494856D01*
X61080191Y-168442953D01*
X61104883Y-168356265D01*
X61136023Y-168244497D01*
X61170870Y-168117353D01*
X61265674Y-167768726D01*
X61410426Y-167761163D01*
X61422645Y-167760557D01*
X61500703Y-167759755D01*
X61538212Y-167767768D01*
X61542989Y-167786065D01*
X61536955Y-167803934D01*
X61517103Y-167865095D01*
X61486023Y-167961960D01*
X61445930Y-168087602D01*
X61399037Y-168235091D01*
X61347561Y-168397500D01*
X61164321Y-168976471D01*
X60935105Y-168976471D01*
X60827101Y-168609167D01*
X60807158Y-168541720D01*
X60770300Y-168419101D01*
X60738805Y-168316930D01*
X60715510Y-168244336D01*
X60703250Y-168210446D01*
X60699757Y-168207918D01*
X60682758Y-168229778D01*
X60658489Y-168287586D01*
X60630982Y-168372309D01*
X60629528Y-168377285D01*
X60592700Y-168502322D01*
X60550562Y-168643896D01*
X60511950Y-168772316D01*
X60449339Y-168979044D01*
X60218411Y-168964020D01*
X60111470Y-168627843D01*
X60064519Y-168480128D01*
X60011926Y-168314458D01*
X59961565Y-168155638D01*
X59919878Y-168023971D01*
X59835227Y-167756275D01*
X60118429Y-167756275D01*
X60187072Y-168011520D01*
X60205321Y-168078963D01*
X60239833Y-168204697D01*
X60271793Y-168319083D01*
X60296089Y-168403726D01*
X60336463Y-168540686D01*
X60465224Y-168154706D01*
X60593986Y-167768726D01*
X60692472Y-167761332D01*
X60790959Y-167753939D01*
X60919270Y-168147297D01*
G36*
X65626520Y-168971547D02*
G01*
X65495785Y-168964020D01*
X65489569Y-168565588D01*
X65487730Y-168468704D01*
X65482510Y-168323146D01*
X65473550Y-168216334D01*
X65459203Y-168141087D01*
X65437821Y-168090227D01*
X65407759Y-168056574D01*
X65367367Y-168032947D01*
X65291578Y-168008818D01*
X65216207Y-168018194D01*
X65136617Y-168069763D01*
X65060000Y-168134231D01*
X65060000Y-168976471D01*
X64786079Y-168976471D01*
X64786079Y-168519701D01*
X64786342Y-168376531D01*
X64787799Y-168249309D01*
X64791301Y-168156184D01*
X64797697Y-168088713D01*
X64807835Y-168038454D01*
X64822563Y-167996966D01*
X64842729Y-167955805D01*
X64847510Y-167947066D01*
X64911101Y-167861954D01*
X64985527Y-167802476D01*
X65075255Y-167771245D01*
X65194072Y-167757342D01*
X65313059Y-167764872D01*
X65409865Y-167794267D01*
X65483334Y-167832259D01*
X65483334Y-167010015D01*
X65382667Y-167062486D01*
X65340616Y-167081549D01*
X65207886Y-167108506D01*
X65075979Y-167089874D01*
X64953705Y-167027929D01*
X64849872Y-166924943D01*
X64833606Y-166900738D01*
X64817973Y-166865256D01*
X64807776Y-166817015D01*
X64801888Y-166746757D01*
X64799182Y-166645221D01*
X64798696Y-166539428D01*
X65061759Y-166539428D01*
X65061981Y-166627779D01*
X65068735Y-166686700D01*
X65083916Y-166728752D01*
X65109417Y-166766499D01*
X65141811Y-166801594D01*
X65193614Y-166828154D01*
X65271667Y-166834902D01*
X65340618Y-166829029D01*
X65408865Y-166799641D01*
X65452818Y-166740107D01*
X65476350Y-166644423D01*
X65483334Y-166506582D01*
X65481528Y-166433254D01*
X65463501Y-166294833D01*
X65426308Y-166201233D01*
X65370159Y-166153116D01*
X65313449Y-166139579D01*
X65214686Y-166145925D01*
X65131240Y-166185223D01*
X65111268Y-166203244D01*
X65090105Y-166234422D01*
X65077021Y-166280833D01*
X65069251Y-166354000D01*
X65064032Y-166465448D01*
X65061759Y-166539428D01*
X64798696Y-166539428D01*
X64798530Y-166503149D01*
X64798753Y-166438324D01*
X64802570Y-166287538D01*
X64813203Y-166174896D01*
X64833335Y-166091885D01*
X64865653Y-166029991D01*
X64912842Y-165980700D01*
X64977588Y-165935499D01*
X65030091Y-165909560D01*
X65154571Y-165880953D01*
X65285781Y-165884851D01*
X65402402Y-165921935D01*
X65452453Y-165946176D01*
X65477626Y-165948681D01*
X65483334Y-165926620D01*
X65483339Y-165925952D01*
X65495640Y-165903426D01*
X65538065Y-165891879D01*
X65620295Y-165888628D01*
X65757255Y-165888628D01*
X65757255Y-168979073D01*
X65626520Y-168971547D01*
G37*
X65626520Y-168971547D02*
X65495785Y-168964020D01*
X65489569Y-168565588D01*
X65487730Y-168468704D01*
X65482510Y-168323146D01*
X65473550Y-168216334D01*
X65459203Y-168141087D01*
X65437821Y-168090227D01*
X65407759Y-168056574D01*
X65367367Y-168032947D01*
X65291578Y-168008818D01*
X65216207Y-168018194D01*
X65136617Y-168069763D01*
X65060000Y-168134231D01*
X65060000Y-168976471D01*
X64786079Y-168976471D01*
X64786079Y-168519701D01*
X64786342Y-168376531D01*
X64787799Y-168249309D01*
X64791301Y-168156184D01*
X64797697Y-168088713D01*
X64807835Y-168038454D01*
X64822563Y-167996966D01*
X64842729Y-167955805D01*
X64847510Y-167947066D01*
X64911101Y-167861954D01*
X64985527Y-167802476D01*
X65075255Y-167771245D01*
X65194072Y-167757342D01*
X65313059Y-167764872D01*
X65409865Y-167794267D01*
X65483334Y-167832259D01*
X65483334Y-167010015D01*
X65382667Y-167062486D01*
X65340616Y-167081549D01*
X65207886Y-167108506D01*
X65075979Y-167089874D01*
X64953705Y-167027929D01*
X64849872Y-166924943D01*
X64833606Y-166900738D01*
X64817973Y-166865256D01*
X64807776Y-166817015D01*
X64801888Y-166746757D01*
X64799182Y-166645221D01*
X64798696Y-166539428D01*
X65061759Y-166539428D01*
X65061981Y-166627779D01*
X65068735Y-166686700D01*
X65083916Y-166728752D01*
X65109417Y-166766499D01*
X65141811Y-166801594D01*
X65193614Y-166828154D01*
X65271667Y-166834902D01*
X65340618Y-166829029D01*
X65408865Y-166799641D01*
X65452818Y-166740107D01*
X65476350Y-166644423D01*
X65483334Y-166506582D01*
X65481528Y-166433254D01*
X65463501Y-166294833D01*
X65426308Y-166201233D01*
X65370159Y-166153116D01*
X65313449Y-166139579D01*
X65214686Y-166145925D01*
X65131240Y-166185223D01*
X65111268Y-166203244D01*
X65090105Y-166234422D01*
X65077021Y-166280833D01*
X65069251Y-166354000D01*
X65064032Y-166465448D01*
X65061759Y-166539428D01*
X64798696Y-166539428D01*
X64798530Y-166503149D01*
X64798753Y-166438324D01*
X64802570Y-166287538D01*
X64813203Y-166174896D01*
X64833335Y-166091885D01*
X64865653Y-166029991D01*
X64912842Y-165980700D01*
X64977588Y-165935499D01*
X65030091Y-165909560D01*
X65154571Y-165880953D01*
X65285781Y-165884851D01*
X65402402Y-165921935D01*
X65452453Y-165946176D01*
X65477626Y-165948681D01*
X65483334Y-165926620D01*
X65483339Y-165925952D01*
X65495640Y-165903426D01*
X65538065Y-165891879D01*
X65620295Y-165888628D01*
X65757255Y-165888628D01*
X65757255Y-168979073D01*
X65626520Y-168971547D01*
G36*
X66920603Y-166632653D02*
G01*
X66913305Y-166727754D01*
X66900873Y-166795160D01*
X66880343Y-166848570D01*
X66848751Y-166901685D01*
X66847406Y-166903699D01*
X66769616Y-166989755D01*
X66674438Y-167055391D01*
X66563760Y-167094339D01*
X66418163Y-167106985D01*
X66275463Y-167082119D01*
X66147909Y-167022198D01*
X66047753Y-166929681D01*
X66018999Y-166885967D01*
X65965301Y-166750073D01*
X65938670Y-166582408D01*
X65939125Y-166539997D01*
X66206763Y-166539997D01*
X66207267Y-166619314D01*
X66215677Y-166672267D01*
X66234838Y-166712956D01*
X66267598Y-166755479D01*
X66313058Y-166797676D01*
X66403980Y-166835333D01*
X66501608Y-166828338D01*
X66594914Y-166776002D01*
X66621234Y-166751006D01*
X66649336Y-166708214D01*
X66664920Y-166648068D01*
X66673753Y-166554348D01*
X66676186Y-166483944D01*
X66662856Y-166340168D01*
X66621947Y-166237231D01*
X66553281Y-166174567D01*
X66472789Y-166144560D01*
X66376794Y-166147086D01*
X66287811Y-166197746D01*
X66266538Y-166217031D01*
X66239693Y-166250774D01*
X66223766Y-166294920D01*
X66214929Y-166362601D01*
X66209355Y-166466950D01*
X66206763Y-166539997D01*
X65939125Y-166539997D01*
X65940724Y-166391126D01*
X65943345Y-166363996D01*
X65979918Y-166190229D01*
X66047581Y-166055334D01*
X66146478Y-165959163D01*
X66276753Y-165901568D01*
X66438550Y-165882402D01*
X66499679Y-165884201D01*
X66625039Y-165906211D01*
X66727546Y-165958746D01*
X66823115Y-166048686D01*
X66838400Y-166066737D01*
X66879624Y-166127530D01*
X66906717Y-166196367D01*
X66921740Y-166283600D01*
X66926754Y-166399582D01*
X66925156Y-166483944D01*
X66923818Y-166554666D01*
X66920603Y-166632653D01*
G37*
X66920603Y-166632653D02*
X66913305Y-166727754D01*
X66900873Y-166795160D01*
X66880343Y-166848570D01*
X66848751Y-166901685D01*
X66847406Y-166903699D01*
X66769616Y-166989755D01*
X66674438Y-167055391D01*
X66563760Y-167094339D01*
X66418163Y-167106985D01*
X66275463Y-167082119D01*
X66147909Y-167022198D01*
X66047753Y-166929681D01*
X66018999Y-166885967D01*
X65965301Y-166750073D01*
X65938670Y-166582408D01*
X65939125Y-166539997D01*
X66206763Y-166539997D01*
X66207267Y-166619314D01*
X66215677Y-166672267D01*
X66234838Y-166712956D01*
X66267598Y-166755479D01*
X66313058Y-166797676D01*
X66403980Y-166835333D01*
X66501608Y-166828338D01*
X66594914Y-166776002D01*
X66621234Y-166751006D01*
X66649336Y-166708214D01*
X66664920Y-166648068D01*
X66673753Y-166554348D01*
X66676186Y-166483944D01*
X66662856Y-166340168D01*
X66621947Y-166237231D01*
X66553281Y-166174567D01*
X66472789Y-166144560D01*
X66376794Y-166147086D01*
X66287811Y-166197746D01*
X66266538Y-166217031D01*
X66239693Y-166250774D01*
X66223766Y-166294920D01*
X66214929Y-166362601D01*
X66209355Y-166466950D01*
X66206763Y-166539997D01*
X65939125Y-166539997D01*
X65940724Y-166391126D01*
X65943345Y-166363996D01*
X65979918Y-166190229D01*
X66047581Y-166055334D01*
X66146478Y-165959163D01*
X66276753Y-165901568D01*
X66438550Y-165882402D01*
X66499679Y-165884201D01*
X66625039Y-165906211D01*
X66727546Y-165958746D01*
X66823115Y-166048686D01*
X66838400Y-166066737D01*
X66879624Y-166127530D01*
X66906717Y-166196367D01*
X66921740Y-166283600D01*
X66926754Y-166399582D01*
X66925156Y-166483944D01*
X66923818Y-166554666D01*
X66920603Y-166632653D01*
G36*
X57157341Y-165894329D02*
G01*
X57293218Y-165947267D01*
X57408135Y-166034655D01*
X57493013Y-166154680D01*
X57498745Y-166166918D01*
X57535135Y-166286281D01*
X57553316Y-166428864D01*
X57553173Y-166577318D01*
X57534590Y-166714297D01*
X57497452Y-166822451D01*
X57451599Y-166897831D01*
X57350669Y-167004620D01*
X57224469Y-167072500D01*
X57116497Y-167099950D01*
X56952088Y-167102947D01*
X56794764Y-167061549D01*
X56655251Y-166977546D01*
X56564954Y-166903116D01*
X56646284Y-166819205D01*
X56697665Y-166769496D01*
X56744141Y-166741820D01*
X56787235Y-166747914D01*
X56842353Y-166785098D01*
X56864331Y-166799655D01*
X56957178Y-166829449D01*
X57063895Y-166829431D01*
X57163808Y-166798723D01*
X57201429Y-166774064D01*
X57256613Y-166701245D01*
X57284278Y-166594290D01*
X57286058Y-166448517D01*
X57286053Y-166448435D01*
X57265470Y-166318014D01*
X57220128Y-166227587D01*
X57145518Y-166171652D01*
X57037128Y-166144704D01*
X56968871Y-166141079D01*
X56909231Y-166155921D01*
X56848065Y-166198918D01*
X56768912Y-166265520D01*
X56668672Y-166184965D01*
X56632050Y-166154105D01*
X56586307Y-166109889D01*
X56568432Y-166083832D01*
X56574762Y-166072089D01*
X56611221Y-166036036D01*
X56669301Y-165990185D01*
X56714744Y-165960348D01*
X56859024Y-165899056D01*
X57009583Y-165877654D01*
X57157341Y-165894329D01*
G37*
X57157341Y-165894329D02*
X57293218Y-165947267D01*
X57408135Y-166034655D01*
X57493013Y-166154680D01*
X57498745Y-166166918D01*
X57535135Y-166286281D01*
X57553316Y-166428864D01*
X57553173Y-166577318D01*
X57534590Y-166714297D01*
X57497452Y-166822451D01*
X57451599Y-166897831D01*
X57350669Y-167004620D01*
X57224469Y-167072500D01*
X57116497Y-167099950D01*
X56952088Y-167102947D01*
X56794764Y-167061549D01*
X56655251Y-166977546D01*
X56564954Y-166903116D01*
X56646284Y-166819205D01*
X56697665Y-166769496D01*
X56744141Y-166741820D01*
X56787235Y-166747914D01*
X56842353Y-166785098D01*
X56864331Y-166799655D01*
X56957178Y-166829449D01*
X57063895Y-166829431D01*
X57163808Y-166798723D01*
X57201429Y-166774064D01*
X57256613Y-166701245D01*
X57284278Y-166594290D01*
X57286058Y-166448517D01*
X57286053Y-166448435D01*
X57265470Y-166318014D01*
X57220128Y-166227587D01*
X57145518Y-166171652D01*
X57037128Y-166144704D01*
X56968871Y-166141079D01*
X56909231Y-166155921D01*
X56848065Y-166198918D01*
X56768912Y-166265520D01*
X56668672Y-166184965D01*
X56632050Y-166154105D01*
X56586307Y-166109889D01*
X56568432Y-166083832D01*
X56574762Y-166072089D01*
X56611221Y-166036036D01*
X56669301Y-165990185D01*
X56714744Y-165960348D01*
X56859024Y-165899056D01*
X57009583Y-165877654D01*
X57157341Y-165894329D01*
G36*
X57809502Y-168459330D02*
G01*
X57780010Y-168637105D01*
X57719329Y-168776892D01*
X57626922Y-168879689D01*
X57502255Y-168946496D01*
X57461976Y-168958300D01*
X57318153Y-168974786D01*
X57166289Y-168960873D01*
X57029118Y-168917935D01*
X56980794Y-168893565D01*
X56911507Y-168851819D01*
X56869517Y-168817468D01*
X56863317Y-168809620D01*
X56851719Y-168780917D01*
X56868430Y-168749714D01*
X56919321Y-168702459D01*
X56943880Y-168681887D01*
X56992260Y-168644242D01*
X57017627Y-168628855D01*
X57024894Y-168630440D01*
X57066544Y-168647574D01*
X57128726Y-168677647D01*
X57149000Y-168687540D01*
X57268600Y-168724275D01*
X57372506Y-168714805D01*
X57463621Y-168658971D01*
X57474222Y-168648654D01*
X57524909Y-168584031D01*
X57553870Y-168522010D01*
X57569909Y-168453530D01*
X56817451Y-168453530D01*
X56817590Y-168322794D01*
X56817670Y-168309792D01*
X56827829Y-168204903D01*
X57091373Y-168204903D01*
X57094485Y-168226657D01*
X57110462Y-168241649D01*
X57148543Y-168249970D01*
X57217960Y-168253549D01*
X57327942Y-168254314D01*
X57389086Y-168253521D01*
X57479338Y-168248888D01*
X57541416Y-168241038D01*
X57564510Y-168231033D01*
X57544814Y-168148677D01*
X57487151Y-168071811D01*
X57403984Y-168018484D01*
X57307911Y-168000038D01*
X57237178Y-168020832D01*
X57166471Y-168071664D01*
X57112722Y-168137892D01*
X57091373Y-168204903D01*
X56827829Y-168204903D01*
X56833248Y-168148950D01*
X56878592Y-168018106D01*
X56957712Y-167905313D01*
X57005979Y-167857600D01*
X57105663Y-167793731D01*
X57224693Y-167762784D01*
X57375043Y-167760607D01*
X57447668Y-167769139D01*
X57581727Y-167813440D01*
X57684365Y-167894069D01*
X57756480Y-168012271D01*
X57798972Y-168169291D01*
X57803286Y-168231033D01*
X57812740Y-168366373D01*
X57809502Y-168459330D01*
G37*
X57809502Y-168459330D02*
X57780010Y-168637105D01*
X57719329Y-168776892D01*
X57626922Y-168879689D01*
X57502255Y-168946496D01*
X57461976Y-168958300D01*
X57318153Y-168974786D01*
X57166289Y-168960873D01*
X57029118Y-168917935D01*
X56980794Y-168893565D01*
X56911507Y-168851819D01*
X56869517Y-168817468D01*
X56863317Y-168809620D01*
X56851719Y-168780917D01*
X56868430Y-168749714D01*
X56919321Y-168702459D01*
X56943880Y-168681887D01*
X56992260Y-168644242D01*
X57017627Y-168628855D01*
X57024894Y-168630440D01*
X57066544Y-168647574D01*
X57128726Y-168677647D01*
X57149000Y-168687540D01*
X57268600Y-168724275D01*
X57372506Y-168714805D01*
X57463621Y-168658971D01*
X57474222Y-168648654D01*
X57524909Y-168584031D01*
X57553870Y-168522010D01*
X57569909Y-168453530D01*
X56817451Y-168453530D01*
X56817590Y-168322794D01*
X56817670Y-168309792D01*
X56827829Y-168204903D01*
X57091373Y-168204903D01*
X57094485Y-168226657D01*
X57110462Y-168241649D01*
X57148543Y-168249970D01*
X57217960Y-168253549D01*
X57327942Y-168254314D01*
X57389086Y-168253521D01*
X57479338Y-168248888D01*
X57541416Y-168241038D01*
X57564510Y-168231033D01*
X57544814Y-168148677D01*
X57487151Y-168071811D01*
X57403984Y-168018484D01*
X57307911Y-168000038D01*
X57237178Y-168020832D01*
X57166471Y-168071664D01*
X57112722Y-168137892D01*
X57091373Y-168204903D01*
X56827829Y-168204903D01*
X56833248Y-168148950D01*
X56878592Y-168018106D01*
X56957712Y-167905313D01*
X57005979Y-167857600D01*
X57105663Y-167793731D01*
X57224693Y-167762784D01*
X57375043Y-167760607D01*
X57447668Y-167769139D01*
X57581727Y-167813440D01*
X57684365Y-167894069D01*
X57756480Y-168012271D01*
X57798972Y-168169291D01*
X57803286Y-168231033D01*
X57812740Y-168366373D01*
X57809502Y-168459330D01*
G36*
X56532360Y-166596632D02*
G01*
X56531943Y-166600380D01*
X56496139Y-166775271D01*
X56431449Y-166911247D01*
X56335859Y-167011296D01*
X56207353Y-167078405D01*
X56183764Y-167086079D01*
X56037551Y-167108696D01*
X55886334Y-167096084D01*
X55745750Y-167051017D01*
X55631437Y-166976269D01*
X55545812Y-166897157D01*
X55636827Y-166825191D01*
X55727842Y-166753224D01*
X55837528Y-166806514D01*
X55964445Y-166849695D01*
X56076488Y-166850987D01*
X56168157Y-166811314D01*
X56234123Y-166731683D01*
X56257771Y-166683968D01*
X56270972Y-166643189D01*
X56263334Y-166615641D01*
X56229063Y-166598731D01*
X56162368Y-166589864D01*
X56057454Y-166586445D01*
X55908530Y-166585882D01*
X55547451Y-166585882D01*
X55547451Y-166413190D01*
X55550149Y-166337376D01*
X55804385Y-166337376D01*
X55816595Y-166351321D01*
X55852748Y-166358578D01*
X55921463Y-166361332D01*
X56031362Y-166361765D01*
X56090294Y-166361073D01*
X56183290Y-166356500D01*
X56246373Y-166348491D01*
X56269608Y-166338035D01*
X56263663Y-166299456D01*
X56221762Y-166225634D01*
X56151938Y-166164990D01*
X56068699Y-166128362D01*
X55986554Y-166126589D01*
X55924721Y-166155960D01*
X55854656Y-166222800D01*
X55810106Y-166305735D01*
X55807496Y-166314562D01*
X55804385Y-166337376D01*
X55550149Y-166337376D01*
X55550702Y-166321853D01*
X55560246Y-166231484D01*
X55573881Y-166170396D01*
X55583820Y-166147074D01*
X55656166Y-166043202D01*
X55760700Y-165956569D01*
X55882949Y-165899845D01*
X55946713Y-165884355D01*
X56098645Y-165877304D01*
X56234022Y-165913174D01*
X56349122Y-165987974D01*
X56440227Y-166097711D01*
X56503615Y-166238395D01*
X56522607Y-166338035D01*
X56535566Y-166406032D01*
X56532360Y-166596632D01*
G37*
X56532360Y-166596632D02*
X56531943Y-166600380D01*
X56496139Y-166775271D01*
X56431449Y-166911247D01*
X56335859Y-167011296D01*
X56207353Y-167078405D01*
X56183764Y-167086079D01*
X56037551Y-167108696D01*
X55886334Y-167096084D01*
X55745750Y-167051017D01*
X55631437Y-166976269D01*
X55545812Y-166897157D01*
X55636827Y-166825191D01*
X55727842Y-166753224D01*
X55837528Y-166806514D01*
X55964445Y-166849695D01*
X56076488Y-166850987D01*
X56168157Y-166811314D01*
X56234123Y-166731683D01*
X56257771Y-166683968D01*
X56270972Y-166643189D01*
X56263334Y-166615641D01*
X56229063Y-166598731D01*
X56162368Y-166589864D01*
X56057454Y-166586445D01*
X55908530Y-166585882D01*
X55547451Y-166585882D01*
X55547451Y-166413190D01*
X55550149Y-166337376D01*
X55804385Y-166337376D01*
X55816595Y-166351321D01*
X55852748Y-166358578D01*
X55921463Y-166361332D01*
X56031362Y-166361765D01*
X56090294Y-166361073D01*
X56183290Y-166356500D01*
X56246373Y-166348491D01*
X56269608Y-166338035D01*
X56263663Y-166299456D01*
X56221762Y-166225634D01*
X56151938Y-166164990D01*
X56068699Y-166128362D01*
X55986554Y-166126589D01*
X55924721Y-166155960D01*
X55854656Y-166222800D01*
X55810106Y-166305735D01*
X55807496Y-166314562D01*
X55804385Y-166337376D01*
X55550149Y-166337376D01*
X55550702Y-166321853D01*
X55560246Y-166231484D01*
X55573881Y-166170396D01*
X55583820Y-166147074D01*
X55656166Y-166043202D01*
X55760700Y-165956569D01*
X55882949Y-165899845D01*
X55946713Y-165884355D01*
X56098645Y-165877304D01*
X56234022Y-165913174D01*
X56349122Y-165987974D01*
X56440227Y-166097711D01*
X56503615Y-166238395D01*
X56522607Y-166338035D01*
X56535566Y-166406032D01*
X56532360Y-166596632D01*
%TO.C,kibuzzard-6514EA0E*%
G36*
X44019679Y-161920713D02*
G01*
X42992567Y-161920713D01*
X42992567Y-161920712D01*
X42794129Y-161920712D01*
X42439588Y-161388900D01*
X42992567Y-161388900D01*
X43313242Y-161388900D01*
X43313242Y-161722275D01*
X43500567Y-161722275D01*
X43500567Y-161388900D01*
X43821242Y-161388900D01*
X43821242Y-161220625D01*
X43500567Y-161220625D01*
X43500567Y-160877725D01*
X43313242Y-160877725D01*
X43313242Y-161220625D01*
X42992567Y-161220625D01*
X42992567Y-161388900D01*
X42439588Y-161388900D01*
X42380321Y-161300000D01*
X42794129Y-160679287D01*
X44019679Y-160679287D01*
X44019679Y-161920713D01*
G37*
%TO.C,kibuzzard-67C644C4*%
G36*
X91111423Y-113521935D02*
G01*
X91111423Y-114975450D01*
X90207500Y-115578065D01*
X89303577Y-114975450D01*
X89303577Y-114200115D01*
X89541702Y-114200115D01*
X89548370Y-114330290D01*
X89568373Y-114438875D01*
X89601710Y-114525870D01*
X89682196Y-114623739D01*
X89803640Y-114688748D01*
X89911484Y-114715735D01*
X90045787Y-114731928D01*
X90206548Y-114737325D01*
X90368367Y-114732245D01*
X90503304Y-114717005D01*
X90611360Y-114691605D01*
X90732804Y-114630407D01*
X90813290Y-114538253D01*
X90846628Y-114456443D01*
X90866630Y-114354526D01*
X90873298Y-114232500D01*
X90864725Y-114074861D01*
X90839008Y-113956275D01*
X90793288Y-113870788D01*
X90724708Y-113812447D01*
X90627553Y-113776967D01*
X90496108Y-113760060D01*
X90496108Y-113996280D01*
X90598025Y-114024855D01*
X90648508Y-114096293D01*
X90663748Y-114230595D01*
X90653270Y-114323464D01*
X90621838Y-114392520D01*
X90565640Y-114441336D01*
X90480868Y-114473483D01*
X90361329Y-114491342D01*
X90200833Y-114497295D01*
X90043908Y-114490628D01*
X89927465Y-114470625D01*
X89845312Y-114435144D01*
X89791258Y-114382043D01*
X89761254Y-114307033D01*
X89751252Y-114205830D01*
X89759825Y-114088673D01*
X89789353Y-113994375D01*
X90080818Y-113994375D01*
X90080818Y-114262980D01*
X90288463Y-114262980D01*
X90288463Y-113763870D01*
X89642668Y-113763870D01*
X89593138Y-113882456D01*
X89562657Y-113982945D01*
X89546941Y-114082958D01*
X89541702Y-114200115D01*
X89303577Y-114200115D01*
X89303577Y-113521935D01*
X91111423Y-113521935D01*
G37*
%TO.C,kibuzzard-67C67309*%
G36*
X64735388Y-114434112D02*
G01*
X64766344Y-114473800D01*
X64775869Y-114584131D01*
X64766344Y-114693669D01*
X64735388Y-114732562D01*
X64659981Y-114739706D01*
X64588544Y-114732562D01*
X64567113Y-114698431D01*
X64563144Y-114587306D01*
X64567113Y-114469831D01*
X64588544Y-114434112D01*
X64659981Y-114426969D01*
X64735388Y-114434112D01*
G37*
G36*
X57289219Y-114369025D02*
G01*
X57345575Y-114452369D01*
X57358077Y-114523409D01*
X57362244Y-114619056D01*
X57358077Y-114714902D01*
X57345575Y-114786538D01*
X57289219Y-114870675D01*
X57176506Y-114895281D01*
X57051887Y-114870675D01*
X56989975Y-114787331D01*
X56976283Y-114715894D01*
X56971719Y-114619056D01*
X56976283Y-114523409D01*
X56989975Y-114452369D01*
X57051887Y-114369025D01*
X57176506Y-114344419D01*
X57289219Y-114369025D01*
G37*
G36*
X62894681Y-114665094D02*
G01*
X63005013Y-114677794D01*
X63059781Y-114715100D01*
X63075656Y-114790506D01*
X63047875Y-114873056D01*
X62942306Y-114895281D01*
X62820069Y-114874644D01*
X62758950Y-114804794D01*
X62744464Y-114744866D01*
X62737519Y-114663506D01*
X62894681Y-114665094D01*
G37*
G36*
X58132181Y-114665094D02*
G01*
X58242512Y-114677794D01*
X58297281Y-114715100D01*
X58313156Y-114790506D01*
X58285375Y-114873056D01*
X58179806Y-114895281D01*
X58057569Y-114874644D01*
X57996450Y-114804794D01*
X57981964Y-114744866D01*
X57975019Y-114663506D01*
X58132181Y-114665094D01*
G37*
G36*
X56578019Y-113691956D02*
G01*
X65421981Y-113691956D01*
X65421981Y-115408044D01*
X56578019Y-115408044D01*
X56578019Y-114619056D01*
X56776456Y-114619056D01*
X56779896Y-114726565D01*
X56790215Y-114816259D01*
X56807412Y-114888138D01*
X56849084Y-114968902D01*
X56912187Y-115022281D01*
X57001683Y-115052047D01*
X57122531Y-115061969D01*
X57247150Y-115040538D01*
X57346369Y-114958781D01*
X57359069Y-114958781D01*
X57359069Y-115046094D01*
X57551156Y-115046094D01*
X57787694Y-115046094D01*
X57968669Y-115046094D01*
X57968669Y-114947669D01*
X57981369Y-114947669D01*
X58027009Y-115002438D01*
X58075031Y-115036569D01*
X58134166Y-115054428D01*
X58213144Y-115060381D01*
X58315736Y-115054627D01*
X58360289Y-115044506D01*
X58684631Y-115044506D01*
X59433931Y-115044506D01*
X59433931Y-114809556D01*
X59664119Y-114809556D01*
X59672453Y-114896869D01*
X59697456Y-114961956D01*
X59742502Y-115007994D01*
X59810962Y-115038156D01*
X59907602Y-115054825D01*
X60037181Y-115060381D01*
X60171920Y-115054031D01*
X60271338Y-115034981D01*
X60340989Y-115000453D01*
X60386431Y-114947669D01*
X60407550Y-114882581D01*
X60594394Y-114882581D01*
X60594394Y-115046094D01*
X61326231Y-115046094D01*
X61502444Y-115046094D01*
X61686594Y-115046094D01*
X61686594Y-114547619D01*
X61690959Y-114459711D01*
X61704056Y-114405537D01*
X61767556Y-114368231D01*
X61819150Y-114386488D01*
X61845344Y-114447606D01*
X61853281Y-114569844D01*
X61853281Y-115046094D01*
X62037431Y-115046094D01*
X62034256Y-114547619D01*
X62038225Y-114461695D01*
X62053306Y-114407125D01*
X62121569Y-114368231D01*
X62173163Y-114387281D01*
X62198563Y-114450781D01*
X62205706Y-114577781D01*
X62205706Y-115046094D01*
X62389856Y-115046094D01*
X62550194Y-115046094D01*
X62731169Y-115046094D01*
X62731169Y-114947669D01*
X62743869Y-114947669D01*
X62789509Y-115002438D01*
X62837531Y-115036569D01*
X62896666Y-115054428D01*
X62975644Y-115060381D01*
X63078236Y-115054627D01*
X63154238Y-115037362D01*
X63243138Y-114959575D01*
X63262783Y-114893495D01*
X63269331Y-114804794D01*
X63265158Y-114757169D01*
X63440781Y-114757169D01*
X63449909Y-114862737D01*
X63477294Y-114941319D01*
X63526308Y-114996881D01*
X63600325Y-115033394D01*
X63705298Y-115053634D01*
X63847181Y-115060381D01*
X63993430Y-115052841D01*
X64101975Y-115030219D01*
X64178373Y-114989341D01*
X64228181Y-114927031D01*
X64254375Y-114838925D01*
X64259931Y-114720656D01*
X64061494Y-114720656D01*
X64036094Y-114823050D01*
X63968625Y-114873056D01*
X63911673Y-114883772D01*
X63834481Y-114887344D01*
X63716213Y-114876231D01*
X63656681Y-114837338D01*
X63639219Y-114758756D01*
X63664619Y-114677794D01*
X63747963Y-114616675D01*
X63818011Y-114587902D01*
X63912269Y-114557144D01*
X64030339Y-114517258D01*
X64117850Y-114476975D01*
X64179564Y-114432723D01*
X64220244Y-114380931D01*
X64242866Y-114317828D01*
X64243670Y-114309494D01*
X64394869Y-114309494D01*
X64396456Y-114895281D01*
X64512344Y-114895281D01*
X64537744Y-114838131D01*
X64550444Y-114838131D01*
X64581400Y-114880200D01*
X64612356Y-114895281D01*
X64674269Y-114898456D01*
X64784402Y-114894686D01*
X64854450Y-114883375D01*
X64924300Y-114804794D01*
X64939183Y-114717481D01*
X64944144Y-114582544D01*
X64939381Y-114448797D01*
X64925094Y-114361881D01*
X64856831Y-114283300D01*
X64788172Y-114271989D01*
X64680619Y-114268219D01*
X64627438Y-114277744D01*
X64567906Y-114331719D01*
X64556794Y-114331719D01*
X64556794Y-114236469D01*
X64560763Y-114137250D01*
X64575844Y-114101531D01*
X64617119Y-114093594D01*
X64934619Y-114093594D01*
X65013994Y-114101531D01*
X65042569Y-114135662D01*
X65048919Y-114231706D01*
X65048919Y-114923856D01*
X65043363Y-115007994D01*
X65016375Y-115037362D01*
X64939381Y-115044506D01*
X64594894Y-115044506D01*
X64594894Y-115209606D01*
X64936206Y-115209606D01*
X65042767Y-115203653D01*
X65117975Y-115185794D01*
X65200525Y-115103244D01*
X65217789Y-115029822D01*
X65223544Y-114927031D01*
X65223544Y-114234881D01*
X65217789Y-114122566D01*
X65200525Y-114042794D01*
X65168180Y-113988620D01*
X65117181Y-113953100D01*
X65040981Y-113933455D01*
X64933031Y-113926906D01*
X64617119Y-113926906D01*
X64536355Y-113933455D01*
X64478213Y-113953100D01*
X64413125Y-114044381D01*
X64399433Y-114124947D01*
X64394869Y-114236469D01*
X64394869Y-114309494D01*
X64243670Y-114309494D01*
X64250406Y-114239644D01*
X64241477Y-114139631D01*
X64214688Y-114065019D01*
X64166666Y-114012036D01*
X64094038Y-113976912D01*
X63991445Y-113957267D01*
X63853531Y-113950719D01*
X63718395Y-113957466D01*
X63617788Y-113977706D01*
X63546152Y-114014219D01*
X63497931Y-114069781D01*
X63470944Y-114148759D01*
X63463006Y-114255519D01*
X63664619Y-114255519D01*
X63687638Y-114175350D01*
X63746375Y-114135662D01*
X63859881Y-114123756D01*
X63976563Y-114134869D01*
X64034506Y-114171381D01*
X64051969Y-114245994D01*
X63990850Y-114327750D01*
X63905720Y-114366842D01*
X63772569Y-114412681D01*
X63657277Y-114454353D01*
X63571750Y-114496819D01*
X63511227Y-114544245D01*
X63470944Y-114600800D01*
X63448322Y-114670452D01*
X63440781Y-114757169D01*
X63265158Y-114757169D01*
X63260203Y-114700614D01*
X63232819Y-114623025D01*
X63183606Y-114568058D01*
X63108994Y-114531744D01*
X63003425Y-114511503D01*
X62861344Y-114504756D01*
X62735931Y-114504756D01*
X62735931Y-114495231D01*
X62770856Y-114387281D01*
X62821259Y-114365850D01*
X62902619Y-114358706D01*
X63020888Y-114381725D01*
X63048669Y-114469831D01*
X63242344Y-114469831D01*
X63238573Y-114374383D01*
X63217738Y-114303937D01*
X63177256Y-114254328D01*
X63114550Y-114221387D01*
X63024658Y-114202933D01*
X62902619Y-114196781D01*
X62780183Y-114203528D01*
X62689100Y-114223769D01*
X62624608Y-114259884D01*
X62581944Y-114314256D01*
X62558131Y-114391250D01*
X62550194Y-114495231D01*
X62550194Y-115046094D01*
X62389856Y-115046094D01*
X62389856Y-114217419D01*
X62210469Y-114217419D01*
X62210469Y-114319019D01*
X62197769Y-114319019D01*
X62133475Y-114222181D01*
X62046956Y-114196781D01*
X61931069Y-114224562D01*
X61870744Y-114319019D01*
X61869156Y-114319019D01*
X61812800Y-114222181D01*
X61705644Y-114196781D01*
X61582613Y-114226150D01*
X61520700Y-114323781D01*
X61507008Y-114406728D01*
X61502444Y-114519044D01*
X61502444Y-115046094D01*
X61326231Y-115046094D01*
X61326231Y-114882581D01*
X61050006Y-114882581D01*
X61050006Y-114380931D01*
X61310356Y-114380931D01*
X61310356Y-114217419D01*
X60859506Y-114217419D01*
X60859506Y-114882581D01*
X60594394Y-114882581D01*
X60407550Y-114882581D01*
X60410641Y-114873056D01*
X60416594Y-114773044D01*
X60221331Y-114773044D01*
X60202281Y-114848450D01*
X60142750Y-114885756D01*
X60022894Y-114896869D01*
X59943916Y-114892305D01*
X59894306Y-114878613D01*
X59859381Y-114811144D01*
X59879225Y-114757962D01*
X59946694Y-114720656D01*
X60004241Y-114704781D01*
X60081631Y-114688906D01*
X60194145Y-114663705D01*
X60277688Y-114635725D01*
X60376113Y-114561112D01*
X60405481Y-114441256D01*
X60397345Y-114355730D01*
X60372938Y-114292825D01*
X60328884Y-114248573D01*
X60261813Y-114219006D01*
X60167158Y-114202337D01*
X60040356Y-114196781D01*
X59916531Y-114202536D01*
X59824456Y-114219800D01*
X59759369Y-114250756D01*
X59716506Y-114297587D01*
X59692297Y-114364064D01*
X59683169Y-114453956D01*
X59873669Y-114453956D01*
X59912563Y-114380138D01*
X59962767Y-114365255D01*
X60041944Y-114360294D01*
X60124891Y-114364659D01*
X60176881Y-114377756D01*
X60213394Y-114442844D01*
X60163388Y-114488088D01*
X60089767Y-114511305D01*
X59968919Y-114541269D01*
X59863350Y-114569645D01*
X59784769Y-114600800D01*
X59691900Y-114682556D01*
X59671064Y-114738912D01*
X59664119Y-114809556D01*
X59433931Y-114809556D01*
X59433931Y-114114231D01*
X60853156Y-114114231D01*
X61096044Y-114114231D01*
X61096044Y-113890394D01*
X60853156Y-113890394D01*
X60853156Y-114114231D01*
X59433931Y-114114231D01*
X59433931Y-113966594D01*
X59230731Y-113966594D01*
X59230731Y-114866706D01*
X58684631Y-114866706D01*
X58684631Y-115044506D01*
X58360289Y-115044506D01*
X58391737Y-115037362D01*
X58480637Y-114959575D01*
X58500283Y-114893495D01*
X58506831Y-114804794D01*
X58497703Y-114700614D01*
X58470319Y-114623025D01*
X58421106Y-114568058D01*
X58346494Y-114531744D01*
X58240925Y-114511503D01*
X58098844Y-114504756D01*
X57973431Y-114504756D01*
X57973431Y-114495231D01*
X58008356Y-114387281D01*
X58058759Y-114365850D01*
X58140119Y-114358706D01*
X58258387Y-114381725D01*
X58286169Y-114469831D01*
X58479844Y-114469831D01*
X58476073Y-114374383D01*
X58455237Y-114303937D01*
X58414756Y-114254328D01*
X58352050Y-114221387D01*
X58262158Y-114202933D01*
X58140119Y-114196781D01*
X58017683Y-114203528D01*
X57926600Y-114223769D01*
X57862108Y-114259884D01*
X57819444Y-114314256D01*
X57795631Y-114391250D01*
X57787694Y-114495231D01*
X57787694Y-115046094D01*
X57551156Y-115046094D01*
X57549569Y-113890394D01*
X57357481Y-113890394D01*
X57359069Y-114280919D01*
X57346369Y-114280919D01*
X57255881Y-114199956D01*
X57198731Y-114183287D01*
X57122531Y-114177731D01*
X57001683Y-114187653D01*
X56912187Y-114217419D01*
X56849084Y-114270798D01*
X56807412Y-114351562D01*
X56790215Y-114423265D01*
X56779896Y-114512429D01*
X56776456Y-114619056D01*
X56578019Y-114619056D01*
X56578019Y-113691956D01*
G37*
%TO.C,kibuzzard-67C6875C*%
G36*
X30028260Y-156536882D02*
G01*
X32471740Y-156536882D01*
X32471740Y-158163118D01*
X30028260Y-158163118D01*
X30028260Y-156695632D01*
X30187010Y-156695632D01*
X30571820Y-157991033D01*
X30870905Y-157991033D01*
X31001627Y-157550978D01*
X31434785Y-157550978D01*
X31446929Y-157704092D01*
X31483362Y-157820535D01*
X31547418Y-157904831D01*
X31642430Y-157961505D01*
X31772922Y-157993652D01*
X31943420Y-158004368D01*
X32049624Y-158000081D01*
X32139635Y-157987223D01*
X32223931Y-157963410D01*
X32312990Y-157926263D01*
X32312990Y-157688138D01*
X32200833Y-157740049D01*
X32108203Y-157773863D01*
X32024621Y-157792436D01*
X31939610Y-157798628D01*
X31811975Y-157784578D01*
X31730060Y-157742430D01*
X31685769Y-157665039D01*
X31671005Y-157545263D01*
X31681244Y-157459776D01*
X31711962Y-157401435D01*
X31767922Y-157365478D01*
X31853885Y-157347143D01*
X31956755Y-157341427D01*
X32042692Y-157344814D01*
X32150642Y-157354974D01*
X32280605Y-157371907D01*
X32223455Y-156695632D01*
X31490030Y-156695632D01*
X31490030Y-156897563D01*
X32012000Y-156901373D01*
X32031050Y-157137592D01*
X31947230Y-157133782D01*
X31827215Y-157141402D01*
X31694579Y-157165453D01*
X31593852Y-157203315D01*
X31520986Y-157257608D01*
X31471932Y-157330950D01*
X31444072Y-157427391D01*
X31434785Y-157550978D01*
X31001627Y-157550978D01*
X31255715Y-156695632D01*
X31008065Y-156695632D01*
X30726125Y-157705282D01*
X30716600Y-157705282D01*
X30434660Y-156695632D01*
X30187010Y-156695632D01*
X30028260Y-156695632D01*
X30028260Y-156536882D01*
G37*
%TO.C,kibuzzard-67C664FA*%
G36*
X63413397Y-125136884D02*
G01*
X63080022Y-125136884D01*
X62940719Y-125092831D01*
X62903809Y-124944003D01*
X62952625Y-124793984D01*
X63023170Y-124758861D01*
X63137172Y-124739216D01*
X63334816Y-124732072D01*
X63413397Y-124732072D01*
X63413397Y-125136884D01*
G37*
G36*
X63413397Y-125856022D02*
G01*
X63305645Y-125859594D01*
X63206228Y-125860784D01*
X63077938Y-125855724D01*
X62983581Y-125840544D01*
X62872853Y-125771488D01*
X62839516Y-125632184D01*
X62866900Y-125489309D01*
X62957388Y-125419063D01*
X63139553Y-125398822D01*
X63413397Y-125398822D01*
X63413397Y-125856022D01*
G37*
G36*
X54909159Y-123976422D02*
G01*
X67090841Y-123976422D01*
X67090841Y-126623578D01*
X54909159Y-126623578D01*
X54909159Y-126103672D01*
X55405253Y-126103672D01*
X55776728Y-126103672D01*
X56357753Y-124834466D01*
X56364897Y-124834466D01*
X56331559Y-125172603D01*
X56331559Y-126103672D01*
X56624453Y-126103672D01*
X56998309Y-126103672D01*
X57891278Y-126103672D01*
X57891278Y-125839353D01*
X57593622Y-125839353D01*
X57593622Y-125553603D01*
X59765322Y-125553603D01*
X59780502Y-125744996D01*
X59826044Y-125890550D01*
X59906113Y-125995920D01*
X60024878Y-126066763D01*
X60187994Y-126106946D01*
X60401116Y-126120341D01*
X60533870Y-126114983D01*
X60646384Y-126098909D01*
X60751755Y-126069144D01*
X60863078Y-126022709D01*
X60863078Y-125725053D01*
X60722882Y-125789942D01*
X60607094Y-125832209D01*
X60502616Y-125855427D01*
X60396353Y-125863166D01*
X60236809Y-125845604D01*
X60134416Y-125792919D01*
X60079052Y-125696180D01*
X60060597Y-125546459D01*
X60073396Y-125439601D01*
X60111794Y-125366675D01*
X60181743Y-125321729D01*
X60289197Y-125298809D01*
X60417784Y-125291666D01*
X60525205Y-125295899D01*
X60660143Y-125308599D01*
X60822597Y-125329766D01*
X60775307Y-124770172D01*
X61217884Y-124770172D01*
X61910828Y-126127484D01*
X62244203Y-126127484D01*
X62000687Y-125653616D01*
X62534716Y-125653616D01*
X62550789Y-125817922D01*
X62599009Y-125939366D01*
X62685032Y-126024793D01*
X62814513Y-126081050D01*
X62929739Y-126104201D01*
X63073804Y-126118092D01*
X63246709Y-126122722D01*
X63391701Y-126120076D01*
X63547276Y-126112139D01*
X63713434Y-126098909D01*
X63713434Y-125575034D01*
X63996803Y-125575034D01*
X64009900Y-125766725D01*
X64049191Y-125908409D01*
X64119438Y-126008422D01*
X64225403Y-126075097D01*
X64374827Y-126112602D01*
X64575447Y-126125103D01*
X64784402Y-126112602D01*
X64821397Y-126103672D01*
X65437459Y-126103672D01*
X65742259Y-126103672D01*
X65742259Y-125396441D01*
X66289947Y-125396441D01*
X66289947Y-126103672D01*
X66594747Y-126103672D01*
X66594747Y-124484422D01*
X66289947Y-124484422D01*
X66289947Y-125127359D01*
X65742259Y-125127359D01*
X65742259Y-124484422D01*
X65437459Y-124484422D01*
X65437459Y-126103672D01*
X64821397Y-126103672D01*
X64939778Y-126075097D01*
X65049911Y-126008422D01*
X65123134Y-125908409D01*
X65164211Y-125767320D01*
X65177903Y-125577416D01*
X65177903Y-124484422D01*
X64873103Y-124484422D01*
X64873103Y-125565509D01*
X64845719Y-125742913D01*
X64755231Y-125832209D01*
X64575447Y-125858403D01*
X64409950Y-125832209D01*
X64326606Y-125744103D01*
X64301603Y-125567891D01*
X64301603Y-124484422D01*
X63996803Y-124484422D01*
X63996803Y-125575034D01*
X63713434Y-125575034D01*
X63713434Y-124479659D01*
X63321301Y-124472740D01*
X63154105Y-124477014D01*
X63007261Y-124490507D01*
X62889522Y-124512997D01*
X62757065Y-124567468D01*
X62669256Y-124649919D01*
X62620143Y-124766302D01*
X62603772Y-124922572D01*
X62615380Y-125060089D01*
X62650206Y-125153553D01*
X62715393Y-125213680D01*
X62818084Y-125251184D01*
X62818084Y-125265472D01*
X62645444Y-125327384D01*
X62559719Y-125446447D01*
X62540966Y-125536339D01*
X62534716Y-125653616D01*
X62000687Y-125653616D01*
X61539353Y-124755884D01*
X62327547Y-124755884D01*
X62327547Y-124484422D01*
X61217884Y-124484422D01*
X61217884Y-124770172D01*
X60775307Y-124770172D01*
X60751159Y-124484422D01*
X59834378Y-124484422D01*
X59834378Y-124736834D01*
X60486841Y-124741597D01*
X60510653Y-125036872D01*
X60405878Y-125032109D01*
X60255859Y-125041634D01*
X60090065Y-125071698D01*
X59964156Y-125119025D01*
X59873073Y-125186891D01*
X59811756Y-125278569D01*
X59776930Y-125399120D01*
X59765322Y-125553603D01*
X57593622Y-125553603D01*
X57593622Y-125525028D01*
X58419916Y-125525028D01*
X59324791Y-125525028D01*
X59324791Y-125263091D01*
X58419916Y-125263091D01*
X58419916Y-125525028D01*
X57593622Y-125525028D01*
X57593622Y-124748741D01*
X57874609Y-124748741D01*
X57874609Y-124484422D01*
X57014978Y-124484422D01*
X57014978Y-124748741D01*
X57295966Y-124748741D01*
X57295966Y-125839353D01*
X56998309Y-125839353D01*
X56998309Y-126103672D01*
X56624453Y-126103672D01*
X56624453Y-124484422D01*
X56252978Y-124484422D01*
X55671953Y-125753628D01*
X55664809Y-125753628D01*
X55698147Y-125415491D01*
X55698147Y-124484422D01*
X55405253Y-124484422D01*
X55405253Y-126103672D01*
X54909159Y-126103672D01*
X54909159Y-123976422D01*
G37*
%TO.C,kibuzzard-651A1A52*%
G36*
X90054342Y-167364298D02*
G01*
X90038150Y-167479074D01*
X90004812Y-167564323D01*
X89949806Y-167624568D01*
X89868605Y-167664335D01*
X89755496Y-167686481D01*
X89604762Y-167693863D01*
X89462126Y-167686719D01*
X89354255Y-167665288D01*
X89275674Y-167626949D01*
X89220905Y-167569085D01*
X89185424Y-167487408D01*
X89164707Y-167377632D01*
X89157564Y-167288098D01*
X89155182Y-167213803D01*
X90048627Y-167213803D01*
X90054342Y-167364298D01*
G37*
G36*
X88696077Y-168177733D02*
G01*
X88696077Y-167190943D01*
X88945632Y-167190943D01*
X88948014Y-167293813D01*
X88955157Y-167385253D01*
X88974207Y-167519132D01*
X89003417Y-167631209D01*
X89042787Y-167721485D01*
X89126369Y-167823164D01*
X89243765Y-167890078D01*
X89345047Y-167917594D01*
X89469825Y-167934104D01*
X89618097Y-167939607D01*
X89773143Y-167933257D01*
X89903001Y-167914207D01*
X90007670Y-167882458D01*
X90126018Y-167805781D01*
X90204837Y-167690053D01*
X90237646Y-167587394D01*
X90257331Y-167459759D01*
X90263892Y-167307148D01*
X90262199Y-167207029D01*
X90257119Y-167094634D01*
X90248653Y-166969963D01*
X88953252Y-166969963D01*
X88947537Y-167086168D01*
X88945632Y-167190943D01*
X88696077Y-167190943D01*
X88696077Y-166783272D01*
X88953252Y-166783272D01*
X90248653Y-166783272D01*
X90248653Y-166486092D01*
X89233287Y-166021273D01*
X89233287Y-166015557D01*
X89503797Y-166042228D01*
X90248653Y-166042228D01*
X90248653Y-165807912D01*
X88953252Y-165807912D01*
X88953252Y-166105092D01*
X89968618Y-166569912D01*
X89968618Y-166575628D01*
X89698107Y-166548958D01*
X88953252Y-166548958D01*
X88953252Y-166783272D01*
X88696077Y-166783272D01*
X88696077Y-165167832D01*
X88934202Y-165167832D01*
X88942775Y-165325471D01*
X88968492Y-165444057D01*
X89014212Y-165529544D01*
X89082792Y-165587885D01*
X89179947Y-165623366D01*
X89311392Y-165640272D01*
X89311392Y-165404052D01*
X89209475Y-165375477D01*
X89158992Y-165304040D01*
X89143752Y-165169737D01*
X89154230Y-165076869D01*
X89185662Y-165007812D01*
X89241860Y-164958997D01*
X89326632Y-164926850D01*
X89446171Y-164908991D01*
X89606667Y-164903037D01*
X89763592Y-164909705D01*
X89880035Y-164929707D01*
X89962188Y-164965188D01*
X90016242Y-165018290D01*
X90046246Y-165093299D01*
X90056248Y-165194502D01*
X90047675Y-165311660D01*
X90018147Y-165405957D01*
X89726682Y-165405957D01*
X89726682Y-165137352D01*
X89519037Y-165137352D01*
X89519037Y-165636462D01*
X90164832Y-165636462D01*
X90214362Y-165517876D01*
X90244843Y-165417387D01*
X90260559Y-165317375D01*
X90265798Y-165200217D01*
X90259130Y-165070042D01*
X90239127Y-164961457D01*
X90205790Y-164874462D01*
X90125304Y-164776593D01*
X90003860Y-164711585D01*
X89896016Y-164684597D01*
X89761713Y-164668405D01*
X89600952Y-164663007D01*
X89439133Y-164668087D01*
X89304196Y-164683327D01*
X89196140Y-164708727D01*
X89074696Y-164769926D01*
X88994210Y-164862080D01*
X88960872Y-164943889D01*
X88940870Y-165045807D01*
X88934202Y-165167832D01*
X88696077Y-165167832D01*
X88696077Y-164424882D01*
X89600000Y-163822267D01*
X90503923Y-164424882D01*
X90503923Y-168177733D01*
X88696077Y-168177733D01*
G37*
%TO.C,kibuzzard-6514EFEE*%
G36*
X39344369Y-166296731D02*
G01*
X40555631Y-166296731D01*
X40555631Y-167803269D01*
X39344369Y-167803269D01*
X39344369Y-166809494D01*
X39542806Y-166809494D01*
X39739656Y-166809494D01*
X39763469Y-166724562D01*
X39823000Y-166682494D01*
X39934919Y-166669794D01*
X40012309Y-166678525D01*
X40069856Y-166704719D01*
X40110536Y-166751550D01*
X40137325Y-166822194D01*
X40152208Y-166921809D01*
X40157169Y-167055556D01*
X40151613Y-167186327D01*
X40134944Y-167283363D01*
X40105377Y-167351823D01*
X40061125Y-167396869D01*
X39998617Y-167421872D01*
X39914281Y-167430206D01*
X39816650Y-167423062D01*
X39738069Y-167398456D01*
X39738069Y-167155569D01*
X39961906Y-167155569D01*
X39961906Y-166982531D01*
X39545981Y-166982531D01*
X39545981Y-167520694D01*
X39644803Y-167561969D01*
X39728544Y-167587369D01*
X39811888Y-167600466D01*
X39909519Y-167604831D01*
X40017998Y-167599275D01*
X40108485Y-167582606D01*
X40180981Y-167554825D01*
X40262539Y-167487753D01*
X40316713Y-167386550D01*
X40339202Y-167296680D01*
X40352696Y-167184761D01*
X40357194Y-167050794D01*
X40352960Y-166915944D01*
X40340260Y-166803497D01*
X40319094Y-166713450D01*
X40268095Y-166612247D01*
X40191300Y-166545175D01*
X40123126Y-166517394D01*
X40038194Y-166500725D01*
X39936506Y-166495169D01*
X39805141Y-166502312D01*
X39706319Y-166523744D01*
X39635080Y-166561844D01*
X39586462Y-166618994D01*
X39556895Y-166699956D01*
X39542806Y-166809494D01*
X39344369Y-166809494D01*
X39344369Y-166296731D01*
G37*
%TD*%
M02*
