%TF.GenerationSoftware,KiCad,Pcbnew,(6.0.9)*%
%TF.CreationDate,2025-12-22T11:41:54+09:00*%
%TF.ProjectId,ESP8266-clock,45535038-3236-4362-9d63-6c6f636b2e6b,rev?*%
%TF.SameCoordinates,Original*%
%TF.FileFunction,Profile,NP*%
%FSLAX46Y46*%
G04 Gerber Fmt 4.6, Leading zero omitted, Abs format (unit mm)*
G04 Created by KiCad (PCBNEW (6.0.9)) date 2025-12-22 11:41:54*
%MOMM*%
%LPD*%
G01*
G04 APERTURE LIST*
%TA.AperFunction,Profile*%
%ADD10C,0.100000*%
%TD*%
G04 APERTURE END LIST*
D10*
X36620000Y-103000000D02*
G75*
G03*
X32600000Y-107020000I1J-4020001D01*
G01*
X43627431Y-107020000D02*
G75*
G03*
X39607431Y-103000000I-4020001J-1D01*
G01*
X32600000Y-112000000D02*
X32600000Y-107020000D01*
X32600000Y-112000000D02*
X29600000Y-112000000D01*
X32600000Y-170000000D02*
X29600000Y-170000000D01*
X32600000Y-170000000D02*
X32600000Y-173280000D01*
X89580000Y-177300000D02*
G75*
G03*
X93600000Y-173280000I-1J4020001D01*
G01*
X82572569Y-173280000D02*
G75*
G03*
X86592569Y-177300000I4020001J1D01*
G01*
X39607431Y-177300000D02*
G75*
G03*
X43627431Y-173280000I-1J4020001D01*
G01*
X32600000Y-173280000D02*
G75*
G03*
X36620000Y-177300000I4020001J1D01*
G01*
X29600000Y-170000000D02*
X29600000Y-112000000D01*
X39607431Y-177300000D02*
X36620000Y-177300000D01*
X43627431Y-170000000D02*
X43627431Y-173280000D01*
X82572569Y-170000000D02*
X43627431Y-170000000D01*
X82572569Y-173280000D02*
X82572569Y-170000000D01*
X89580000Y-177300000D02*
X86592569Y-177300000D01*
X93600000Y-112000000D02*
X93600000Y-173280000D01*
X43627431Y-112000000D02*
X93600000Y-112000000D01*
X43627431Y-107020000D02*
X43627431Y-112000000D01*
X36620000Y-103000000D02*
X39607431Y-103000000D01*
M02*
