M48
; DRILL file {KiCad (6.0.9)} date Mon Dec 22 11:41:57 2025
; FORMAT={-:-/ absolute / metric / decimal}
; #@! TF.CreationDate,2025-12-22T11:41:57+09:00
; #@! TF.GenerationSoftware,Kicad,Pcbnew,(6.0.9)
; #@! TF.FileFunction,MixedPlating,1,2
FMAT,2
METRIC
; #@! TA.AperFunction,Plated,PTH,ViaDrill
T1C0.300
; #@! TA.AperFunction,Plated,PTH,ViaDrill
T2C0.400
; #@! TA.AperFunction,Plated,PTH,ComponentDrill
T3C0.500
; #@! TA.AperFunction,Plated,PTH,ComponentDrill
T4C0.550
; #@! TA.AperFunction,Plated,PTH,ComponentDrill
T5C0.700
; #@! TA.AperFunction,Plated,PTH,ComponentDrill
T6C0.762
; #@! TA.AperFunction,Plated,PTH,ComponentDrill
T7C0.800
; #@! TA.AperFunction,Plated,PTH,ComponentDrill
T8C0.900
; #@! TA.AperFunction,Plated,PTH,ComponentDrill
T9C1.000
; #@! TA.AperFunction,Plated,PTH,ComponentDrill
T10C1.190
; #@! TA.AperFunction,Plated,PTH,ComponentDrill
T11C1.300
; #@! TA.AperFunction,Plated,PTH,ComponentDrill
T12C3.500
; #@! TA.AperFunction,NonPlated,NPTH,ComponentDrill
T13C2.500
%
G90
G05
T1
X64.67Y-124.07
X65.345Y-123.275
X65.362Y-137.012
X66.15Y-141.05
X68.175Y-141.025
X78.099Y-139.0
X78.575Y-133.4
X78.775Y-139.636
X78.9Y-131.15
X83.8Y-141.7
X86.499Y-128.097
T2
X60.6Y-156.3
X60.6Y-161.05
X67.9Y-130.45
X70.35Y-130.45
X80.2Y-132.5
X80.2Y-137.0
X82.0Y-137.0
T3
X35.475Y-107.5
X35.475Y-172.5
X36.244Y-105.644
X36.244Y-109.356
X36.244Y-170.644
X36.244Y-174.356
X38.1Y-104.875
X38.1Y-110.125
X38.1Y-169.875
X38.1Y-175.125
X39.956Y-105.644
X39.956Y-109.356
X39.956Y-170.644
X39.956Y-174.356
X40.725Y-107.5
X40.725Y-172.5
X85.475Y-172.5
X86.244Y-170.644
X86.244Y-174.356
X88.1Y-169.875
X88.1Y-175.125
X89.956Y-170.644
X89.956Y-174.356
X90.725Y-172.5
T4
X35.63Y-128.9
X36.9Y-128.9
X38.17Y-128.9
T5
X35.9Y-132.405
X35.9Y-134.945
X38.1Y-132.405
X38.1Y-134.945
X82.587Y-125.25
X90.207Y-125.25
T6
X47.03Y-122.68
X47.03Y-125.22
X47.03Y-127.76
X47.03Y-130.3
X47.03Y-132.84
X47.03Y-135.38
X47.03Y-137.92
X47.03Y-140.46
X47.03Y-143.0
X47.03Y-145.54
X47.03Y-148.08
X47.03Y-150.62
X47.03Y-153.16
X47.03Y-155.7
X47.03Y-158.24
X74.97Y-122.68
X74.97Y-125.22
X74.97Y-127.76
X74.97Y-130.3
X74.97Y-132.84
X74.97Y-135.38
X74.97Y-137.92
X74.97Y-140.46
X74.97Y-143.0
X74.97Y-145.54
X74.97Y-148.08
X74.97Y-150.62
X74.97Y-153.16
X74.97Y-155.7
X74.97Y-158.24
T7
X35.65Y-143.325
X35.7Y-147.825
X38.15Y-143.325
X38.2Y-147.825
T8
X35.68Y-138.925
X38.22Y-138.925
T9
X33.1Y-119.3
X35.7Y-153.4
X38.24Y-153.4
X40.7Y-119.3
X49.555Y-134.11
X49.555Y-136.65
X49.555Y-139.19
X49.555Y-141.73
X49.555Y-144.27
X49.555Y-146.81
X49.555Y-149.35
X49.555Y-151.89
X59.725Y-132.125
X59.725Y-134.665
X59.725Y-137.205
X59.725Y-139.745
X59.725Y-142.285
X59.725Y-144.825
X59.725Y-147.365
X59.725Y-149.905
X62.265Y-132.125
X62.265Y-134.665
X62.265Y-137.205
X62.265Y-139.745
X62.265Y-142.285
X62.265Y-144.825
X62.265Y-147.365
X62.265Y-149.905
X72.415Y-134.11
X72.415Y-136.65
X72.415Y-139.19
X72.415Y-141.73
X72.415Y-144.27
X72.415Y-146.81
X72.415Y-149.35
X72.415Y-151.89
X87.225Y-132.125
X87.225Y-134.665
X87.225Y-137.205
X87.225Y-139.745
X87.225Y-142.285
X87.225Y-144.825
X87.225Y-147.365
X87.225Y-149.905
X89.765Y-132.125
X89.765Y-134.665
X89.765Y-137.205
X89.765Y-139.745
X89.765Y-142.285
X89.765Y-144.825
X89.765Y-147.365
X89.765Y-149.905
T10
X82.587Y-116.902
X85.127Y-116.902
X87.667Y-116.902
X90.207Y-116.902
T11
X84.6Y-162.1
X89.6Y-162.1
T12
X38.1Y-107.5
X38.1Y-172.5
X88.1Y-172.5
T13
X48.3Y-115.05
X48.3Y-167.15
X73.7Y-115.05
X73.7Y-167.15
T9
G00X34.2Y-160.292
M15
G01X34.2Y-162.292
M16
G05
G00X36.2Y-165.992
M15
G01X38.2Y-165.992
M16
G05
G00X40.2Y-160.292
M15
G01X40.2Y-162.292
M16
G05
T0
M30
