%TF.GenerationSoftware,KiCad,Pcbnew,(6.0.9)*%
%TF.CreationDate,2025-12-22T11:41:54+09:00*%
%TF.ProjectId,ESP8266-clock,45535038-3236-4362-9d63-6c6f636b2e6b,rev?*%
%TF.SameCoordinates,Original*%
%TF.FileFunction,Legend,Top*%
%TF.FilePolarity,Positive*%
%FSLAX46Y46*%
G04 Gerber Fmt 4.6, Leading zero omitted, Abs format (unit mm)*
G04 Created by KiCad (PCBNEW (6.0.9)) date 2025-12-22 11:41:54*
%MOMM*%
%LPD*%
G01*
G04 APERTURE LIST*
%ADD10C,0.150000*%
%ADD11C,0.200000*%
%ADD12C,0.120000*%
%ADD13C,0.100000*%
%ADD14C,1.524000*%
G04 APERTURE END LIST*
D10*
X84175000Y-139100000D02*
X84175000Y-127150000D01*
X84625000Y-139100000D02*
X84625000Y-143050000D01*
X84175000Y-127150000D02*
X92775000Y-127150000D01*
X84625000Y-139100000D02*
X84175000Y-139100000D01*
X92775000Y-154900000D02*
X92775000Y-127150000D01*
X84175000Y-143050000D02*
X84175000Y-154900000D01*
X33850000Y-151600000D02*
X40000000Y-151600000D01*
X40000000Y-151600000D02*
X40000000Y-155200000D01*
X40000000Y-155200000D02*
X33850000Y-155200000D01*
X33850000Y-155200000D02*
X33850000Y-151600000D01*
X84625000Y-143050000D02*
X84175000Y-143050000D01*
X92775000Y-154900000D02*
X84175000Y-154900000D01*
D11*
X69839523Y-151402380D02*
X69363333Y-151402380D01*
X69315714Y-151878571D01*
X69363333Y-151830952D01*
X69458571Y-151783333D01*
X69696666Y-151783333D01*
X69791904Y-151830952D01*
X69839523Y-151878571D01*
X69887142Y-151973809D01*
X69887142Y-152211904D01*
X69839523Y-152307142D01*
X69791904Y-152354761D01*
X69696666Y-152402380D01*
X69458571Y-152402380D01*
X69363333Y-152354761D01*
X69315714Y-152307142D01*
X70172857Y-151402380D02*
X70506190Y-152402380D01*
X70839523Y-151402380D01*
D10*
X34419047Y-140221428D02*
X35180952Y-140221428D01*
X34800000Y-140602380D02*
X34800000Y-139840476D01*
X30630952Y-157552380D02*
X30630952Y-158266666D01*
X30583333Y-158409523D01*
X30488095Y-158504761D01*
X30345238Y-158552380D01*
X30250000Y-158552380D01*
X31583333Y-158552380D02*
X31107142Y-158552380D01*
X31107142Y-157552380D01*
X32488095Y-158457142D02*
X32440476Y-158504761D01*
X32297619Y-158552380D01*
X32202380Y-158552380D01*
X32059523Y-158504761D01*
X31964285Y-158409523D01*
X31916666Y-158314285D01*
X31869047Y-158123809D01*
X31869047Y-157980952D01*
X31916666Y-157790476D01*
X31964285Y-157695238D01*
X32059523Y-157600000D01*
X32202380Y-157552380D01*
X32297619Y-157552380D01*
X32440476Y-157600000D01*
X32488095Y-157647619D01*
X33202380Y-157552380D02*
X33202380Y-158266666D01*
X33154761Y-158409523D01*
X33059523Y-158504761D01*
X32916666Y-158552380D01*
X32821428Y-158552380D01*
X34154761Y-158552380D02*
X33678571Y-158552380D01*
X33678571Y-157552380D01*
X35059523Y-158457142D02*
X35011904Y-158504761D01*
X34869047Y-158552380D01*
X34773809Y-158552380D01*
X34630952Y-158504761D01*
X34535714Y-158409523D01*
X34488095Y-158314285D01*
X34440476Y-158123809D01*
X34440476Y-157980952D01*
X34488095Y-157790476D01*
X34535714Y-157695238D01*
X34630952Y-157600000D01*
X34773809Y-157552380D01*
X34869047Y-157552380D01*
X35011904Y-157600000D01*
X35059523Y-157647619D01*
X35773809Y-157552380D02*
X35773809Y-158266666D01*
X35726190Y-158409523D01*
X35630952Y-158504761D01*
X35488095Y-158552380D01*
X35392857Y-158552380D01*
X36726190Y-158552380D02*
X36250000Y-158552380D01*
X36250000Y-157552380D01*
X37630952Y-158457142D02*
X37583333Y-158504761D01*
X37440476Y-158552380D01*
X37345238Y-158552380D01*
X37202380Y-158504761D01*
X37107142Y-158409523D01*
X37059523Y-158314285D01*
X37011904Y-158123809D01*
X37011904Y-157980952D01*
X37059523Y-157790476D01*
X37107142Y-157695238D01*
X37202380Y-157600000D01*
X37345238Y-157552380D01*
X37440476Y-157552380D01*
X37583333Y-157600000D01*
X37630952Y-157647619D01*
X38345238Y-157552380D02*
X38345238Y-158266666D01*
X38297619Y-158409523D01*
X38202380Y-158504761D01*
X38059523Y-158552380D01*
X37964285Y-158552380D01*
X39297619Y-158552380D02*
X38821428Y-158552380D01*
X38821428Y-157552380D01*
X40202380Y-158457142D02*
X40154761Y-158504761D01*
X40011904Y-158552380D01*
X39916666Y-158552380D01*
X39773809Y-158504761D01*
X39678571Y-158409523D01*
X39630952Y-158314285D01*
X39583333Y-158123809D01*
X39583333Y-157980952D01*
X39630952Y-157790476D01*
X39678571Y-157695238D01*
X39773809Y-157600000D01*
X39916666Y-157552380D01*
X40011904Y-157552380D01*
X40154761Y-157600000D01*
X40202380Y-157647619D01*
%TO.C,U1*%
X43538095Y-133244761D02*
X43680952Y-133292380D01*
X43919047Y-133292380D01*
X44014285Y-133244761D01*
X44061904Y-133197142D01*
X44109523Y-133101904D01*
X44109523Y-133006666D01*
X44061904Y-132911428D01*
X44014285Y-132863809D01*
X43919047Y-132816190D01*
X43728571Y-132768571D01*
X43633333Y-132720952D01*
X43585714Y-132673333D01*
X43538095Y-132578095D01*
X43538095Y-132482857D01*
X43585714Y-132387619D01*
X43633333Y-132340000D01*
X43728571Y-132292380D01*
X43966666Y-132292380D01*
X44109523Y-132340000D01*
X44490476Y-132387619D02*
X44538095Y-132340000D01*
X44633333Y-132292380D01*
X44871428Y-132292380D01*
X44966666Y-132340000D01*
X45014285Y-132387619D01*
X45061904Y-132482857D01*
X45061904Y-132578095D01*
X45014285Y-132720952D01*
X44442857Y-133292380D01*
X45061904Y-133292380D01*
X77061904Y-128212380D02*
X77061904Y-127212380D01*
X77300000Y-127212380D01*
X77442857Y-127260000D01*
X77538095Y-127355238D01*
X77585714Y-127450476D01*
X77633333Y-127640952D01*
X77633333Y-127783809D01*
X77585714Y-127974285D01*
X77538095Y-128069523D01*
X77442857Y-128164761D01*
X77300000Y-128212380D01*
X77061904Y-128212380D01*
X78014285Y-127307619D02*
X78061904Y-127260000D01*
X78157142Y-127212380D01*
X78395238Y-127212380D01*
X78490476Y-127260000D01*
X78538095Y-127307619D01*
X78585714Y-127402857D01*
X78585714Y-127498095D01*
X78538095Y-127640952D01*
X77966666Y-128212380D01*
X78585714Y-128212380D01*
X77061904Y-133292380D02*
X77061904Y-132292380D01*
X77300000Y-132292380D01*
X77442857Y-132340000D01*
X77538095Y-132435238D01*
X77585714Y-132530476D01*
X77633333Y-132720952D01*
X77633333Y-132863809D01*
X77585714Y-133054285D01*
X77538095Y-133149523D01*
X77442857Y-133244761D01*
X77300000Y-133292380D01*
X77061904Y-133292380D01*
X78490476Y-132625714D02*
X78490476Y-133292380D01*
X78252380Y-132244761D02*
X78014285Y-132959047D01*
X78633333Y-132959047D01*
X44561904Y-145040000D02*
X44466666Y-144992380D01*
X44323809Y-144992380D01*
X44180952Y-145040000D01*
X44085714Y-145135238D01*
X44038095Y-145230476D01*
X43990476Y-145420952D01*
X43990476Y-145563809D01*
X44038095Y-145754285D01*
X44085714Y-145849523D01*
X44180952Y-145944761D01*
X44323809Y-145992380D01*
X44419047Y-145992380D01*
X44561904Y-145944761D01*
X44609523Y-145897142D01*
X44609523Y-145563809D01*
X44419047Y-145563809D01*
X77061904Y-123132380D02*
X77061904Y-122132380D01*
X77300000Y-122132380D01*
X77442857Y-122180000D01*
X77538095Y-122275238D01*
X77585714Y-122370476D01*
X77633333Y-122560952D01*
X77633333Y-122703809D01*
X77585714Y-122894285D01*
X77538095Y-122989523D01*
X77442857Y-123084761D01*
X77300000Y-123132380D01*
X77061904Y-123132380D01*
X78252380Y-122132380D02*
X78347619Y-122132380D01*
X78442857Y-122180000D01*
X78490476Y-122227619D01*
X78538095Y-122322857D01*
X78585714Y-122513333D01*
X78585714Y-122751428D01*
X78538095Y-122941904D01*
X78490476Y-123037142D01*
X78442857Y-123084761D01*
X78347619Y-123132380D01*
X78252380Y-123132380D01*
X78157142Y-123084761D01*
X78109523Y-123037142D01*
X78061904Y-122941904D01*
X78014285Y-122751428D01*
X78014285Y-122513333D01*
X78061904Y-122322857D01*
X78109523Y-122227619D01*
X78157142Y-122180000D01*
X78252380Y-122132380D01*
X43538095Y-135784761D02*
X43680952Y-135832380D01*
X43919047Y-135832380D01*
X44014285Y-135784761D01*
X44061904Y-135737142D01*
X44109523Y-135641904D01*
X44109523Y-135546666D01*
X44061904Y-135451428D01*
X44014285Y-135403809D01*
X43919047Y-135356190D01*
X43728571Y-135308571D01*
X43633333Y-135260952D01*
X43585714Y-135213333D01*
X43538095Y-135118095D01*
X43538095Y-135022857D01*
X43585714Y-134927619D01*
X43633333Y-134880000D01*
X43728571Y-134832380D01*
X43966666Y-134832380D01*
X44109523Y-134880000D01*
X45061904Y-135832380D02*
X44490476Y-135832380D01*
X44776190Y-135832380D02*
X44776190Y-134832380D01*
X44680952Y-134975238D01*
X44585714Y-135070476D01*
X44490476Y-135118095D01*
X77633333Y-151072380D02*
X77300000Y-150596190D01*
X77061904Y-151072380D02*
X77061904Y-150072380D01*
X77442857Y-150072380D01*
X77538095Y-150120000D01*
X77585714Y-150167619D01*
X77633333Y-150262857D01*
X77633333Y-150405714D01*
X77585714Y-150500952D01*
X77538095Y-150548571D01*
X77442857Y-150596190D01*
X77061904Y-150596190D01*
X77966666Y-150072380D02*
X78633333Y-151072380D01*
X78633333Y-150072380D02*
X77966666Y-151072380D01*
X43204761Y-157692380D02*
X43538095Y-158692380D01*
X43871428Y-157692380D01*
X44204761Y-158692380D02*
X44204761Y-157692380D01*
X44680952Y-158692380D02*
X44680952Y-157692380D01*
X45252380Y-158692380D01*
X45252380Y-157692380D01*
X77061904Y-140912380D02*
X77061904Y-139912380D01*
X77300000Y-139912380D01*
X77442857Y-139960000D01*
X77538095Y-140055238D01*
X77585714Y-140150476D01*
X77633333Y-140340952D01*
X77633333Y-140483809D01*
X77585714Y-140674285D01*
X77538095Y-140769523D01*
X77442857Y-140864761D01*
X77300000Y-140912380D01*
X77061904Y-140912380D01*
X78538095Y-139912380D02*
X78061904Y-139912380D01*
X78014285Y-140388571D01*
X78061904Y-140340952D01*
X78157142Y-140293333D01*
X78395238Y-140293333D01*
X78490476Y-140340952D01*
X78538095Y-140388571D01*
X78585714Y-140483809D01*
X78585714Y-140721904D01*
X78538095Y-140817142D01*
X78490476Y-140864761D01*
X78395238Y-140912380D01*
X78157142Y-140912380D01*
X78061904Y-140864761D01*
X78014285Y-140817142D01*
X77061904Y-125672380D02*
X77061904Y-124672380D01*
X77300000Y-124672380D01*
X77442857Y-124720000D01*
X77538095Y-124815238D01*
X77585714Y-124910476D01*
X77633333Y-125100952D01*
X77633333Y-125243809D01*
X77585714Y-125434285D01*
X77538095Y-125529523D01*
X77442857Y-125624761D01*
X77300000Y-125672380D01*
X77061904Y-125672380D01*
X78585714Y-125672380D02*
X78014285Y-125672380D01*
X78300000Y-125672380D02*
X78300000Y-124672380D01*
X78204761Y-124815238D01*
X78109523Y-124910476D01*
X78014285Y-124958095D01*
X44561904Y-124720000D02*
X44466666Y-124672380D01*
X44323809Y-124672380D01*
X44180952Y-124720000D01*
X44085714Y-124815238D01*
X44038095Y-124910476D01*
X43990476Y-125100952D01*
X43990476Y-125243809D01*
X44038095Y-125434285D01*
X44085714Y-125529523D01*
X44180952Y-125624761D01*
X44323809Y-125672380D01*
X44419047Y-125672380D01*
X44561904Y-125624761D01*
X44609523Y-125577142D01*
X44609523Y-125243809D01*
X44419047Y-125243809D01*
X44561904Y-155200000D02*
X44466666Y-155152380D01*
X44323809Y-155152380D01*
X44180952Y-155200000D01*
X44085714Y-155295238D01*
X44038095Y-155390476D01*
X43990476Y-155580952D01*
X43990476Y-155723809D01*
X44038095Y-155914285D01*
X44085714Y-156009523D01*
X44180952Y-156104761D01*
X44323809Y-156152380D01*
X44419047Y-156152380D01*
X44561904Y-156104761D01*
X44609523Y-156057142D01*
X44609523Y-155723809D01*
X44419047Y-155723809D01*
X43585714Y-122846666D02*
X44061904Y-122846666D01*
X43490476Y-123132380D02*
X43823809Y-122132380D01*
X44157142Y-123132380D01*
X44680952Y-122132380D02*
X44776190Y-122132380D01*
X44871428Y-122180000D01*
X44919047Y-122227619D01*
X44966666Y-122322857D01*
X45014285Y-122513333D01*
X45014285Y-122751428D01*
X44966666Y-122941904D01*
X44919047Y-123037142D01*
X44871428Y-123084761D01*
X44776190Y-123132380D01*
X44680952Y-123132380D01*
X44585714Y-123084761D01*
X44538095Y-123037142D01*
X44490476Y-122941904D01*
X44442857Y-122751428D01*
X44442857Y-122513333D01*
X44490476Y-122322857D01*
X44538095Y-122227619D01*
X44585714Y-122180000D01*
X44680952Y-122132380D01*
X43514285Y-143404761D02*
X43657142Y-143452380D01*
X43895238Y-143452380D01*
X43990476Y-143404761D01*
X44038095Y-143357142D01*
X44085714Y-143261904D01*
X44085714Y-143166666D01*
X44038095Y-143071428D01*
X43990476Y-143023809D01*
X43895238Y-142976190D01*
X43704761Y-142928571D01*
X43609523Y-142880952D01*
X43561904Y-142833333D01*
X43514285Y-142738095D01*
X43514285Y-142642857D01*
X43561904Y-142547619D01*
X43609523Y-142500000D01*
X43704761Y-142452380D01*
X43942857Y-142452380D01*
X44085714Y-142500000D01*
X44514285Y-143452380D02*
X44514285Y-142452380D01*
X45085714Y-143452380D02*
X44657142Y-142880952D01*
X45085714Y-142452380D02*
X44514285Y-143023809D01*
X77038095Y-152612380D02*
X77609523Y-152612380D01*
X77323809Y-153612380D02*
X77323809Y-152612380D01*
X77847619Y-152612380D02*
X78514285Y-153612380D01*
X78514285Y-152612380D02*
X77847619Y-153612380D01*
X43538095Y-147532380D02*
X44157142Y-147532380D01*
X43823809Y-147913333D01*
X43966666Y-147913333D01*
X44061904Y-147960952D01*
X44109523Y-148008571D01*
X44157142Y-148103809D01*
X44157142Y-148341904D01*
X44109523Y-148437142D01*
X44061904Y-148484761D01*
X43966666Y-148532380D01*
X43680952Y-148532380D01*
X43585714Y-148484761D01*
X43538095Y-148437142D01*
X44442857Y-147532380D02*
X44776190Y-148532380D01*
X45109523Y-147532380D01*
X77061904Y-130752380D02*
X77061904Y-129752380D01*
X77300000Y-129752380D01*
X77442857Y-129800000D01*
X77538095Y-129895238D01*
X77585714Y-129990476D01*
X77633333Y-130180952D01*
X77633333Y-130323809D01*
X77585714Y-130514285D01*
X77538095Y-130609523D01*
X77442857Y-130704761D01*
X77300000Y-130752380D01*
X77061904Y-130752380D01*
X77966666Y-129752380D02*
X78585714Y-129752380D01*
X78252380Y-130133333D01*
X78395238Y-130133333D01*
X78490476Y-130180952D01*
X78538095Y-130228571D01*
X78585714Y-130323809D01*
X78585714Y-130561904D01*
X78538095Y-130657142D01*
X78490476Y-130704761D01*
X78395238Y-130752380D01*
X78109523Y-130752380D01*
X78014285Y-130704761D01*
X77966666Y-130657142D01*
X77061904Y-145992380D02*
X77061904Y-144992380D01*
X77300000Y-144992380D01*
X77442857Y-145040000D01*
X77538095Y-145135238D01*
X77585714Y-145230476D01*
X77633333Y-145420952D01*
X77633333Y-145563809D01*
X77585714Y-145754285D01*
X77538095Y-145849523D01*
X77442857Y-145944761D01*
X77300000Y-145992380D01*
X77061904Y-145992380D01*
X77966666Y-144992380D02*
X78633333Y-144992380D01*
X78204761Y-145992380D01*
X77038095Y-134832380D02*
X77657142Y-134832380D01*
X77323809Y-135213333D01*
X77466666Y-135213333D01*
X77561904Y-135260952D01*
X77609523Y-135308571D01*
X77657142Y-135403809D01*
X77657142Y-135641904D01*
X77609523Y-135737142D01*
X77561904Y-135784761D01*
X77466666Y-135832380D01*
X77180952Y-135832380D01*
X77085714Y-135784761D01*
X77038095Y-135737142D01*
X77942857Y-134832380D02*
X78276190Y-135832380D01*
X78609523Y-134832380D01*
X43490476Y-140864761D02*
X43633333Y-140912380D01*
X43871428Y-140912380D01*
X43966666Y-140864761D01*
X44014285Y-140817142D01*
X44061904Y-140721904D01*
X44061904Y-140626666D01*
X44014285Y-140531428D01*
X43966666Y-140483809D01*
X43871428Y-140436190D01*
X43680952Y-140388571D01*
X43585714Y-140340952D01*
X43538095Y-140293333D01*
X43490476Y-140198095D01*
X43490476Y-140102857D01*
X43538095Y-140007619D01*
X43585714Y-139960000D01*
X43680952Y-139912380D01*
X43919047Y-139912380D01*
X44061904Y-139960000D01*
X44680952Y-139912380D02*
X44871428Y-139912380D01*
X44966666Y-139960000D01*
X45061904Y-140055238D01*
X45109523Y-140245714D01*
X45109523Y-140579047D01*
X45061904Y-140769523D01*
X44966666Y-140864761D01*
X44871428Y-140912380D01*
X44680952Y-140912380D01*
X44585714Y-140864761D01*
X44490476Y-140769523D01*
X44442857Y-140579047D01*
X44442857Y-140245714D01*
X44490476Y-140055238D01*
X44585714Y-139960000D01*
X44680952Y-139912380D01*
X78061904Y-137420000D02*
X77966666Y-137372380D01*
X77823809Y-137372380D01*
X77680952Y-137420000D01*
X77585714Y-137515238D01*
X77538095Y-137610476D01*
X77490476Y-137800952D01*
X77490476Y-137943809D01*
X77538095Y-138134285D01*
X77585714Y-138229523D01*
X77680952Y-138324761D01*
X77823809Y-138372380D01*
X77919047Y-138372380D01*
X78061904Y-138324761D01*
X78109523Y-138277142D01*
X78109523Y-137943809D01*
X77919047Y-137943809D01*
X77061904Y-143452380D02*
X77061904Y-142452380D01*
X77300000Y-142452380D01*
X77442857Y-142500000D01*
X77538095Y-142595238D01*
X77585714Y-142690476D01*
X77633333Y-142880952D01*
X77633333Y-143023809D01*
X77585714Y-143214285D01*
X77538095Y-143309523D01*
X77442857Y-143404761D01*
X77300000Y-143452380D01*
X77061904Y-143452380D01*
X78490476Y-142452380D02*
X78300000Y-142452380D01*
X78204761Y-142500000D01*
X78157142Y-142547619D01*
X78061904Y-142690476D01*
X78014285Y-142880952D01*
X78014285Y-143261904D01*
X78061904Y-143357142D01*
X78109523Y-143404761D01*
X78204761Y-143452380D01*
X78395238Y-143452380D01*
X78490476Y-143404761D01*
X78538095Y-143357142D01*
X78585714Y-143261904D01*
X78585714Y-143023809D01*
X78538095Y-142928571D01*
X78490476Y-142880952D01*
X78395238Y-142833333D01*
X78204761Y-142833333D01*
X78109523Y-142880952D01*
X78061904Y-142928571D01*
X78014285Y-143023809D01*
X43561904Y-150548571D02*
X43895238Y-150548571D01*
X44038095Y-151072380D02*
X43561904Y-151072380D01*
X43561904Y-150072380D01*
X44038095Y-150072380D01*
X44466666Y-151072380D02*
X44466666Y-150072380D01*
X45038095Y-151072380D01*
X45038095Y-150072380D01*
X77038095Y-157692380D02*
X77657142Y-157692380D01*
X77323809Y-158073333D01*
X77466666Y-158073333D01*
X77561904Y-158120952D01*
X77609523Y-158168571D01*
X77657142Y-158263809D01*
X77657142Y-158501904D01*
X77609523Y-158597142D01*
X77561904Y-158644761D01*
X77466666Y-158692380D01*
X77180952Y-158692380D01*
X77085714Y-158644761D01*
X77038095Y-158597142D01*
X77942857Y-157692380D02*
X78276190Y-158692380D01*
X78609523Y-157692380D01*
X43514285Y-138324761D02*
X43657142Y-138372380D01*
X43895238Y-138372380D01*
X43990476Y-138324761D01*
X44038095Y-138277142D01*
X44085714Y-138181904D01*
X44085714Y-138086666D01*
X44038095Y-137991428D01*
X43990476Y-137943809D01*
X43895238Y-137896190D01*
X43704761Y-137848571D01*
X43609523Y-137800952D01*
X43561904Y-137753333D01*
X43514285Y-137658095D01*
X43514285Y-137562857D01*
X43561904Y-137467619D01*
X43609523Y-137420000D01*
X43704761Y-137372380D01*
X43942857Y-137372380D01*
X44085714Y-137420000D01*
X45085714Y-138277142D02*
X45038095Y-138324761D01*
X44895238Y-138372380D01*
X44800000Y-138372380D01*
X44657142Y-138324761D01*
X44561904Y-138229523D01*
X44514285Y-138134285D01*
X44466666Y-137943809D01*
X44466666Y-137800952D01*
X44514285Y-137610476D01*
X44561904Y-137515238D01*
X44657142Y-137420000D01*
X44800000Y-137372380D01*
X44895238Y-137372380D01*
X45038095Y-137420000D01*
X45085714Y-137467619D01*
X43752380Y-153612380D02*
X43419047Y-153136190D01*
X43180952Y-153612380D02*
X43180952Y-152612380D01*
X43561904Y-152612380D01*
X43657142Y-152660000D01*
X43704761Y-152707619D01*
X43752380Y-152802857D01*
X43752380Y-152945714D01*
X43704761Y-153040952D01*
X43657142Y-153088571D01*
X43561904Y-153136190D01*
X43180952Y-153136190D01*
X44133333Y-153564761D02*
X44276190Y-153612380D01*
X44514285Y-153612380D01*
X44609523Y-153564761D01*
X44657142Y-153517142D01*
X44704761Y-153421904D01*
X44704761Y-153326666D01*
X44657142Y-153231428D01*
X44609523Y-153183809D01*
X44514285Y-153136190D01*
X44323809Y-153088571D01*
X44228571Y-153040952D01*
X44180952Y-152993333D01*
X44133333Y-152898095D01*
X44133333Y-152802857D01*
X44180952Y-152707619D01*
X44228571Y-152660000D01*
X44323809Y-152612380D01*
X44561904Y-152612380D01*
X44704761Y-152660000D01*
X44990476Y-152612380D02*
X45561904Y-152612380D01*
X45276190Y-153612380D02*
X45276190Y-152612380D01*
X77061904Y-148532380D02*
X77061904Y-147532380D01*
X77300000Y-147532380D01*
X77442857Y-147580000D01*
X77538095Y-147675238D01*
X77585714Y-147770476D01*
X77633333Y-147960952D01*
X77633333Y-148103809D01*
X77585714Y-148294285D01*
X77538095Y-148389523D01*
X77442857Y-148484761D01*
X77300000Y-148532380D01*
X77061904Y-148532380D01*
X78204761Y-147960952D02*
X78109523Y-147913333D01*
X78061904Y-147865714D01*
X78014285Y-147770476D01*
X78014285Y-147722857D01*
X78061904Y-147627619D01*
X78109523Y-147580000D01*
X78204761Y-147532380D01*
X78395238Y-147532380D01*
X78490476Y-147580000D01*
X78538095Y-147627619D01*
X78585714Y-147722857D01*
X78585714Y-147770476D01*
X78538095Y-147865714D01*
X78490476Y-147913333D01*
X78395238Y-147960952D01*
X78204761Y-147960952D01*
X78109523Y-148008571D01*
X78061904Y-148056190D01*
X78014285Y-148151428D01*
X78014285Y-148341904D01*
X78061904Y-148437142D01*
X78109523Y-148484761D01*
X78204761Y-148532380D01*
X78395238Y-148532380D01*
X78490476Y-148484761D01*
X78538095Y-148437142D01*
X78585714Y-148341904D01*
X78585714Y-148151428D01*
X78538095Y-148056190D01*
X78490476Y-148008571D01*
X78395238Y-147960952D01*
X78061904Y-155200000D02*
X77966666Y-155152380D01*
X77823809Y-155152380D01*
X77680952Y-155200000D01*
X77585714Y-155295238D01*
X77538095Y-155390476D01*
X77490476Y-155580952D01*
X77490476Y-155723809D01*
X77538095Y-155914285D01*
X77585714Y-156009523D01*
X77680952Y-156104761D01*
X77823809Y-156152380D01*
X77919047Y-156152380D01*
X78061904Y-156104761D01*
X78109523Y-156057142D01*
X78109523Y-155723809D01*
X77919047Y-155723809D01*
X43442857Y-127212380D02*
X43776190Y-128212380D01*
X44109523Y-127212380D01*
X44442857Y-127212380D02*
X44442857Y-128021904D01*
X44490476Y-128117142D01*
X44538095Y-128164761D01*
X44633333Y-128212380D01*
X44823809Y-128212380D01*
X44919047Y-128164761D01*
X44966666Y-128117142D01*
X45014285Y-128021904D01*
X45014285Y-127212380D01*
X43538095Y-130704761D02*
X43680952Y-130752380D01*
X43919047Y-130752380D01*
X44014285Y-130704761D01*
X44061904Y-130657142D01*
X44109523Y-130561904D01*
X44109523Y-130466666D01*
X44061904Y-130371428D01*
X44014285Y-130323809D01*
X43919047Y-130276190D01*
X43728571Y-130228571D01*
X43633333Y-130180952D01*
X43585714Y-130133333D01*
X43538095Y-130038095D01*
X43538095Y-129942857D01*
X43585714Y-129847619D01*
X43633333Y-129800000D01*
X43728571Y-129752380D01*
X43966666Y-129752380D01*
X44109523Y-129800000D01*
X44442857Y-129752380D02*
X45061904Y-129752380D01*
X44728571Y-130133333D01*
X44871428Y-130133333D01*
X44966666Y-130180952D01*
X45014285Y-130228571D01*
X45061904Y-130323809D01*
X45061904Y-130561904D01*
X45014285Y-130657142D01*
X44966666Y-130704761D01*
X44871428Y-130752380D01*
X44585714Y-130752380D01*
X44490476Y-130704761D01*
X44442857Y-130657142D01*
%TO.C,Q1*%
X33204761Y-130547619D02*
X33109523Y-130500000D01*
X33014285Y-130404761D01*
X32871428Y-130261904D01*
X32776190Y-130214285D01*
X32680952Y-130214285D01*
X32728571Y-130452380D02*
X32633333Y-130404761D01*
X32538095Y-130309523D01*
X32490476Y-130119047D01*
X32490476Y-129785714D01*
X32538095Y-129595238D01*
X32633333Y-129500000D01*
X32728571Y-129452380D01*
X32919047Y-129452380D01*
X33014285Y-129500000D01*
X33109523Y-129595238D01*
X33157142Y-129785714D01*
X33157142Y-130119047D01*
X33109523Y-130309523D01*
X33014285Y-130404761D01*
X32919047Y-130452380D01*
X32728571Y-130452380D01*
X34109523Y-130452380D02*
X33538095Y-130452380D01*
X33823809Y-130452380D02*
X33823809Y-129452380D01*
X33728571Y-129595238D01*
X33633333Y-129690476D01*
X33538095Y-129738095D01*
%TO.C,C2*%
X33183333Y-143682142D02*
X33135714Y-143729761D01*
X32992857Y-143777380D01*
X32897619Y-143777380D01*
X32754761Y-143729761D01*
X32659523Y-143634523D01*
X32611904Y-143539285D01*
X32564285Y-143348809D01*
X32564285Y-143205952D01*
X32611904Y-143015476D01*
X32659523Y-142920238D01*
X32754761Y-142825000D01*
X32897619Y-142777380D01*
X32992857Y-142777380D01*
X33135714Y-142825000D01*
X33183333Y-142872619D01*
X33564285Y-142872619D02*
X33611904Y-142825000D01*
X33707142Y-142777380D01*
X33945238Y-142777380D01*
X34040476Y-142825000D01*
X34088095Y-142872619D01*
X34135714Y-142967857D01*
X34135714Y-143063095D01*
X34088095Y-143205952D01*
X33516666Y-143777380D01*
X34135714Y-143777380D01*
%TO.C,C1*%
X33633333Y-150157142D02*
X33585714Y-150204761D01*
X33442857Y-150252380D01*
X33347619Y-150252380D01*
X33204761Y-150204761D01*
X33109523Y-150109523D01*
X33061904Y-150014285D01*
X33014285Y-149823809D01*
X33014285Y-149680952D01*
X33061904Y-149490476D01*
X33109523Y-149395238D01*
X33204761Y-149300000D01*
X33347619Y-149252380D01*
X33442857Y-149252380D01*
X33585714Y-149300000D01*
X33633333Y-149347619D01*
X34585714Y-150252380D02*
X34014285Y-150252380D01*
X34300000Y-150252380D02*
X34300000Y-149252380D01*
X34204761Y-149395238D01*
X34109523Y-149490476D01*
X34014285Y-149538095D01*
%TO.C,BZ1*%
X32719047Y-117421428D02*
X33480952Y-117421428D01*
X33100000Y-117802380D02*
X33100000Y-117040476D01*
%TO.C,R3*%
X39933333Y-134077380D02*
X39600000Y-133601190D01*
X39361904Y-134077380D02*
X39361904Y-133077380D01*
X39742857Y-133077380D01*
X39838095Y-133125000D01*
X39885714Y-133172619D01*
X39933333Y-133267857D01*
X39933333Y-133410714D01*
X39885714Y-133505952D01*
X39838095Y-133553571D01*
X39742857Y-133601190D01*
X39361904Y-133601190D01*
X40266666Y-133077380D02*
X40885714Y-133077380D01*
X40552380Y-133458333D01*
X40695238Y-133458333D01*
X40790476Y-133505952D01*
X40838095Y-133553571D01*
X40885714Y-133648809D01*
X40885714Y-133886904D01*
X40838095Y-133982142D01*
X40790476Y-134029761D01*
X40695238Y-134077380D01*
X40409523Y-134077380D01*
X40314285Y-134029761D01*
X40266666Y-133982142D01*
%TO.C,R2*%
X86230833Y-125702380D02*
X85897500Y-125226190D01*
X85659404Y-125702380D02*
X85659404Y-124702380D01*
X86040357Y-124702380D01*
X86135595Y-124750000D01*
X86183214Y-124797619D01*
X86230833Y-124892857D01*
X86230833Y-125035714D01*
X86183214Y-125130952D01*
X86135595Y-125178571D01*
X86040357Y-125226190D01*
X85659404Y-125226190D01*
X86611785Y-124797619D02*
X86659404Y-124750000D01*
X86754642Y-124702380D01*
X86992738Y-124702380D01*
X87087976Y-124750000D01*
X87135595Y-124797619D01*
X87183214Y-124892857D01*
X87183214Y-124988095D01*
X87135595Y-125130952D01*
X86564166Y-125702380D01*
X87183214Y-125702380D01*
%TO.C,R1*%
X33733333Y-134177380D02*
X33400000Y-133701190D01*
X33161904Y-134177380D02*
X33161904Y-133177380D01*
X33542857Y-133177380D01*
X33638095Y-133225000D01*
X33685714Y-133272619D01*
X33733333Y-133367857D01*
X33733333Y-133510714D01*
X33685714Y-133605952D01*
X33638095Y-133653571D01*
X33542857Y-133701190D01*
X33161904Y-133701190D01*
X34685714Y-134177380D02*
X34114285Y-134177380D01*
X34400000Y-134177380D02*
X34400000Y-133177380D01*
X34304761Y-133320238D01*
X34209523Y-133415476D01*
X34114285Y-133463095D01*
%TO.C,U1*%
X76250000Y-112500000D02*
X46250000Y-112500000D01*
X45750000Y-112500000D02*
X45750000Y-169500000D01*
X45750000Y-169500000D02*
X76250000Y-169500000D01*
X46250000Y-112500000D02*
X45750000Y-112500000D01*
X76250000Y-169500000D02*
X76250000Y-112500000D01*
X75496051Y-115060000D02*
G75*
G03*
X75496051Y-115060000I-1796051J0D01*
G01*
X50096051Y-167130000D02*
G75*
G03*
X50096051Y-167130000I-1796051J0D01*
G01*
X50096051Y-115060000D02*
G75*
G03*
X50096051Y-115060000I-1796051J0D01*
G01*
X75496051Y-167130000D02*
G75*
G03*
X75496051Y-167130000I-1796051J0D01*
G01*
%TO.C,kibuzzard-6514EFEE*%
G36*
X30994369Y-160496731D02*
G01*
X32205631Y-160496731D01*
X32205631Y-162003269D01*
X30994369Y-162003269D01*
X30994369Y-161250794D01*
X31192806Y-161250794D01*
X31197304Y-161384761D01*
X31210798Y-161496680D01*
X31233287Y-161586550D01*
X31287461Y-161687753D01*
X31369019Y-161754825D01*
X31441515Y-161782606D01*
X31532002Y-161799275D01*
X31640481Y-161804831D01*
X31738112Y-161800466D01*
X31821456Y-161787369D01*
X31905197Y-161761969D01*
X32004019Y-161720694D01*
X32004019Y-161182531D01*
X31588094Y-161182531D01*
X31588094Y-161355569D01*
X31811931Y-161355569D01*
X31811931Y-161598456D01*
X31733350Y-161623062D01*
X31635719Y-161630206D01*
X31551383Y-161621872D01*
X31488875Y-161596869D01*
X31444623Y-161551823D01*
X31415056Y-161483363D01*
X31398387Y-161386327D01*
X31392831Y-161255556D01*
X31397792Y-161121809D01*
X31412675Y-161022194D01*
X31439464Y-160951550D01*
X31480144Y-160904719D01*
X31537691Y-160878525D01*
X31615081Y-160869794D01*
X31727000Y-160882494D01*
X31786531Y-160924562D01*
X31810344Y-161009494D01*
X32007194Y-161009494D01*
X31993105Y-160899956D01*
X31963538Y-160818994D01*
X31914920Y-160761844D01*
X31843681Y-160723744D01*
X31744859Y-160702312D01*
X31613494Y-160695169D01*
X31511806Y-160700725D01*
X31426874Y-160717394D01*
X31358700Y-160745175D01*
X31281905Y-160812247D01*
X31230906Y-160913450D01*
X31209740Y-161003497D01*
X31197040Y-161115944D01*
X31192806Y-161250794D01*
X30994369Y-161250794D01*
X30994369Y-160496731D01*
G37*
%TO.C,kibuzzard-69461B8D*%
G36*
X82602184Y-119929994D02*
G01*
X90192816Y-119929994D01*
X90192816Y-122570006D01*
X82602184Y-122570006D01*
X82602184Y-122054862D01*
X83098278Y-122054862D01*
X83254118Y-122065446D01*
X83394611Y-122071796D01*
X83519759Y-122073912D01*
X83710524Y-122065710D01*
X83780862Y-122054862D01*
X84534172Y-122054862D01*
X84838972Y-122054862D01*
X84838972Y-121347631D01*
X85386659Y-121347631D01*
X85386659Y-122054862D01*
X85691459Y-122054862D01*
X85691459Y-120707075D01*
X85955778Y-120707075D01*
X86389166Y-120707075D01*
X86389166Y-122054862D01*
X86693966Y-122054862D01*
X86693966Y-121109506D01*
X87460728Y-121109506D01*
X87889353Y-120845188D01*
X87982222Y-120768987D01*
X87972697Y-120916625D01*
X87972697Y-122054862D01*
X88267972Y-122054862D01*
X88267972Y-121109506D01*
X88889478Y-121109506D01*
X89318103Y-120845188D01*
X89410972Y-120768987D01*
X89401447Y-120916625D01*
X89401447Y-122054862D01*
X89696722Y-122054862D01*
X89696722Y-120435613D01*
X89401447Y-120435613D01*
X88889478Y-120795181D01*
X88889478Y-121109506D01*
X88267972Y-121109506D01*
X88267972Y-120435613D01*
X87972697Y-120435613D01*
X87460728Y-120795181D01*
X87460728Y-121109506D01*
X86693966Y-121109506D01*
X86693966Y-120707075D01*
X87127353Y-120707075D01*
X87127353Y-120435613D01*
X85955778Y-120435613D01*
X85955778Y-120707075D01*
X85691459Y-120707075D01*
X85691459Y-120435613D01*
X85386659Y-120435613D01*
X85386659Y-121078550D01*
X84838972Y-121078550D01*
X84838972Y-120435613D01*
X84534172Y-120435613D01*
X84534172Y-122054862D01*
X83780862Y-122054862D01*
X83870068Y-122041104D01*
X83998391Y-122000094D01*
X84143052Y-121901570D01*
X84238897Y-121753634D01*
X84278584Y-121622798D01*
X84302397Y-121460476D01*
X84310334Y-121266669D01*
X84303455Y-121081328D01*
X84282818Y-120925356D01*
X84248422Y-120798753D01*
X84164780Y-120652009D01*
X84037681Y-120547531D01*
X83924836Y-120498319D01*
X83784740Y-120461806D01*
X83617391Y-120437994D01*
X83503091Y-120429064D01*
X83374503Y-120426088D01*
X83243534Y-120428469D01*
X83098278Y-120435613D01*
X83098278Y-122054862D01*
X82602184Y-122054862D01*
X82602184Y-119929994D01*
G37*
G36*
X83495947Y-120691002D02*
G01*
X83607866Y-120699931D01*
X83745085Y-120725827D01*
X83847181Y-120770178D01*
X83919512Y-120838639D01*
X83967434Y-120936866D01*
X83994223Y-121071704D01*
X84003153Y-121250000D01*
X83993926Y-121438416D01*
X83966244Y-121579803D01*
X83916535Y-121681304D01*
X83841228Y-121750063D01*
X83734667Y-121791734D01*
X83591197Y-121811975D01*
X83403078Y-121804831D01*
X83403078Y-120688025D01*
X83495947Y-120691002D01*
G37*
%TO.C,kibuzzard-67C66B4C*%
G36*
X54113147Y-146461077D02*
G01*
X57890763Y-146461077D01*
X57890763Y-148268923D01*
X54113147Y-148268923D01*
X54113147Y-147367857D01*
X54351272Y-147367857D01*
X54356352Y-147528513D01*
X54371592Y-147662497D01*
X54396993Y-147769812D01*
X54458429Y-147890542D01*
X54551298Y-147970790D01*
X54634059Y-148004127D01*
X54737564Y-148024130D01*
X54861813Y-148030798D01*
X55013974Y-148022463D01*
X55053997Y-148013653D01*
X56633463Y-148013653D01*
X56875398Y-148013653D01*
X56875398Y-147396432D01*
X57349743Y-148013653D01*
X57652638Y-148013653D01*
X57115428Y-147356427D01*
X57115428Y-147350712D01*
X57580248Y-146718252D01*
X57300213Y-146718252D01*
X56875398Y-147312612D01*
X56875398Y-146718252D01*
X56633463Y-146718252D01*
X56633463Y-148013653D01*
X55053997Y-148013653D01*
X55062656Y-148011747D01*
X55541898Y-148011747D01*
X56441058Y-148011747D01*
X56441058Y-147798387D01*
X55785738Y-147798387D01*
X55785738Y-146718252D01*
X55541898Y-146718252D01*
X55541898Y-148011747D01*
X55062656Y-148011747D01*
X55127560Y-147997460D01*
X55209237Y-147952216D01*
X55265673Y-147883160D01*
X55300915Y-147785291D01*
X55319013Y-147653607D01*
X55080888Y-147653607D01*
X55019928Y-147787910D01*
X54957539Y-147814342D01*
X54861813Y-147823153D01*
X54768944Y-147812913D01*
X54699888Y-147782195D01*
X54651072Y-147727188D01*
X54618925Y-147644083D01*
X54601066Y-147526449D01*
X54595113Y-147367857D01*
X54601066Y-147207361D01*
X54618925Y-147087822D01*
X54651072Y-147003288D01*
X54699888Y-146947805D01*
X54768944Y-146917087D01*
X54861813Y-146906847D01*
X54948490Y-146916372D01*
X55006593Y-146944947D01*
X55044216Y-146999716D01*
X55069458Y-147087822D01*
X55307583Y-147087822D01*
X55292819Y-146952806D01*
X55259958Y-146852555D01*
X55205189Y-146781594D01*
X55124703Y-146734445D01*
X55012308Y-146708013D01*
X54861813Y-146699202D01*
X54737564Y-146705870D01*
X54634059Y-146725872D01*
X54551298Y-146759210D01*
X54458429Y-146839934D01*
X54396993Y-146962092D01*
X54371592Y-147070677D01*
X54356352Y-147205932D01*
X54351272Y-147367857D01*
X54113147Y-147367857D01*
X54113147Y-146461077D01*
G37*
%TO.C,kibuzzard-67C66B36*%
G36*
X56332473Y-141399175D02*
G01*
X57890763Y-141399175D01*
X57890763Y-143170825D01*
X56332473Y-143170825D01*
X56332473Y-142932700D01*
X56570598Y-142932700D01*
X56812533Y-142932700D01*
X56905878Y-142622185D01*
X57317358Y-142622185D01*
X57410703Y-142932700D01*
X57652638Y-142932700D01*
X57265923Y-141637300D01*
X56957313Y-141637300D01*
X56570598Y-142932700D01*
X56332473Y-142932700D01*
X56332473Y-141399175D01*
G37*
G36*
X57260208Y-142418350D02*
G01*
X56963028Y-142418350D01*
X57109713Y-141873520D01*
X57113523Y-141873520D01*
X57260208Y-142418350D01*
G37*
D12*
%TO.C,U3*%
X81207500Y-119892500D02*
X91587500Y-119892500D01*
X85927500Y-114472500D02*
X85927500Y-113872500D01*
X82837500Y-118362500D02*
X89957500Y-118362500D01*
X82837500Y-119892500D02*
X82837500Y-118892500D01*
X89957500Y-118362500D02*
X90207500Y-118892500D01*
X86867500Y-114472500D02*
X88467500Y-114472500D01*
X82587500Y-118892500D02*
X90207500Y-118892500D01*
X81787500Y-114472500D02*
X83387500Y-114472500D01*
X80917500Y-114902500D02*
X80917500Y-118902500D01*
X89407500Y-114472500D02*
X91007500Y-114472500D01*
X84327500Y-113872500D02*
X84327500Y-114472500D01*
X88467500Y-114472500D02*
X88467500Y-113872500D01*
X86867500Y-113872500D02*
X86867500Y-114472500D01*
X91587500Y-113872500D02*
X81207500Y-113872500D01*
X91007500Y-114472500D02*
X91007500Y-113872500D01*
X81207500Y-113872500D02*
X81207500Y-119892500D01*
X89407500Y-113872500D02*
X89407500Y-114472500D01*
X82587500Y-118892500D02*
X82837500Y-118362500D01*
X82587500Y-119892500D02*
X82587500Y-118892500D01*
X91587500Y-119892500D02*
X91587500Y-113872500D01*
X90207500Y-118892500D02*
X90207500Y-119892500D01*
X83387500Y-114472500D02*
X83387500Y-113872500D01*
X81787500Y-113872500D02*
X81787500Y-114472500D01*
X84327500Y-114472500D02*
X85927500Y-114472500D01*
X89957500Y-119892500D02*
X89957500Y-118892500D01*
%TO.C,kibuzzard-67C66B74*%
G36*
X54217923Y-148802005D02*
G01*
X57890763Y-148802005D01*
X57890763Y-151007995D01*
X54217923Y-151007995D01*
X54217923Y-150769870D01*
X54456048Y-150769870D01*
X54684648Y-150769870D01*
X55034881Y-149884045D01*
X55553328Y-149884045D01*
X55558302Y-150044700D01*
X55573225Y-150178685D01*
X55598095Y-150286000D01*
X55658579Y-150406491D01*
X55750495Y-150486025D01*
X55832305Y-150518833D01*
X55934222Y-150538518D01*
X56056248Y-150545080D01*
X56178274Y-150538518D01*
X56233066Y-150527935D01*
X56810628Y-150527935D01*
X57652638Y-150527935D01*
X57652638Y-150318385D01*
X57054468Y-150318385D01*
X57054468Y-149960245D01*
X57538338Y-149960245D01*
X57538338Y-149750695D01*
X57054468Y-149750695D01*
X57054468Y-149442085D01*
X57614538Y-149442085D01*
X57614538Y-149232535D01*
X56810628Y-149232535D01*
X56810628Y-150527935D01*
X56233066Y-150527935D01*
X56280191Y-150518833D01*
X56362000Y-150486025D01*
X56453917Y-150406491D01*
X56514400Y-150286000D01*
X56539271Y-150178685D01*
X56554194Y-150044700D01*
X56559168Y-149884045D01*
X56554194Y-149721062D01*
X56539271Y-149585172D01*
X56514400Y-149476375D01*
X56453917Y-149354217D01*
X56362000Y-149273492D01*
X56280191Y-149240155D01*
X56178274Y-149220152D01*
X56056248Y-149213485D01*
X55934222Y-149220152D01*
X55832305Y-149240155D01*
X55750495Y-149273492D01*
X55658579Y-149354217D01*
X55598095Y-149476375D01*
X55573225Y-149585172D01*
X55558302Y-149721062D01*
X55553328Y-149884045D01*
X55034881Y-149884045D01*
X55368543Y-149040130D01*
X55138038Y-149040130D01*
X54456048Y-150769870D01*
X54217923Y-150769870D01*
X54217923Y-148802005D01*
G37*
G36*
X56147212Y-149433274D02*
G01*
X56214363Y-149463992D01*
X56261750Y-149519237D01*
X56293420Y-149603057D01*
X56311280Y-149722358D01*
X56317233Y-149884045D01*
X56311280Y-150040969D01*
X56293420Y-150157412D01*
X56261750Y-150239804D01*
X56214363Y-150294572D01*
X56147212Y-150325291D01*
X56056248Y-150335530D01*
X55965046Y-150325291D01*
X55897180Y-150294572D01*
X55849079Y-150239804D01*
X55817170Y-150157412D01*
X55799311Y-150040969D01*
X55793358Y-149884045D01*
X55799311Y-149723549D01*
X55817170Y-149604010D01*
X55849079Y-149519476D01*
X55897180Y-149463992D01*
X55965046Y-149433274D01*
X56056248Y-149423035D01*
X56147212Y-149433274D01*
G37*
%TO.C,U2*%
X73915000Y-160230000D02*
X73915000Y-127900000D01*
X50595000Y-160230000D02*
X73915000Y-160230000D01*
X48055000Y-153330000D02*
X48055000Y-127900000D01*
X50595000Y-153330000D02*
X50595000Y-160230000D01*
X48055000Y-153330000D02*
X50595000Y-153330000D01*
X71795000Y-125770000D02*
X50185000Y-125770000D01*
X50185000Y-125770000D02*
G75*
G03*
X48055000Y-127900000I2J-2130002D01*
G01*
X73915000Y-127900000D02*
G75*
G03*
X71785000Y-125770000I-2130000J0D01*
G01*
G36*
X51655000Y-134745000D02*
G01*
X51020000Y-134110000D01*
X51655000Y-133475000D01*
X51655000Y-134745000D01*
G37*
D10*
X51655000Y-134745000D02*
X51020000Y-134110000D01*
X51655000Y-133475000D01*
X51655000Y-134745000D01*
%TO.C,kibuzzard-67C66FDB*%
G36*
X67588098Y-139302564D02*
G01*
X67677632Y-139309707D01*
X67787408Y-139330424D01*
X67869085Y-139365905D01*
X67926949Y-139420674D01*
X67965288Y-139499255D01*
X67986719Y-139607126D01*
X67993863Y-139749762D01*
X67986481Y-139900496D01*
X67964335Y-140013605D01*
X67924568Y-140094806D01*
X67864323Y-140149812D01*
X67779074Y-140183150D01*
X67664298Y-140199342D01*
X67513803Y-140193627D01*
X67513803Y-139300182D01*
X67588098Y-139302564D01*
G37*
G36*
X64122267Y-139745000D02*
G01*
X64724882Y-138841077D01*
X68477733Y-138841077D01*
X68477733Y-140648923D01*
X64724882Y-140648923D01*
X64122902Y-139745952D01*
X64963007Y-139745952D01*
X64968405Y-139906713D01*
X64984597Y-140041016D01*
X65011585Y-140148860D01*
X65076593Y-140270304D01*
X65174462Y-140350790D01*
X65261457Y-140384127D01*
X65370042Y-140404130D01*
X65500217Y-140410798D01*
X65617375Y-140405559D01*
X65693141Y-140393653D01*
X66107912Y-140393653D01*
X66342228Y-140393653D01*
X66342228Y-139648797D01*
X66315557Y-139378287D01*
X66321273Y-139378287D01*
X66786092Y-140393653D01*
X67083272Y-140393653D01*
X67269963Y-140393653D01*
X67394634Y-140402119D01*
X67507029Y-140407199D01*
X67607148Y-140408892D01*
X67759759Y-140402331D01*
X67887394Y-140382646D01*
X67990053Y-140349837D01*
X68105781Y-140271018D01*
X68182458Y-140152670D01*
X68214207Y-140048001D01*
X68233257Y-139918143D01*
X68239607Y-139763097D01*
X68234104Y-139614825D01*
X68217594Y-139490047D01*
X68190078Y-139388765D01*
X68123164Y-139271369D01*
X68021485Y-139187787D01*
X67931209Y-139148417D01*
X67819132Y-139119207D01*
X67685253Y-139100157D01*
X67593813Y-139093014D01*
X67490943Y-139090632D01*
X67386168Y-139092537D01*
X67269963Y-139098252D01*
X67269963Y-140393653D01*
X67083272Y-140393653D01*
X67083272Y-139098252D01*
X66848958Y-139098252D01*
X66848958Y-139843107D01*
X66875628Y-140113618D01*
X66869912Y-140113618D01*
X66405092Y-139098252D01*
X66107912Y-139098252D01*
X66107912Y-140393653D01*
X65693141Y-140393653D01*
X65717387Y-140389843D01*
X65817876Y-140359362D01*
X65936462Y-140309832D01*
X65936462Y-139664037D01*
X65437352Y-139664037D01*
X65437352Y-139871682D01*
X65705957Y-139871682D01*
X65705957Y-140163147D01*
X65611660Y-140192675D01*
X65494502Y-140201248D01*
X65393299Y-140191246D01*
X65318290Y-140161242D01*
X65265188Y-140107188D01*
X65229707Y-140025035D01*
X65209705Y-139908592D01*
X65203037Y-139751667D01*
X65208991Y-139591171D01*
X65226850Y-139471632D01*
X65258997Y-139386860D01*
X65307812Y-139330662D01*
X65376869Y-139299230D01*
X65469737Y-139288752D01*
X65604040Y-139303992D01*
X65675477Y-139354475D01*
X65704052Y-139456392D01*
X65940272Y-139456392D01*
X65923366Y-139324947D01*
X65887885Y-139227792D01*
X65829544Y-139159212D01*
X65744057Y-139113492D01*
X65625471Y-139087775D01*
X65467832Y-139079202D01*
X65345807Y-139085870D01*
X65243889Y-139105872D01*
X65162080Y-139139210D01*
X65069926Y-139219696D01*
X65008727Y-139341140D01*
X64983327Y-139449196D01*
X64968087Y-139584133D01*
X64963007Y-139745952D01*
X64122902Y-139745952D01*
X64122267Y-139745000D01*
G37*
%TO.C,kibuzzard-67C642C7*%
G36*
X58207311Y-164231882D02*
G01*
X60592689Y-164231882D01*
X60592689Y-165868118D01*
X58207311Y-165868118D01*
X58207311Y-165578241D01*
X58425592Y-165578241D01*
X58507230Y-165612293D01*
X58584501Y-165634121D01*
X58667012Y-165645908D01*
X58764365Y-165649837D01*
X58920654Y-165640014D01*
X59040272Y-165610546D01*
X59127367Y-165558595D01*
X59186084Y-165481324D01*
X59219481Y-165374584D01*
X59230614Y-165234229D01*
X59222101Y-165120941D01*
X59196562Y-165032537D01*
X59151596Y-164965307D01*
X59084802Y-164915539D01*
X58992469Y-164880832D01*
X58870886Y-164858786D01*
X58760872Y-164851801D01*
X58684037Y-164855293D01*
X58701500Y-164638758D01*
X59179973Y-164635266D01*
X59179973Y-164450163D01*
X59394761Y-164450163D01*
X59747504Y-165637613D01*
X60021665Y-165637613D01*
X60374408Y-164450163D01*
X60147395Y-164450163D01*
X59888950Y-165375676D01*
X59880219Y-165375676D01*
X59621774Y-164450163D01*
X59394761Y-164450163D01*
X59179973Y-164450163D01*
X58507666Y-164450163D01*
X58455279Y-165070082D01*
X58574412Y-165054560D01*
X58673366Y-165045246D01*
X58752141Y-165042142D01*
X58846439Y-165047381D01*
X58925238Y-165064188D01*
X58976534Y-165097149D01*
X59004693Y-165150628D01*
X59014079Y-165228991D01*
X59000545Y-165338786D01*
X58959945Y-165409728D01*
X58884856Y-165448363D01*
X58767858Y-165461242D01*
X58689931Y-165455567D01*
X58613314Y-165438541D01*
X58528403Y-165407545D01*
X58425592Y-165359959D01*
X58425592Y-165578241D01*
X58207311Y-165578241D01*
X58207311Y-164231882D01*
G37*
D12*
%TO.C,J1*%
X40250000Y-156492500D02*
X41300000Y-156492500D01*
X41100000Y-165892500D02*
X39200000Y-165892500D01*
X26400000Y-165892500D02*
X26400000Y-156692500D01*
X41100000Y-163192500D02*
X41100000Y-165892500D01*
X41300000Y-157542500D02*
X41300000Y-156492500D01*
X26400000Y-156692500D02*
X41100000Y-156692500D01*
X41100000Y-156692500D02*
X41100000Y-159292500D01*
X35200000Y-165892500D02*
X26400000Y-165892500D01*
%TO.C,kibuzzard-67C684FA*%
G36*
X33028465Y-151961374D02*
G01*
X33120857Y-151965660D01*
X33240872Y-152004712D01*
X33273257Y-152121870D01*
X33241825Y-152269507D01*
X33124667Y-152310465D01*
X32878922Y-152310465D01*
X32878922Y-151961850D01*
X32960837Y-151959945D01*
X33028465Y-151961374D01*
G37*
G36*
X30808426Y-151966374D02*
G01*
X30894865Y-151979947D01*
X30996782Y-152039955D01*
X31027262Y-152159970D01*
X31000592Y-152285700D01*
X30909152Y-152348565D01*
X30831047Y-152362852D01*
X30726272Y-152367615D01*
X30606257Y-152367615D01*
X30606257Y-151961850D01*
X30691982Y-151961850D01*
X30808426Y-151966374D01*
G37*
G36*
X30124292Y-151510365D02*
G01*
X33825708Y-151510365D01*
X33825708Y-153289635D01*
X30124292Y-153289635D01*
X30124292Y-153051510D01*
X30362417Y-153051510D01*
X30606257Y-153051510D01*
X30606257Y-152579070D01*
X30745322Y-152579070D01*
X30872111Y-152574943D01*
X30978156Y-152562560D01*
X31063457Y-152541922D01*
X31159422Y-152492154D01*
X31222525Y-152417145D01*
X31257529Y-152310941D01*
X31269197Y-152167590D01*
X31255624Y-152022334D01*
X31214905Y-151914225D01*
X31141562Y-151837787D01*
X31030120Y-151787542D01*
X30930954Y-151766905D01*
X30823286Y-151756110D01*
X31373972Y-151756110D01*
X31528277Y-153051510D01*
X31779737Y-153051510D01*
X31928327Y-151923750D01*
X31935947Y-151923750D01*
X32082632Y-153051510D01*
X32335997Y-153051510D01*
X32636987Y-153051510D01*
X32878922Y-153051510D01*
X32878922Y-152521920D01*
X33000842Y-152521920D01*
X33101807Y-152529302D01*
X33168482Y-152551447D01*
X33237062Y-152664795D01*
X33326597Y-153051510D01*
X33587583Y-153051510D01*
X33478997Y-152647650D01*
X33446374Y-152551924D01*
X33409465Y-152489535D01*
X33290403Y-152430480D01*
X33290403Y-152413335D01*
X33425657Y-152370473D01*
X33493285Y-152284747D01*
X33513288Y-152131395D01*
X33501143Y-152000902D01*
X33464710Y-151902795D01*
X33399464Y-151832310D01*
X33300880Y-151784685D01*
X33213567Y-151764577D01*
X33105300Y-151752512D01*
X32976077Y-151748490D01*
X32863682Y-151750395D01*
X32636987Y-151758015D01*
X32636987Y-153051510D01*
X32335997Y-153051510D01*
X32490302Y-151756110D01*
X32280752Y-151756110D01*
X32204552Y-152775285D01*
X32202647Y-152775285D01*
X32187407Y-152539065D01*
X32069297Y-151756110D01*
X31794977Y-151756110D01*
X31673057Y-152539065D01*
X31659722Y-152775285D01*
X31657817Y-152775285D01*
X31583522Y-151756110D01*
X31373972Y-151756110D01*
X30823286Y-151756110D01*
X30807447Y-151754522D01*
X30659597Y-151750395D01*
X30362417Y-151756110D01*
X30362417Y-153051510D01*
X30124292Y-153051510D01*
X30124292Y-151510365D01*
G37*
%TO.C,TP2*%
X63150000Y-162875000D02*
G75*
G03*
X63150000Y-162875000I-700000J0D01*
G01*
%TO.C,kibuzzard-67C66FDB*%
G36*
X64122267Y-134665000D02*
G01*
X64724882Y-133761077D01*
X68477733Y-133761077D01*
X68477733Y-135568923D01*
X64724882Y-135568923D01*
X64122902Y-134665952D01*
X64963007Y-134665952D01*
X64968405Y-134826713D01*
X64984597Y-134961016D01*
X65011585Y-135068860D01*
X65076593Y-135190304D01*
X65174462Y-135270790D01*
X65261457Y-135304127D01*
X65370042Y-135324130D01*
X65500217Y-135330798D01*
X65617375Y-135325559D01*
X65693141Y-135313653D01*
X66107912Y-135313653D01*
X66342228Y-135313653D01*
X66342228Y-134568797D01*
X66315557Y-134298287D01*
X66321273Y-134298287D01*
X66786092Y-135313653D01*
X67083272Y-135313653D01*
X67269963Y-135313653D01*
X67394634Y-135322119D01*
X67507029Y-135327199D01*
X67607148Y-135328892D01*
X67759759Y-135322331D01*
X67887394Y-135302646D01*
X67990053Y-135269837D01*
X68105781Y-135191018D01*
X68182458Y-135072670D01*
X68214207Y-134968001D01*
X68233257Y-134838143D01*
X68239607Y-134683097D01*
X68234104Y-134534825D01*
X68217594Y-134410047D01*
X68190078Y-134308765D01*
X68123164Y-134191369D01*
X68021485Y-134107787D01*
X67931209Y-134068417D01*
X67819132Y-134039207D01*
X67685253Y-134020157D01*
X67593813Y-134013014D01*
X67490943Y-134010632D01*
X67386168Y-134012537D01*
X67269963Y-134018252D01*
X67269963Y-135313653D01*
X67083272Y-135313653D01*
X67083272Y-134018252D01*
X66848958Y-134018252D01*
X66848958Y-134763107D01*
X66875628Y-135033618D01*
X66869912Y-135033618D01*
X66405092Y-134018252D01*
X66107912Y-134018252D01*
X66107912Y-135313653D01*
X65693141Y-135313653D01*
X65717387Y-135309843D01*
X65817876Y-135279362D01*
X65936462Y-135229832D01*
X65936462Y-134584037D01*
X65437352Y-134584037D01*
X65437352Y-134791682D01*
X65705957Y-134791682D01*
X65705957Y-135083147D01*
X65611660Y-135112675D01*
X65494502Y-135121248D01*
X65393299Y-135111246D01*
X65318290Y-135081242D01*
X65265188Y-135027188D01*
X65229707Y-134945035D01*
X65209705Y-134828592D01*
X65203037Y-134671667D01*
X65208991Y-134511171D01*
X65226850Y-134391632D01*
X65258997Y-134306860D01*
X65307812Y-134250662D01*
X65376869Y-134219230D01*
X65469737Y-134208752D01*
X65604040Y-134223992D01*
X65675477Y-134274475D01*
X65704052Y-134376392D01*
X65940272Y-134376392D01*
X65923366Y-134244947D01*
X65887885Y-134147792D01*
X65829544Y-134079212D01*
X65744057Y-134033492D01*
X65625471Y-134007775D01*
X65467832Y-133999202D01*
X65345807Y-134005870D01*
X65243889Y-134025872D01*
X65162080Y-134059210D01*
X65069926Y-134139696D01*
X65008727Y-134261140D01*
X64983327Y-134369196D01*
X64968087Y-134504133D01*
X64963007Y-134665952D01*
X64122902Y-134665952D01*
X64122267Y-134665000D01*
G37*
G36*
X67588098Y-134222564D02*
G01*
X67677632Y-134229707D01*
X67787408Y-134250424D01*
X67869085Y-134285905D01*
X67926949Y-134340674D01*
X67965288Y-134419255D01*
X67986719Y-134527126D01*
X67993863Y-134669762D01*
X67986481Y-134820496D01*
X67964335Y-134933605D01*
X67924568Y-135014806D01*
X67864323Y-135069812D01*
X67779074Y-135103150D01*
X67664298Y-135119342D01*
X67513803Y-135113627D01*
X67513803Y-134220182D01*
X67588098Y-134222564D01*
G37*
%TO.C,kibuzzard-67C685CE*%
G36*
X30119212Y-153446077D02*
G01*
X33830788Y-153446077D01*
X33830788Y-155253923D01*
X30119212Y-155253923D01*
X30119212Y-154608127D01*
X30347177Y-154608127D01*
X30353845Y-154750050D01*
X30385277Y-154855777D01*
X30445047Y-154930549D01*
X30536725Y-154979603D01*
X30666979Y-155006749D01*
X30842478Y-155015798D01*
X31012737Y-155007701D01*
X31059662Y-154998653D01*
X31593048Y-154998653D01*
X32435058Y-154998653D01*
X32435058Y-154996747D01*
X32709378Y-154996747D01*
X33608538Y-154996747D01*
X33608538Y-154783387D01*
X32953218Y-154783387D01*
X32953218Y-153703252D01*
X32709378Y-153703252D01*
X32709378Y-154996747D01*
X32435058Y-154996747D01*
X32435058Y-154789102D01*
X31836888Y-154789102D01*
X31836888Y-154430962D01*
X32320758Y-154430962D01*
X32320758Y-154221412D01*
X31836888Y-154221412D01*
X31836888Y-153912802D01*
X32396958Y-153912802D01*
X32396958Y-153703252D01*
X31593048Y-153703252D01*
X31593048Y-154998653D01*
X31059662Y-154998653D01*
X31138705Y-154983412D01*
X31227526Y-154939597D01*
X31286343Y-154872922D01*
X31319204Y-154778625D01*
X31330158Y-154651942D01*
X31321109Y-154547882D01*
X31293963Y-154464300D01*
X31245623Y-154396434D01*
X31172995Y-154339522D01*
X31070363Y-154288564D01*
X30932012Y-154238557D01*
X30772231Y-154183551D01*
X30670075Y-154136640D01*
X30596733Y-154038532D01*
X30617687Y-153948997D01*
X30687220Y-153905182D01*
X30827238Y-153891847D01*
X30963445Y-153906135D01*
X31033930Y-153953760D01*
X31061553Y-154049962D01*
X31303488Y-154049962D01*
X31293963Y-153921851D01*
X31261578Y-153827077D01*
X31203713Y-153760402D01*
X31117750Y-153716587D01*
X30997021Y-153692299D01*
X30834858Y-153684202D01*
X30669361Y-153692061D01*
X30546250Y-153715635D01*
X30459096Y-153757783D01*
X30401470Y-153821362D01*
X30369323Y-153910897D01*
X30358607Y-154030912D01*
X30367656Y-154124734D01*
X30394802Y-154200457D01*
X30443618Y-154262608D01*
X30517675Y-154315710D01*
X30622688Y-154364049D01*
X30764372Y-154411912D01*
X30877482Y-154448822D01*
X30961540Y-154483350D01*
X31061553Y-154556692D01*
X31092033Y-154653847D01*
X31071078Y-154748145D01*
X30999640Y-154794817D01*
X30857718Y-154808153D01*
X30765087Y-154803866D01*
X30696745Y-154791007D01*
X30615782Y-154731000D01*
X30585302Y-154608127D01*
X30347177Y-154608127D01*
X30119212Y-154608127D01*
X30119212Y-153446077D01*
G37*
%TO.C,kibuzzard-67C66F98*%
G36*
X65946304Y-136763516D02*
G01*
X66038697Y-136767802D01*
X66158712Y-136806855D01*
X66191097Y-136924012D01*
X66159664Y-137071650D01*
X66042507Y-137112607D01*
X65796762Y-137112607D01*
X65796762Y-136763992D01*
X65878677Y-136762087D01*
X65946304Y-136763516D01*
G37*
G36*
X64122267Y-136301077D02*
G01*
X68964777Y-136301077D01*
X68964777Y-138108923D01*
X64122267Y-138108923D01*
X64122267Y-137205952D01*
X64360392Y-137205952D01*
X64365789Y-137366713D01*
X64381982Y-137501016D01*
X64408969Y-137608860D01*
X64473978Y-137730304D01*
X64571847Y-137810790D01*
X64658842Y-137844127D01*
X64767427Y-137864130D01*
X64897602Y-137870798D01*
X65014759Y-137865559D01*
X65090526Y-137853653D01*
X65554827Y-137853653D01*
X65796762Y-137853653D01*
X65796762Y-137324062D01*
X65918682Y-137324062D01*
X66019647Y-137331444D01*
X66086322Y-137353590D01*
X66154902Y-137466937D01*
X66244437Y-137853653D01*
X66505422Y-137853653D01*
X66648297Y-137853653D01*
X66882612Y-137853653D01*
X66882612Y-137108797D01*
X66855942Y-136838287D01*
X66861657Y-136838287D01*
X67326477Y-137853653D01*
X67623657Y-137853653D01*
X67623657Y-136920202D01*
X67806537Y-136920202D01*
X68050377Y-136920202D01*
X68077047Y-136814475D01*
X68142770Y-136761135D01*
X68267547Y-136744942D01*
X68391372Y-136760182D01*
X68453285Y-136810665D01*
X68471382Y-136912582D01*
X68458047Y-137000212D01*
X68408517Y-137072602D01*
X68322316Y-137153089D01*
X68212302Y-137245958D01*
X68143008Y-137301441D01*
X68057044Y-137368830D01*
X67954413Y-137448126D01*
X67835112Y-137539327D01*
X67835112Y-137853653D01*
X68726652Y-137853653D01*
X68726652Y-137640293D01*
X68080857Y-137640293D01*
X68080857Y-137623147D01*
X68193993Y-137542926D01*
X68289560Y-137472441D01*
X68367560Y-137411692D01*
X68470668Y-137323586D01*
X68572347Y-137226907D01*
X68639498Y-137150707D01*
X68680932Y-137082127D01*
X68702363Y-137008309D01*
X68709507Y-136916392D01*
X68699506Y-136784709D01*
X68669502Y-136686840D01*
X68615924Y-136617784D01*
X68535199Y-136572540D01*
X68420661Y-136547537D01*
X68265642Y-136539202D01*
X68111575Y-136547775D01*
X67996085Y-136573492D01*
X67913217Y-136619451D01*
X67857020Y-136688745D01*
X67822968Y-136787091D01*
X67806537Y-136920202D01*
X67623657Y-136920202D01*
X67623657Y-136558252D01*
X67389342Y-136558252D01*
X67389342Y-137303107D01*
X67416012Y-137573618D01*
X67410297Y-137573618D01*
X66945477Y-136558252D01*
X66648297Y-136558252D01*
X66648297Y-137853653D01*
X66505422Y-137853653D01*
X66396837Y-137449792D01*
X66364214Y-137354066D01*
X66327304Y-137291678D01*
X66208242Y-137232623D01*
X66208242Y-137215477D01*
X66343497Y-137172615D01*
X66411124Y-137086890D01*
X66431127Y-136933537D01*
X66418983Y-136803045D01*
X66382549Y-136704937D01*
X66317303Y-136634452D01*
X66218719Y-136586827D01*
X66131407Y-136566719D01*
X66023139Y-136554654D01*
X65893917Y-136550632D01*
X65781522Y-136552537D01*
X65554827Y-136560157D01*
X65554827Y-137853653D01*
X65090526Y-137853653D01*
X65114772Y-137849843D01*
X65215261Y-137819362D01*
X65333847Y-137769832D01*
X65333847Y-137124037D01*
X64834737Y-137124037D01*
X64834737Y-137331682D01*
X65103342Y-137331682D01*
X65103342Y-137623147D01*
X65009044Y-137652675D01*
X64891887Y-137661248D01*
X64790684Y-137651246D01*
X64715674Y-137621242D01*
X64662573Y-137567188D01*
X64627092Y-137485035D01*
X64607089Y-137368592D01*
X64600422Y-137211667D01*
X64606375Y-137051171D01*
X64624234Y-136931632D01*
X64656381Y-136846860D01*
X64705197Y-136790662D01*
X64774253Y-136759230D01*
X64867122Y-136748752D01*
X65001424Y-136763992D01*
X65072862Y-136814475D01*
X65101437Y-136916392D01*
X65337657Y-136916392D01*
X65320750Y-136784947D01*
X65285269Y-136687792D01*
X65226929Y-136619212D01*
X65141442Y-136573492D01*
X65022856Y-136547775D01*
X64865217Y-136539202D01*
X64743191Y-136545870D01*
X64641274Y-136565872D01*
X64559464Y-136599210D01*
X64467310Y-136679696D01*
X64406112Y-136801140D01*
X64380712Y-136909196D01*
X64365472Y-137044133D01*
X64360392Y-137205952D01*
X64122267Y-137205952D01*
X64122267Y-136301077D01*
G37*
%TO.C,kibuzzard-67C67223*%
G36*
X89619369Y-112196731D02*
G01*
X90830631Y-112196731D01*
X90830631Y-113703269D01*
X89619369Y-113703269D01*
X89619369Y-112950794D01*
X89817806Y-112950794D01*
X89822304Y-113084761D01*
X89835798Y-113196680D01*
X89858287Y-113286550D01*
X89912461Y-113387753D01*
X89994019Y-113454825D01*
X90066515Y-113482606D01*
X90157002Y-113499275D01*
X90265481Y-113504831D01*
X90363112Y-113500466D01*
X90446456Y-113487369D01*
X90530197Y-113461969D01*
X90629019Y-113420694D01*
X90629019Y-112882531D01*
X90213094Y-112882531D01*
X90213094Y-113055569D01*
X90436931Y-113055569D01*
X90436931Y-113298456D01*
X90358350Y-113323062D01*
X90260719Y-113330206D01*
X90176383Y-113321872D01*
X90113875Y-113296869D01*
X90069623Y-113251823D01*
X90040056Y-113183363D01*
X90023387Y-113086327D01*
X90017831Y-112955556D01*
X90022792Y-112821809D01*
X90037675Y-112722194D01*
X90064464Y-112651550D01*
X90105144Y-112604719D01*
X90162691Y-112578525D01*
X90240081Y-112569794D01*
X90352000Y-112582494D01*
X90411531Y-112624562D01*
X90435344Y-112709494D01*
X90632194Y-112709494D01*
X90618105Y-112599956D01*
X90588538Y-112518994D01*
X90539920Y-112461844D01*
X90468681Y-112423744D01*
X90369859Y-112402312D01*
X90238494Y-112395169D01*
X90136806Y-112400725D01*
X90051874Y-112417394D01*
X89983700Y-112445175D01*
X89906905Y-112512247D01*
X89855906Y-112613450D01*
X89834740Y-112703497D01*
X89822040Y-112815944D01*
X89817806Y-112950794D01*
X89619369Y-112950794D01*
X89619369Y-112196731D01*
G37*
%TO.C,kibuzzard-6514EFEE*%
G36*
X88994369Y-167180321D02*
G01*
X90205631Y-167180321D01*
X90205631Y-168686859D01*
X88994369Y-168686859D01*
X88994369Y-167934384D01*
X89192806Y-167934384D01*
X89197304Y-168068351D01*
X89210798Y-168180270D01*
X89233287Y-168270140D01*
X89287461Y-168371343D01*
X89369019Y-168438415D01*
X89441515Y-168466196D01*
X89532002Y-168482865D01*
X89640481Y-168488421D01*
X89738112Y-168484056D01*
X89821456Y-168470959D01*
X89905197Y-168445559D01*
X90004019Y-168404284D01*
X90004019Y-167866121D01*
X89588094Y-167866121D01*
X89588094Y-168039159D01*
X89811931Y-168039159D01*
X89811931Y-168282046D01*
X89733350Y-168306652D01*
X89635719Y-168313796D01*
X89551383Y-168305462D01*
X89488875Y-168280459D01*
X89444623Y-168235413D01*
X89415056Y-168166953D01*
X89398387Y-168069917D01*
X89392831Y-167939146D01*
X89397792Y-167805399D01*
X89412675Y-167705784D01*
X89439464Y-167635140D01*
X89480144Y-167588309D01*
X89537691Y-167562115D01*
X89615081Y-167553384D01*
X89727000Y-167566084D01*
X89786531Y-167608152D01*
X89810344Y-167693084D01*
X90007194Y-167693084D01*
X89993105Y-167583546D01*
X89963538Y-167502584D01*
X89914920Y-167445434D01*
X89843681Y-167407334D01*
X89744859Y-167385902D01*
X89613494Y-167378759D01*
X89511806Y-167384315D01*
X89426874Y-167400984D01*
X89358700Y-167428765D01*
X89281905Y-167495837D01*
X89230906Y-167597040D01*
X89209740Y-167687087D01*
X89197040Y-167799534D01*
X89192806Y-167934384D01*
X88994369Y-167934384D01*
X88994369Y-167180321D01*
G37*
%TO.C,kibuzzard-67C66B28*%
G36*
X53936935Y-139845965D02*
G01*
X54009325Y-139902162D01*
X54031233Y-140016463D01*
X54004563Y-140127905D01*
X53915980Y-140183150D01*
X53840495Y-140195294D01*
X53737863Y-140199342D01*
X53658329Y-140198390D01*
X53572128Y-140195533D01*
X53572128Y-139829772D01*
X53791203Y-139829772D01*
X53936935Y-139845965D01*
G37*
G36*
X53793108Y-139302087D02*
G01*
X53884310Y-139317804D01*
X53940745Y-139345902D01*
X53979798Y-139465917D01*
X53950270Y-139584980D01*
X53838828Y-139620222D01*
X53572128Y-139620222D01*
X53572128Y-139296372D01*
X53634993Y-139296372D01*
X53793108Y-139302087D01*
G37*
G36*
X53093973Y-138841077D02*
G01*
X57890763Y-138841077D01*
X57890763Y-140648923D01*
X53093973Y-140648923D01*
X53093973Y-140389843D01*
X53332098Y-140389843D01*
X53465025Y-140400426D01*
X53589485Y-140406776D01*
X53705478Y-140408892D01*
X53843802Y-140405188D01*
X53959055Y-140394076D01*
X53970647Y-140391747D01*
X54503673Y-140391747D01*
X55402833Y-140391747D01*
X55402833Y-140178387D01*
X54747513Y-140178387D01*
X54747513Y-139972647D01*
X55589523Y-139972647D01*
X55600477Y-140124571D01*
X55633338Y-140237442D01*
X55691917Y-140317452D01*
X55780023Y-140370792D01*
X55904324Y-140400796D01*
X56071488Y-140410798D01*
X56231984Y-140400796D01*
X56351523Y-140370792D01*
X56436295Y-140317452D01*
X56492493Y-140237442D01*
X56523925Y-140124095D01*
X56534403Y-139970742D01*
X56534403Y-139460202D01*
X56732523Y-139460202D01*
X56976363Y-139460202D01*
X57003033Y-139354475D01*
X57068756Y-139301135D01*
X57193533Y-139284942D01*
X57317358Y-139300182D01*
X57379271Y-139350665D01*
X57397368Y-139452582D01*
X57384033Y-139540212D01*
X57334503Y-139612602D01*
X57248302Y-139693089D01*
X57138288Y-139785958D01*
X57068994Y-139841441D01*
X56983030Y-139908830D01*
X56880399Y-139988126D01*
X56761098Y-140079327D01*
X56761098Y-140393653D01*
X57652638Y-140393653D01*
X57652638Y-140180293D01*
X57006843Y-140180293D01*
X57006843Y-140163147D01*
X57119979Y-140082926D01*
X57215546Y-140012441D01*
X57293546Y-139951692D01*
X57396654Y-139863586D01*
X57498333Y-139766907D01*
X57565484Y-139690707D01*
X57606918Y-139622127D01*
X57628349Y-139548309D01*
X57635493Y-139456392D01*
X57625492Y-139324709D01*
X57595488Y-139226840D01*
X57541910Y-139157784D01*
X57461185Y-139112540D01*
X57346647Y-139087537D01*
X57191628Y-139079202D01*
X57037561Y-139087775D01*
X56922071Y-139113492D01*
X56839203Y-139159451D01*
X56783005Y-139228745D01*
X56748954Y-139327091D01*
X56732523Y-139460202D01*
X56534403Y-139460202D01*
X56534403Y-139098252D01*
X56290563Y-139098252D01*
X56290563Y-139965028D01*
X56270560Y-140105998D01*
X56203885Y-140176482D01*
X56071488Y-140197437D01*
X55927660Y-140176482D01*
X55855270Y-140105045D01*
X55833363Y-139963122D01*
X55833363Y-139098252D01*
X55589523Y-139098252D01*
X55589523Y-139972647D01*
X54747513Y-139972647D01*
X54747513Y-139098252D01*
X54503673Y-139098252D01*
X54503673Y-140391747D01*
X53970647Y-140391747D01*
X54051235Y-140375555D01*
X54154820Y-140330549D01*
X54223638Y-140262208D01*
X54262214Y-140165052D01*
X54275073Y-140033607D01*
X54270072Y-139939786D01*
X54255070Y-139867872D01*
X54186490Y-139772623D01*
X54048378Y-139723092D01*
X54048378Y-139711662D01*
X54130531Y-139681659D01*
X54182680Y-139633557D01*
X54210541Y-139558786D01*
X54219828Y-139448772D01*
X54206731Y-139323757D01*
X54167440Y-139230650D01*
X54097194Y-139164689D01*
X53991228Y-139121112D01*
X53897036Y-139103121D01*
X53779561Y-139092326D01*
X53645804Y-139088906D01*
X53332098Y-139094442D01*
X53332098Y-140389843D01*
X53093973Y-140389843D01*
X53093973Y-138841077D01*
G37*
%TO.C,kibuzzard-67C67309*%
G36*
X59255536Y-168369866D02*
G01*
X59241050Y-168429794D01*
X59179931Y-168499644D01*
X59057694Y-168520281D01*
X58952125Y-168498056D01*
X58924344Y-168415506D01*
X58940219Y-168340100D01*
X58994987Y-168302794D01*
X59105319Y-168290094D01*
X59262481Y-168288506D01*
X59255536Y-168369866D01*
G37*
G36*
X57411456Y-168059112D02*
G01*
X57432887Y-168094831D01*
X57436856Y-168212306D01*
X57432887Y-168323431D01*
X57411456Y-168357562D01*
X57340019Y-168364706D01*
X57264612Y-168357562D01*
X57233656Y-168318669D01*
X57224131Y-168209131D01*
X57233656Y-168098800D01*
X57264612Y-168059112D01*
X57340019Y-168051969D01*
X57411456Y-168059112D01*
G37*
G36*
X64018036Y-168369866D02*
G01*
X64003550Y-168429794D01*
X63942431Y-168499644D01*
X63820194Y-168520281D01*
X63714625Y-168498056D01*
X63686844Y-168415506D01*
X63702719Y-168340100D01*
X63757488Y-168302794D01*
X63867819Y-168290094D01*
X64024981Y-168288506D01*
X64018036Y-168369866D01*
G37*
G36*
X64948113Y-167994025D02*
G01*
X65010025Y-168077369D01*
X65023717Y-168148409D01*
X65028281Y-168244056D01*
X65023717Y-168340894D01*
X65010025Y-168412331D01*
X64948113Y-168495675D01*
X64823494Y-168520281D01*
X64710781Y-168495675D01*
X64654425Y-168411538D01*
X64641923Y-168339902D01*
X64637756Y-168244056D01*
X64641923Y-168148409D01*
X64654425Y-168077369D01*
X64710781Y-167994025D01*
X64823494Y-167969419D01*
X64948113Y-167994025D01*
G37*
G36*
X56578019Y-167316956D02*
G01*
X65421981Y-167316956D01*
X65421981Y-169033044D01*
X56578019Y-169033044D01*
X56578019Y-168552031D01*
X56776456Y-168552031D01*
X56782211Y-168654822D01*
X56799475Y-168728244D01*
X56882025Y-168810794D01*
X56957233Y-168828653D01*
X57063794Y-168834606D01*
X57405106Y-168834606D01*
X57405106Y-168669506D01*
X57060619Y-168669506D01*
X56983625Y-168662362D01*
X56956637Y-168632994D01*
X56951081Y-168548856D01*
X56951081Y-167856706D01*
X56957431Y-167760662D01*
X56986006Y-167726531D01*
X57065381Y-167718594D01*
X57382881Y-167718594D01*
X57424156Y-167726531D01*
X57439237Y-167762250D01*
X57443206Y-167861469D01*
X57443206Y-167956719D01*
X57432094Y-167956719D01*
X57372562Y-167902744D01*
X57319381Y-167893219D01*
X57211828Y-167896989D01*
X57143169Y-167908300D01*
X57074906Y-167986881D01*
X57060619Y-168073797D01*
X57055856Y-168207544D01*
X57060817Y-168342481D01*
X57075700Y-168429794D01*
X57145550Y-168508375D01*
X57215598Y-168519686D01*
X57325731Y-168523456D01*
X57387644Y-168520281D01*
X57418600Y-168505200D01*
X57449556Y-168463131D01*
X57462256Y-168463131D01*
X57487656Y-168520281D01*
X57603544Y-168520281D01*
X57604017Y-168345656D01*
X57740069Y-168345656D01*
X57745625Y-168463925D01*
X57771819Y-168552031D01*
X57821627Y-168614341D01*
X57898025Y-168655219D01*
X58006570Y-168677841D01*
X58152819Y-168685381D01*
X58294702Y-168678634D01*
X58399675Y-168658394D01*
X58473692Y-168621881D01*
X58522706Y-168566319D01*
X58550091Y-168487737D01*
X58555101Y-168429794D01*
X58730669Y-168429794D01*
X58737217Y-168518495D01*
X58756862Y-168584575D01*
X58845762Y-168662362D01*
X58921764Y-168679627D01*
X59024356Y-168685381D01*
X59103334Y-168679428D01*
X59162469Y-168661569D01*
X59210491Y-168627438D01*
X59256131Y-168572669D01*
X59268831Y-168572669D01*
X59268831Y-168671094D01*
X59449806Y-168671094D01*
X59610144Y-168671094D01*
X59794294Y-168671094D01*
X59794294Y-168202781D01*
X59801437Y-168075781D01*
X59826837Y-168012281D01*
X59878431Y-167993231D01*
X59946694Y-168032125D01*
X59961775Y-168086695D01*
X59965744Y-168172619D01*
X59962569Y-168671094D01*
X60146719Y-168671094D01*
X60146719Y-168194844D01*
X60154656Y-168072606D01*
X60180850Y-168011488D01*
X60232444Y-167993231D01*
X60295944Y-168030537D01*
X60309041Y-168084711D01*
X60313406Y-168172619D01*
X60313406Y-168671094D01*
X60497556Y-168671094D01*
X60673769Y-168671094D01*
X61405606Y-168671094D01*
X61405606Y-168507581D01*
X61140494Y-168507581D01*
X61140494Y-168398044D01*
X61583406Y-168398044D01*
X61589359Y-168498056D01*
X61613569Y-168572669D01*
X61659011Y-168625453D01*
X61728662Y-168659981D01*
X61828080Y-168679031D01*
X61962819Y-168685381D01*
X62092398Y-168679825D01*
X62152223Y-168669506D01*
X62566069Y-168669506D01*
X63315369Y-168669506D01*
X63315369Y-168491706D01*
X62769269Y-168491706D01*
X62769269Y-168429794D01*
X63493169Y-168429794D01*
X63499717Y-168518495D01*
X63519363Y-168584575D01*
X63608263Y-168662362D01*
X63684264Y-168679627D01*
X63786856Y-168685381D01*
X63865834Y-168679428D01*
X63924969Y-168661569D01*
X63972991Y-168627438D01*
X64018631Y-168572669D01*
X64031331Y-168572669D01*
X64031331Y-168671094D01*
X64212306Y-168671094D01*
X64448844Y-168671094D01*
X64640931Y-168671094D01*
X64640931Y-168583781D01*
X64653631Y-168583781D01*
X64752850Y-168665538D01*
X64877469Y-168686969D01*
X64998317Y-168677047D01*
X65087813Y-168647281D01*
X65150916Y-168593902D01*
X65192588Y-168513138D01*
X65209785Y-168441259D01*
X65220104Y-168351565D01*
X65223544Y-168244056D01*
X65220104Y-168137429D01*
X65209785Y-168048265D01*
X65192588Y-167976562D01*
X65150916Y-167895798D01*
X65087813Y-167842419D01*
X64998317Y-167812653D01*
X64877469Y-167802731D01*
X64801269Y-167808287D01*
X64744119Y-167824956D01*
X64653631Y-167905919D01*
X64640931Y-167905919D01*
X64642519Y-167515394D01*
X64450431Y-167515394D01*
X64448844Y-168671094D01*
X64212306Y-168671094D01*
X64212306Y-168120231D01*
X64204369Y-168016250D01*
X64180556Y-167939256D01*
X64137892Y-167884884D01*
X64073400Y-167848769D01*
X63982317Y-167828528D01*
X63859881Y-167821781D01*
X63737842Y-167827933D01*
X63647950Y-167846387D01*
X63585244Y-167879328D01*
X63544763Y-167928937D01*
X63523927Y-167999383D01*
X63520156Y-168094831D01*
X63713831Y-168094831D01*
X63741613Y-168006725D01*
X63859881Y-167983706D01*
X63941241Y-167990850D01*
X63991644Y-168012281D01*
X64026569Y-168120231D01*
X64026569Y-168129756D01*
X63901156Y-168129756D01*
X63759075Y-168136503D01*
X63653506Y-168156744D01*
X63578894Y-168193058D01*
X63529681Y-168248025D01*
X63502297Y-168325614D01*
X63493169Y-168429794D01*
X62769269Y-168429794D01*
X62769269Y-167591594D01*
X62566069Y-167591594D01*
X62566069Y-168669506D01*
X62152223Y-168669506D01*
X62189038Y-168663156D01*
X62257498Y-168632994D01*
X62302544Y-168586956D01*
X62327547Y-168521869D01*
X62335881Y-168434556D01*
X62328936Y-168363912D01*
X62308100Y-168307556D01*
X62215231Y-168225800D01*
X62136650Y-168194645D01*
X62031081Y-168166269D01*
X61910233Y-168136305D01*
X61836612Y-168113088D01*
X61786606Y-168067844D01*
X61823119Y-168002756D01*
X61875109Y-167989659D01*
X61958056Y-167985294D01*
X62037233Y-167990255D01*
X62087437Y-168005138D01*
X62126331Y-168078956D01*
X62316831Y-168078956D01*
X62307703Y-167989064D01*
X62283494Y-167922587D01*
X62240631Y-167875756D01*
X62175544Y-167844800D01*
X62083469Y-167827536D01*
X61959644Y-167821781D01*
X61832842Y-167827337D01*
X61738187Y-167844006D01*
X61671116Y-167873573D01*
X61627062Y-167917825D01*
X61602655Y-167980730D01*
X61594519Y-168066256D01*
X61623887Y-168186112D01*
X61722312Y-168260725D01*
X61805855Y-168288705D01*
X61918369Y-168313906D01*
X61995759Y-168329781D01*
X62053306Y-168345656D01*
X62120775Y-168382962D01*
X62140619Y-168436144D01*
X62105694Y-168503613D01*
X62056084Y-168517305D01*
X61977106Y-168521869D01*
X61857250Y-168510756D01*
X61797719Y-168473450D01*
X61778669Y-168398044D01*
X61583406Y-168398044D01*
X61140494Y-168398044D01*
X61140494Y-167842419D01*
X60689644Y-167842419D01*
X60689644Y-168005931D01*
X60949994Y-168005931D01*
X60949994Y-168507581D01*
X60673769Y-168507581D01*
X60673769Y-168671094D01*
X60497556Y-168671094D01*
X60497556Y-168144044D01*
X60492992Y-168031728D01*
X60479300Y-167948781D01*
X60417387Y-167851150D01*
X60294356Y-167821781D01*
X60187200Y-167847181D01*
X60130844Y-167944019D01*
X60129256Y-167944019D01*
X60068931Y-167849562D01*
X59953044Y-167821781D01*
X59866525Y-167847181D01*
X59802231Y-167944019D01*
X59789531Y-167944019D01*
X59789531Y-167842419D01*
X59610144Y-167842419D01*
X59610144Y-168671094D01*
X59449806Y-168671094D01*
X59449806Y-168120231D01*
X59441869Y-168016250D01*
X59418056Y-167939256D01*
X59375392Y-167884884D01*
X59310900Y-167848769D01*
X59219817Y-167828528D01*
X59097381Y-167821781D01*
X58975342Y-167827933D01*
X58885450Y-167846387D01*
X58822744Y-167879328D01*
X58782262Y-167928937D01*
X58761427Y-167999383D01*
X58757656Y-168094831D01*
X58951331Y-168094831D01*
X58979112Y-168006725D01*
X59097381Y-167983706D01*
X59178741Y-167990850D01*
X59229144Y-168012281D01*
X59264069Y-168120231D01*
X59264069Y-168129756D01*
X59138656Y-168129756D01*
X58996575Y-168136503D01*
X58891006Y-168156744D01*
X58816394Y-168193058D01*
X58767181Y-168248025D01*
X58739797Y-168325614D01*
X58730669Y-168429794D01*
X58555101Y-168429794D01*
X58559219Y-168382169D01*
X58551678Y-168295452D01*
X58529056Y-168225800D01*
X58488773Y-168169245D01*
X58428250Y-168121819D01*
X58342723Y-168079353D01*
X58227431Y-168037681D01*
X58094280Y-167991842D01*
X58009150Y-167952750D01*
X57948031Y-167870994D01*
X57965494Y-167796381D01*
X58023437Y-167759869D01*
X58140119Y-167748756D01*
X58253625Y-167760662D01*
X58312362Y-167800350D01*
X58335381Y-167880519D01*
X58536994Y-167880519D01*
X58529056Y-167773759D01*
X58517258Y-167739231D01*
X60903956Y-167739231D01*
X61146844Y-167739231D01*
X61146844Y-167515394D01*
X60903956Y-167515394D01*
X60903956Y-167739231D01*
X58517258Y-167739231D01*
X58502069Y-167694781D01*
X58453848Y-167639219D01*
X58382212Y-167602706D01*
X58281605Y-167582466D01*
X58146469Y-167575719D01*
X58008555Y-167582267D01*
X57905962Y-167601912D01*
X57833334Y-167637036D01*
X57785312Y-167690019D01*
X57758523Y-167764631D01*
X57749594Y-167864644D01*
X57757134Y-167942828D01*
X57779756Y-168005931D01*
X57820436Y-168057723D01*
X57882150Y-168101975D01*
X57969661Y-168142258D01*
X58087731Y-168182144D01*
X58181989Y-168212902D01*
X58252037Y-168241675D01*
X58335381Y-168302794D01*
X58360781Y-168383756D01*
X58343319Y-168462338D01*
X58283787Y-168501231D01*
X58165519Y-168512344D01*
X58088327Y-168508772D01*
X58031375Y-168498056D01*
X57963906Y-168448050D01*
X57938506Y-168345656D01*
X57740069Y-168345656D01*
X57604017Y-168345656D01*
X57605131Y-167934494D01*
X57605131Y-167861469D01*
X57600567Y-167749947D01*
X57586875Y-167669381D01*
X57521787Y-167578100D01*
X57463645Y-167558455D01*
X57382881Y-167551906D01*
X57066969Y-167551906D01*
X56959019Y-167558455D01*
X56882819Y-167578100D01*
X56831820Y-167613620D01*
X56799475Y-167667794D01*
X56782211Y-167747566D01*
X56776456Y-167859881D01*
X56776456Y-168552031D01*
X56578019Y-168552031D01*
X56578019Y-167316956D01*
G37*
D13*
%TO.C,Q1*%
X39250000Y-130500000D02*
X38950000Y-130500000D01*
X39250000Y-130500000D02*
X39400000Y-130200000D01*
X34550000Y-130500000D02*
X34400000Y-130200000D01*
X34850000Y-130500000D02*
X34550000Y-130500000D01*
D10*
X38850000Y-127350000D02*
G75*
G03*
X35000000Y-127300000I-1950000J-1900000D01*
G01*
%TO.C,kibuzzard-6514EA0E*%
G36*
X84600000Y-167180321D02*
G01*
X85220712Y-167594129D01*
X85220712Y-167792567D01*
X85220713Y-167792567D01*
X85220713Y-168819679D01*
X83979287Y-168819679D01*
X83979287Y-168300567D01*
X84177725Y-168300567D01*
X84520625Y-168300567D01*
X84520625Y-168621242D01*
X84688900Y-168621242D01*
X84688900Y-168300567D01*
X85022275Y-168300567D01*
X85022275Y-168113242D01*
X84688900Y-168113242D01*
X84688900Y-167792567D01*
X84520625Y-167792567D01*
X84520625Y-168113242D01*
X84177725Y-168113242D01*
X84177725Y-168300567D01*
X83979287Y-168300567D01*
X83979287Y-167594129D01*
X84600000Y-167180321D01*
G37*
D12*
%TO.C,J2*%
X91254000Y-160712000D02*
X90859000Y-161108000D01*
X83052000Y-163381000D02*
X82946000Y-163488000D01*
X82040000Y-165600000D02*
X92160000Y-165600000D01*
X82040000Y-166700000D02*
X92160000Y-166700000D01*
X81800000Y-167400000D02*
X82200000Y-167400000D01*
X82040000Y-158040000D02*
X92160000Y-158040000D01*
X83318000Y-163647000D02*
X83212000Y-163754000D01*
X86254000Y-160712000D02*
X86147000Y-160819000D01*
X82040000Y-167160000D02*
X92160000Y-167160000D01*
X92160000Y-158040000D02*
X92160000Y-167160000D01*
X88593000Y-163374000D02*
X88213000Y-163754000D01*
X88342000Y-163092000D02*
X87947000Y-163488000D01*
X82040000Y-158040000D02*
X82040000Y-167160000D01*
X85988000Y-160446000D02*
X85881000Y-160553000D01*
X81800000Y-166760000D02*
X81800000Y-167400000D01*
X90988000Y-160446000D02*
X90608000Y-160826000D01*
X86780000Y-162100000D02*
G75*
G03*
X86780000Y-162100000I-2180000J0D01*
G01*
X91780000Y-162100000D02*
G75*
G03*
X91780000Y-162100000I-2180000J0D01*
G01*
%TO.C,kibuzzard-6514EA0E*%
G36*
X42380321Y-161300000D02*
G01*
X42794129Y-160679288D01*
X42992567Y-160679288D01*
X42992567Y-160679287D01*
X44019679Y-160679287D01*
X44019679Y-161920713D01*
X42794129Y-161920713D01*
X42433238Y-161379375D01*
X42992567Y-161379375D01*
X43313242Y-161379375D01*
X43313242Y-161722275D01*
X43500567Y-161722275D01*
X43500567Y-161379375D01*
X43821242Y-161379375D01*
X43821242Y-161211100D01*
X43500567Y-161211100D01*
X43500567Y-160877725D01*
X43313242Y-160877725D01*
X43313242Y-161211100D01*
X42992567Y-161211100D01*
X42992567Y-161379375D01*
X42433238Y-161379375D01*
X42380321Y-161300000D01*
G37*
%TO.C,kibuzzard-67C66FBF*%
G36*
X64678527Y-144377801D02*
G01*
X64768062Y-144384945D01*
X64877838Y-144405662D01*
X64959515Y-144441142D01*
X65017379Y-144495911D01*
X65055718Y-144574492D01*
X65077149Y-144682363D01*
X65084292Y-144825000D01*
X65076911Y-144975733D01*
X65054765Y-145088843D01*
X65014998Y-145170043D01*
X64954753Y-145225050D01*
X64869504Y-145258387D01*
X64754727Y-145274580D01*
X64604232Y-145268865D01*
X64604232Y-144375420D01*
X64678527Y-144377801D01*
G37*
G36*
X64122267Y-143927745D02*
G01*
X65568163Y-143927745D01*
X65568163Y-145722255D01*
X64122267Y-145722255D01*
X64122267Y-145468890D01*
X64360392Y-145468890D01*
X64485064Y-145477357D01*
X64597459Y-145482437D01*
X64697577Y-145484130D01*
X64850189Y-145477568D01*
X64977824Y-145457883D01*
X65080482Y-145425075D01*
X65196211Y-145346256D01*
X65272887Y-145227907D01*
X65304637Y-145123238D01*
X65323687Y-144993381D01*
X65330038Y-144838335D01*
X65324534Y-144690063D01*
X65308024Y-144565285D01*
X65280507Y-144464002D01*
X65213594Y-144346607D01*
X65111915Y-144263025D01*
X65021639Y-144223655D01*
X64909562Y-144194445D01*
X64775682Y-144175395D01*
X64684242Y-144168251D01*
X64581372Y-144165870D01*
X64476597Y-144167775D01*
X64360392Y-144173490D01*
X64360392Y-145468890D01*
X64122267Y-145468890D01*
X64122267Y-143927745D01*
G37*
%TO.C,kibuzzard-67C64864*%
G36*
X33572887Y-138484478D02*
G01*
X33649881Y-138488050D01*
X33749894Y-138520594D01*
X33776881Y-138618225D01*
X33750688Y-138741256D01*
X33653056Y-138775387D01*
X33448269Y-138775387D01*
X33448269Y-138484875D01*
X33516531Y-138483287D01*
X33572887Y-138484478D01*
G37*
G36*
X31722855Y-138488645D02*
G01*
X31794887Y-138499956D01*
X31879819Y-138549963D01*
X31905219Y-138649975D01*
X31882994Y-138754750D01*
X31806794Y-138807138D01*
X31741706Y-138819044D01*
X31654394Y-138823013D01*
X31554381Y-138823013D01*
X31554381Y-138484875D01*
X31625819Y-138484875D01*
X31722855Y-138488645D01*
G37*
G36*
X31086598Y-138042492D02*
G01*
X34303402Y-138042492D01*
X34303402Y-139657508D01*
X31086598Y-139657508D01*
X31086598Y-139392925D01*
X31351181Y-139392925D01*
X31554381Y-139392925D01*
X31554381Y-138999225D01*
X31670269Y-138999225D01*
X31775926Y-138995785D01*
X31864297Y-138985467D01*
X31935381Y-138968269D01*
X32015352Y-138926795D01*
X32067937Y-138864287D01*
X32097108Y-138775784D01*
X32106831Y-138656325D01*
X32095520Y-138535278D01*
X32061587Y-138445187D01*
X32000469Y-138381489D01*
X31907600Y-138339619D01*
X31824962Y-138322421D01*
X31735235Y-138313425D01*
X32194144Y-138313425D01*
X32322731Y-139392925D01*
X32532281Y-139392925D01*
X32656106Y-138453125D01*
X32662456Y-138453125D01*
X32784694Y-139392925D01*
X32995831Y-139392925D01*
X33246656Y-139392925D01*
X33448269Y-139392925D01*
X33448269Y-138951600D01*
X33549869Y-138951600D01*
X33634006Y-138957752D01*
X33689569Y-138976206D01*
X33746719Y-139070663D01*
X33821331Y-139392925D01*
X34038819Y-139392925D01*
X33948331Y-139056375D01*
X33921145Y-138976603D01*
X33890388Y-138924613D01*
X33791169Y-138875400D01*
X33791169Y-138861112D01*
X33903881Y-138825394D01*
X33960238Y-138753956D01*
X33976906Y-138626162D01*
X33966786Y-138517419D01*
X33936425Y-138435663D01*
X33882053Y-138376925D01*
X33799900Y-138337237D01*
X33727140Y-138320481D01*
X33636917Y-138310426D01*
X33529231Y-138307075D01*
X33435569Y-138308663D01*
X33246656Y-138315012D01*
X33246656Y-139392925D01*
X32995831Y-139392925D01*
X33124419Y-138313425D01*
X32949794Y-138313425D01*
X32886294Y-139162738D01*
X32884706Y-139162738D01*
X32872006Y-138965888D01*
X32773581Y-138313425D01*
X32544981Y-138313425D01*
X32443381Y-138965888D01*
X32432269Y-139162738D01*
X32430681Y-139162738D01*
X32368769Y-138313425D01*
X32194144Y-138313425D01*
X31735235Y-138313425D01*
X31722039Y-138312102D01*
X31598831Y-138308663D01*
X31351181Y-138313425D01*
X31351181Y-139392925D01*
X31086598Y-139392925D01*
X31086598Y-138042492D01*
G37*
%TO.C,C2*%
X38520000Y-142205000D02*
X38520000Y-142270000D01*
X35280000Y-144445000D02*
X38520000Y-144445000D01*
X35280000Y-144380000D02*
X35280000Y-144445000D01*
X38520000Y-144380000D02*
X38520000Y-144445000D01*
X35280000Y-142205000D02*
X38520000Y-142205000D01*
X35280000Y-142205000D02*
X35280000Y-142270000D01*
%TO.C,kibuzzard-67C66B15*%
G36*
X53099687Y-136302030D02*
G01*
X57890763Y-136302030D01*
X57890763Y-138107970D01*
X53099687Y-138107970D01*
X53099687Y-137854605D01*
X53337812Y-137854605D01*
X53579747Y-137854605D01*
X53579747Y-137325015D01*
X53701667Y-137325015D01*
X53802632Y-137332397D01*
X53869307Y-137354542D01*
X53937887Y-137467890D01*
X54027422Y-137854605D01*
X54288407Y-137854605D01*
X54530342Y-137854605D01*
X55372352Y-137854605D01*
X55593332Y-137854605D01*
X55718004Y-137863072D01*
X55830399Y-137868152D01*
X55930517Y-137869845D01*
X56083129Y-137863283D01*
X56210764Y-137843598D01*
X56313422Y-137810790D01*
X56429151Y-137731971D01*
X56505827Y-137613622D01*
X56537577Y-137508953D01*
X56556627Y-137379096D01*
X56562977Y-137224050D01*
X56557474Y-137075777D01*
X56540964Y-136951000D01*
X56532856Y-136921155D01*
X56732522Y-136921155D01*
X56976363Y-136921155D01*
X57003033Y-136815427D01*
X57068755Y-136762087D01*
X57193532Y-136745895D01*
X57317358Y-136761135D01*
X57379270Y-136811617D01*
X57397368Y-136913535D01*
X57384033Y-137001165D01*
X57334503Y-137073555D01*
X57248301Y-137154041D01*
X57138287Y-137246910D01*
X57068993Y-137302393D01*
X56983030Y-137369782D01*
X56880398Y-137449078D01*
X56761097Y-137540280D01*
X56761097Y-137854605D01*
X57652638Y-137854605D01*
X57652638Y-137641245D01*
X57006843Y-137641245D01*
X57006843Y-137624100D01*
X57119978Y-137543878D01*
X57215546Y-137473393D01*
X57293545Y-137412645D01*
X57396653Y-137324539D01*
X57498333Y-137227860D01*
X57565484Y-137151660D01*
X57606918Y-137083080D01*
X57628349Y-137009261D01*
X57635493Y-136917345D01*
X57625491Y-136785662D01*
X57595488Y-136687792D01*
X57541909Y-136618736D01*
X57461185Y-136573492D01*
X57346647Y-136548489D01*
X57191627Y-136540155D01*
X57037561Y-136548727D01*
X56922070Y-136574445D01*
X56839202Y-136620403D01*
X56783005Y-136689697D01*
X56748953Y-136788043D01*
X56732522Y-136921155D01*
X56532856Y-136921155D01*
X56513448Y-136849717D01*
X56446534Y-136732322D01*
X56344855Y-136648740D01*
X56254579Y-136609370D01*
X56142502Y-136580160D01*
X56008622Y-136561110D01*
X55917182Y-136553966D01*
X55814312Y-136551585D01*
X55709537Y-136553490D01*
X55593332Y-136559205D01*
X55593332Y-137854605D01*
X55372352Y-137854605D01*
X55372352Y-137645055D01*
X54774182Y-137645055D01*
X54774182Y-137286915D01*
X55258052Y-137286915D01*
X55258052Y-137077365D01*
X54774182Y-137077365D01*
X54774182Y-136768755D01*
X55334252Y-136768755D01*
X55334252Y-136559205D01*
X54530342Y-136559205D01*
X54530342Y-137854605D01*
X54288407Y-137854605D01*
X54179822Y-137450745D01*
X54147199Y-137355019D01*
X54110290Y-137292630D01*
X53991227Y-137233575D01*
X53991227Y-137216430D01*
X54126482Y-137173567D01*
X54194110Y-137087842D01*
X54214112Y-136934490D01*
X54201968Y-136803997D01*
X54165535Y-136705890D01*
X54100289Y-136635405D01*
X54001705Y-136587780D01*
X53914392Y-136567672D01*
X53806125Y-136555607D01*
X53676902Y-136551585D01*
X53564507Y-136553490D01*
X53337812Y-136561110D01*
X53337812Y-137854605D01*
X53099687Y-137854605D01*
X53099687Y-136302030D01*
G37*
G36*
X53729290Y-136764469D02*
G01*
X53821682Y-136768755D01*
X53941697Y-136807807D01*
X53974082Y-136924965D01*
X53942650Y-137072602D01*
X53825492Y-137113560D01*
X53579747Y-137113560D01*
X53579747Y-136764945D01*
X53661662Y-136763040D01*
X53729290Y-136764469D01*
G37*
G36*
X55911467Y-136763516D02*
G01*
X56001002Y-136770660D01*
X56110778Y-136791377D01*
X56192455Y-136826857D01*
X56250319Y-136881626D01*
X56288657Y-136960207D01*
X56310089Y-137068078D01*
X56317232Y-137210715D01*
X56309851Y-137361448D01*
X56287705Y-137474557D01*
X56247938Y-137555758D01*
X56187693Y-137610765D01*
X56102444Y-137644102D01*
X55987667Y-137660295D01*
X55837172Y-137654580D01*
X55837172Y-136761135D01*
X55911467Y-136763516D01*
G37*
%TO.C,kibuzzard-67C66AAA*%
G36*
X53309237Y-131227745D02*
G01*
X57890763Y-131227745D01*
X57890763Y-133022255D01*
X53309237Y-133022255D01*
X53309237Y-132768890D01*
X53547362Y-132768890D01*
X53789297Y-132768890D01*
X53789297Y-132239300D01*
X53911217Y-132239300D01*
X54012182Y-132246682D01*
X54078857Y-132268827D01*
X54147437Y-132382175D01*
X54236972Y-132768890D01*
X54497957Y-132768890D01*
X54739892Y-132768890D01*
X55581902Y-132768890D01*
X55802882Y-132768890D01*
X55927554Y-132777357D01*
X56039949Y-132782437D01*
X56140067Y-132784130D01*
X56292679Y-132777568D01*
X56420314Y-132757883D01*
X56522972Y-132725075D01*
X56638701Y-132646256D01*
X56715377Y-132527907D01*
X56747127Y-132423238D01*
X56766177Y-132293381D01*
X56772527Y-132138335D01*
X56767861Y-132012605D01*
X57006843Y-132012605D01*
X57349743Y-131801150D01*
X57424038Y-131740190D01*
X57416418Y-131858300D01*
X57416418Y-132768890D01*
X57652638Y-132768890D01*
X57652638Y-131473490D01*
X57416418Y-131473490D01*
X57006843Y-131761145D01*
X57006843Y-132012605D01*
X56767861Y-132012605D01*
X56767024Y-131990063D01*
X56750514Y-131865285D01*
X56722998Y-131764002D01*
X56656084Y-131646607D01*
X56554405Y-131563025D01*
X56464129Y-131523655D01*
X56352052Y-131494445D01*
X56218173Y-131475395D01*
X56126732Y-131468251D01*
X56023863Y-131465870D01*
X55919087Y-131467775D01*
X55802882Y-131473490D01*
X55802882Y-132768890D01*
X55581902Y-132768890D01*
X55581902Y-132559340D01*
X54983732Y-132559340D01*
X54983732Y-132201200D01*
X55467602Y-132201200D01*
X55467602Y-131991650D01*
X54983732Y-131991650D01*
X54983732Y-131683040D01*
X55543802Y-131683040D01*
X55543802Y-131473490D01*
X54739892Y-131473490D01*
X54739892Y-132768890D01*
X54497957Y-132768890D01*
X54389372Y-132365030D01*
X54356749Y-132269304D01*
X54319840Y-132206915D01*
X54200777Y-132147860D01*
X54200777Y-132130715D01*
X54336032Y-132087852D01*
X54403660Y-132002127D01*
X54423662Y-131848775D01*
X54411518Y-131718282D01*
X54375085Y-131620175D01*
X54309839Y-131549690D01*
X54211255Y-131502065D01*
X54123942Y-131481957D01*
X54015675Y-131469892D01*
X53886452Y-131465870D01*
X53774057Y-131467775D01*
X53547362Y-131475395D01*
X53547362Y-132768890D01*
X53309237Y-132768890D01*
X53309237Y-131227745D01*
G37*
G36*
X53938840Y-131678754D02*
G01*
X54031232Y-131683040D01*
X54151247Y-131722092D01*
X54183632Y-131839250D01*
X54152200Y-131986887D01*
X54035042Y-132027845D01*
X53789297Y-132027845D01*
X53789297Y-131679230D01*
X53871212Y-131677325D01*
X53938840Y-131678754D01*
G37*
G36*
X56121017Y-131677801D02*
G01*
X56210552Y-131684945D01*
X56320328Y-131705662D01*
X56402005Y-131741142D01*
X56459869Y-131795911D01*
X56498207Y-131874492D01*
X56519639Y-131982363D01*
X56526782Y-132125000D01*
X56519401Y-132275733D01*
X56497255Y-132388843D01*
X56457488Y-132470043D01*
X56397243Y-132525050D01*
X56311994Y-132558387D01*
X56197217Y-132574580D01*
X56046722Y-132568865D01*
X56046722Y-131675420D01*
X56121017Y-131677801D01*
G37*
%TO.C,kibuzzard-67C66FC9*%
G36*
X64122267Y-146479175D02*
G01*
X67768437Y-146479175D01*
X67768437Y-148250825D01*
X64122267Y-148250825D01*
X64122267Y-148012700D01*
X65377662Y-148012700D01*
X65619597Y-148012700D01*
X65712942Y-147702185D01*
X66124422Y-147702185D01*
X66217767Y-148012700D01*
X66459702Y-148012700D01*
X66137819Y-146934470D01*
X66593052Y-146934470D01*
X66939762Y-146934470D01*
X66939762Y-148012700D01*
X67183602Y-148012700D01*
X67183602Y-146934470D01*
X67530312Y-146934470D01*
X67530312Y-146717300D01*
X66593052Y-146717300D01*
X66593052Y-146934470D01*
X66137819Y-146934470D01*
X66072987Y-146717300D01*
X65764377Y-146717300D01*
X65377662Y-148012700D01*
X64122267Y-148012700D01*
X64122267Y-148010795D01*
X64360392Y-148010795D01*
X65259552Y-148010795D01*
X65259552Y-147797435D01*
X64604232Y-147797435D01*
X64604232Y-146717300D01*
X64360392Y-146717300D01*
X64360392Y-148010795D01*
X64122267Y-148010795D01*
X64122267Y-146479175D01*
G37*
G36*
X66067272Y-147498350D02*
G01*
X65770092Y-147498350D01*
X65916777Y-146953520D01*
X65920587Y-146953520D01*
X66067272Y-147498350D01*
G37*
%TO.C,C1*%
X38751000Y-145961000D02*
X38751000Y-146785000D01*
X38551000Y-148865000D02*
X38551000Y-149860000D01*
X38991000Y-148865000D02*
X38991000Y-149430000D01*
X38671000Y-148865000D02*
X38671000Y-149762000D01*
X37871000Y-145411000D02*
X37871000Y-146785000D01*
X37390000Y-145282000D02*
X37390000Y-146785000D01*
X37711000Y-148865000D02*
X37711000Y-150293000D01*
X39071000Y-148865000D02*
X39071000Y-149325000D01*
X38111000Y-145515000D02*
X38111000Y-146785000D01*
X37390000Y-148865000D02*
X37390000Y-150368000D01*
X38911000Y-148865000D02*
X38911000Y-149524000D01*
X37751000Y-145370000D02*
X37751000Y-146785000D01*
X37590000Y-148865000D02*
X37590000Y-150326000D01*
X38751000Y-148865000D02*
X38751000Y-149689000D01*
X34145225Y-146350000D02*
X34645225Y-146350000D01*
X38391000Y-148865000D02*
X38391000Y-149974000D01*
X39031000Y-146271000D02*
X39031000Y-146785000D01*
X38631000Y-148865000D02*
X38631000Y-149796000D01*
X38831000Y-146040000D02*
X38831000Y-146785000D01*
X37911000Y-145427000D02*
X37911000Y-146785000D01*
X38351000Y-148865000D02*
X38351000Y-150000000D01*
X39471000Y-147148000D02*
X39471000Y-148502000D01*
X37190000Y-145256000D02*
X37190000Y-146785000D01*
X38471000Y-145730000D02*
X38471000Y-146785000D01*
X38791000Y-145999000D02*
X38791000Y-146785000D01*
X37991000Y-145460000D02*
X37991000Y-146785000D01*
X37230000Y-145260000D02*
X37230000Y-146785000D01*
X38711000Y-145924000D02*
X38711000Y-146785000D01*
X38991000Y-146220000D02*
X38991000Y-146785000D01*
X39191000Y-146506000D02*
X39191000Y-146785000D01*
X37550000Y-145314000D02*
X37550000Y-146785000D01*
X39551000Y-147541000D02*
X39551000Y-148109000D01*
X37711000Y-145357000D02*
X37711000Y-146785000D01*
X38311000Y-148865000D02*
X38311000Y-150025000D01*
X39191000Y-148865000D02*
X39191000Y-149144000D01*
X38151000Y-145535000D02*
X38151000Y-146785000D01*
X37030000Y-145246000D02*
X37030000Y-150404000D01*
X37430000Y-148865000D02*
X37430000Y-150361000D01*
X36990000Y-145245000D02*
X36990000Y-150405000D01*
X37270000Y-145264000D02*
X37270000Y-146785000D01*
X37510000Y-145305000D02*
X37510000Y-146785000D01*
X39271000Y-146647000D02*
X39271000Y-149003000D01*
X37470000Y-148865000D02*
X37470000Y-150353000D01*
X38591000Y-148865000D02*
X38591000Y-149829000D01*
X38031000Y-148865000D02*
X38031000Y-150173000D01*
X37911000Y-148865000D02*
X37911000Y-150223000D01*
X37791000Y-148865000D02*
X37791000Y-150267000D01*
X38031000Y-145477000D02*
X38031000Y-146785000D01*
X37190000Y-148865000D02*
X37190000Y-150394000D01*
X38591000Y-145821000D02*
X38591000Y-146785000D01*
X37150000Y-145252000D02*
X37150000Y-150398000D01*
X39111000Y-148865000D02*
X39111000Y-149268000D01*
X38391000Y-145676000D02*
X38391000Y-146785000D01*
X37671000Y-145345000D02*
X37671000Y-146785000D01*
X38671000Y-145888000D02*
X38671000Y-146785000D01*
X37871000Y-148865000D02*
X37871000Y-150239000D01*
X38431000Y-145703000D02*
X38431000Y-146785000D01*
X36950000Y-145245000D02*
X36950000Y-150405000D01*
X38271000Y-145601000D02*
X38271000Y-146785000D01*
X39231000Y-148865000D02*
X39231000Y-149076000D01*
X38191000Y-145557000D02*
X38191000Y-146785000D01*
X37510000Y-148865000D02*
X37510000Y-150345000D01*
X38071000Y-148865000D02*
X38071000Y-150154000D01*
X38791000Y-148865000D02*
X38791000Y-149651000D01*
X39431000Y-147020000D02*
X39431000Y-148630000D01*
X38871000Y-148865000D02*
X38871000Y-149568000D01*
X38951000Y-148865000D02*
X38951000Y-149478000D01*
X39311000Y-146727000D02*
X39311000Y-148923000D01*
X34395225Y-146100000D02*
X34395225Y-146600000D01*
X37470000Y-145297000D02*
X37470000Y-146785000D01*
X37951000Y-145443000D02*
X37951000Y-146785000D01*
X37110000Y-145249000D02*
X37110000Y-150401000D01*
X38831000Y-148865000D02*
X38831000Y-149610000D01*
X37310000Y-148865000D02*
X37310000Y-150381000D01*
X37590000Y-145324000D02*
X37590000Y-146785000D01*
X38111000Y-148865000D02*
X38111000Y-150135000D01*
X38311000Y-145625000D02*
X38311000Y-146785000D01*
X37630000Y-145334000D02*
X37630000Y-146785000D01*
X39391000Y-146910000D02*
X39391000Y-148740000D01*
X38951000Y-146172000D02*
X38951000Y-146785000D01*
X38191000Y-148865000D02*
X38191000Y-150093000D01*
X38711000Y-148865000D02*
X38711000Y-149726000D01*
X39111000Y-146382000D02*
X39111000Y-146785000D01*
X38911000Y-146126000D02*
X38911000Y-146785000D01*
X39031000Y-148865000D02*
X39031000Y-149379000D01*
X37270000Y-148865000D02*
X37270000Y-150386000D01*
X38431000Y-148865000D02*
X38431000Y-149947000D01*
X37671000Y-148865000D02*
X37671000Y-150305000D01*
X39351000Y-146814000D02*
X39351000Y-148836000D01*
X39231000Y-146574000D02*
X39231000Y-146785000D01*
X37350000Y-145275000D02*
X37350000Y-146785000D01*
X37831000Y-148865000D02*
X37831000Y-150253000D01*
X38471000Y-148865000D02*
X38471000Y-149920000D01*
X37350000Y-148865000D02*
X37350000Y-150375000D01*
X38271000Y-148865000D02*
X38271000Y-150049000D01*
X37991000Y-148865000D02*
X37991000Y-150190000D01*
X38151000Y-148865000D02*
X38151000Y-150115000D01*
X37550000Y-148865000D02*
X37550000Y-150336000D01*
X38511000Y-145760000D02*
X38511000Y-146785000D01*
X38351000Y-145650000D02*
X38351000Y-146785000D01*
X38231000Y-148865000D02*
X38231000Y-150072000D01*
X37630000Y-148865000D02*
X37630000Y-150316000D01*
X37310000Y-145269000D02*
X37310000Y-146785000D01*
X38871000Y-146082000D02*
X38871000Y-146785000D01*
X38071000Y-145496000D02*
X38071000Y-146785000D01*
X37430000Y-145289000D02*
X37430000Y-146785000D01*
X39151000Y-146442000D02*
X39151000Y-146785000D01*
X37070000Y-145247000D02*
X37070000Y-150403000D01*
X38231000Y-145578000D02*
X38231000Y-146785000D01*
X37831000Y-145397000D02*
X37831000Y-146785000D01*
X39071000Y-146325000D02*
X39071000Y-146785000D01*
X38631000Y-145854000D02*
X38631000Y-146785000D01*
X37751000Y-148865000D02*
X37751000Y-150280000D01*
X38551000Y-145790000D02*
X38551000Y-146785000D01*
X38511000Y-148865000D02*
X38511000Y-149890000D01*
X37791000Y-145383000D02*
X37791000Y-146785000D01*
X39511000Y-147307000D02*
X39511000Y-148343000D01*
X39151000Y-148865000D02*
X39151000Y-149208000D01*
X37230000Y-148865000D02*
X37230000Y-150390000D01*
X37951000Y-148865000D02*
X37951000Y-150207000D01*
X39570000Y-147825000D02*
G75*
G03*
X39570000Y-147825000I-2620000J0D01*
G01*
%TO.C,BZ1*%
X43000000Y-119300000D02*
G75*
G03*
X43000000Y-119300000I-6100000J0D01*
G01*
%TO.C,kibuzzard-69475C67*%
G36*
X29950550Y-168211812D02*
G01*
X33849450Y-168211812D01*
X33849450Y-169688188D01*
X29950550Y-169688188D01*
X29950550Y-168410250D01*
X30148987Y-168410250D01*
X30469662Y-169489750D01*
X30718900Y-169489750D01*
X30906118Y-168859512D01*
X31207850Y-168859512D01*
X31493600Y-168683300D01*
X31555512Y-168632500D01*
X31549163Y-168730925D01*
X31549163Y-169489750D01*
X31746013Y-169489750D01*
X32244488Y-169489750D01*
X32546112Y-169489750D01*
X32546112Y-169199238D01*
X32244488Y-169199238D01*
X32244488Y-169489750D01*
X31746013Y-169489750D01*
X31746013Y-168859512D01*
X33112850Y-168859512D01*
X33398600Y-168683300D01*
X33460513Y-168632500D01*
X33454163Y-168730925D01*
X33454163Y-169489750D01*
X33651013Y-169489750D01*
X33651013Y-168410250D01*
X33454163Y-168410250D01*
X33112850Y-168649963D01*
X33112850Y-168859512D01*
X31746013Y-168859512D01*
X31746013Y-168410250D01*
X31549163Y-168410250D01*
X31207850Y-168649963D01*
X31207850Y-168859512D01*
X30906118Y-168859512D01*
X31039575Y-168410250D01*
X30833200Y-168410250D01*
X30598250Y-169251625D01*
X30590312Y-169251625D01*
X30355362Y-168410250D01*
X30148987Y-168410250D01*
X29950550Y-168410250D01*
X29950550Y-168211812D01*
G37*
%TO.C,kibuzzard-67C66FB5*%
G36*
X64122267Y-141386792D02*
G01*
X65541493Y-141386792D01*
X65541493Y-143183208D01*
X64122267Y-143183208D01*
X64122267Y-142926033D01*
X64360393Y-142926033D01*
X64493319Y-142936616D01*
X64617779Y-142942966D01*
X64733773Y-142945083D01*
X64872097Y-142941378D01*
X64987349Y-142930266D01*
X65079530Y-142911745D01*
X65183114Y-142866739D01*
X65251933Y-142798398D01*
X65290509Y-142701242D01*
X65303367Y-142569797D01*
X65298367Y-142475976D01*
X65283365Y-142404062D01*
X65214785Y-142308813D01*
X65076672Y-142259283D01*
X65076672Y-142247852D01*
X65158826Y-142217849D01*
X65210975Y-142169747D01*
X65238836Y-142094976D01*
X65248123Y-141984963D01*
X65235026Y-141859947D01*
X65195735Y-141766840D01*
X65125488Y-141700879D01*
X65019523Y-141657302D01*
X64925331Y-141639311D01*
X64807856Y-141628516D01*
X64674099Y-141625096D01*
X64360393Y-141630632D01*
X64360393Y-142926033D01*
X64122267Y-142926033D01*
X64122267Y-141386792D01*
G37*
G36*
X64965230Y-142382155D02*
G01*
X65037620Y-142438353D01*
X65059528Y-142552653D01*
X65032858Y-142664095D01*
X64944275Y-142719340D01*
X64868789Y-142731484D01*
X64766157Y-142735533D01*
X64686624Y-142734580D01*
X64600422Y-142731723D01*
X64600422Y-142365963D01*
X64819498Y-142365963D01*
X64965230Y-142382155D01*
G37*
G36*
X64821403Y-141838277D02*
G01*
X64912604Y-141853994D01*
X64969040Y-141882092D01*
X65008093Y-142002107D01*
X64978565Y-142121170D01*
X64867122Y-142156413D01*
X64600422Y-142156413D01*
X64600422Y-141832563D01*
X64663288Y-141832563D01*
X64821403Y-141838277D01*
G37*
%TO.C,kibuzzard-67C67064*%
G36*
X81975918Y-137827282D02*
G01*
X82121472Y-137849606D01*
X82224461Y-137889195D01*
X82292922Y-137948428D01*
X82331320Y-138032367D01*
X82344119Y-138146072D01*
X82331320Y-138260074D01*
X82292922Y-138344906D01*
X82224461Y-138405033D01*
X82121472Y-138444919D01*
X81975918Y-138467243D01*
X81779763Y-138474684D01*
X81579142Y-138467243D01*
X81429719Y-138444919D01*
X81324051Y-138405033D01*
X81254697Y-138344906D01*
X81216299Y-138260074D01*
X81203500Y-138146072D01*
X81216299Y-138032367D01*
X81254697Y-137948428D01*
X81323753Y-137889195D01*
X81428528Y-137849606D01*
X81577654Y-137827282D01*
X81779763Y-137819841D01*
X81975918Y-137827282D01*
G37*
G36*
X81573784Y-143643188D02*
G01*
X81617838Y-143782491D01*
X81617838Y-144115866D01*
X81213025Y-144115866D01*
X81213025Y-144037284D01*
X81220169Y-143839641D01*
X81239814Y-143725638D01*
X81274937Y-143655094D01*
X81424956Y-143606278D01*
X81573784Y-143643188D01*
G37*
G36*
X80445469Y-147793309D02*
G01*
X80445469Y-146139928D01*
X80965375Y-146139928D01*
X80965375Y-146444728D01*
X81608313Y-146444728D01*
X81608313Y-146992416D01*
X80965375Y-146992416D01*
X80965375Y-147297216D01*
X82584625Y-147297216D01*
X82584625Y-146992416D01*
X81877394Y-146992416D01*
X81877394Y-146444728D01*
X82584625Y-146444728D01*
X82584625Y-146139928D01*
X80965375Y-146139928D01*
X80445469Y-146139928D01*
X80445469Y-145880372D01*
X80965375Y-145880372D01*
X82058369Y-145880372D01*
X82248273Y-145866680D01*
X82389363Y-145825603D01*
X82489375Y-145752380D01*
X82556050Y-145642247D01*
X82593555Y-145486870D01*
X82606056Y-145277916D01*
X82593555Y-145077295D01*
X82556050Y-144927872D01*
X82489375Y-144821906D01*
X82389363Y-144751659D01*
X82247678Y-144712369D01*
X82055988Y-144699272D01*
X80965375Y-144699272D01*
X80965375Y-145004072D01*
X82048844Y-145004072D01*
X82225056Y-145029075D01*
X82313162Y-145112419D01*
X82339356Y-145277916D01*
X82313162Y-145457700D01*
X82223866Y-145548188D01*
X82046463Y-145575572D01*
X80965375Y-145575572D01*
X80965375Y-145880372D01*
X80445469Y-145880372D01*
X80445469Y-144023770D01*
X80953693Y-144023770D01*
X80960612Y-144415903D01*
X82579863Y-144415903D01*
X82593092Y-144249745D01*
X82601029Y-144094170D01*
X82603675Y-143949178D01*
X82599045Y-143776273D01*
X82585154Y-143632207D01*
X82562003Y-143516981D01*
X82505746Y-143387501D01*
X82420319Y-143301478D01*
X82298875Y-143253258D01*
X82134569Y-143237184D01*
X82017292Y-143243435D01*
X81927400Y-143262188D01*
X81808338Y-143347913D01*
X81746425Y-143520553D01*
X81732137Y-143520553D01*
X81694633Y-143417862D01*
X81634506Y-143352675D01*
X81541042Y-143317849D01*
X81403525Y-143306241D01*
X81247255Y-143322612D01*
X81130872Y-143371725D01*
X81048421Y-143459534D01*
X80993950Y-143591991D01*
X80971460Y-143709730D01*
X80957967Y-143856574D01*
X80953693Y-144023770D01*
X80445469Y-144023770D01*
X80445469Y-143030016D01*
X80965375Y-143030016D01*
X81236838Y-143030016D01*
X81236838Y-142241822D01*
X82608437Y-142946672D01*
X82608437Y-142613297D01*
X81251125Y-141920353D01*
X80965375Y-141920353D01*
X80965375Y-143030016D01*
X80445469Y-143030016D01*
X80445469Y-141453628D01*
X80965375Y-141453628D01*
X81810719Y-141525066D01*
X81789552Y-141362611D01*
X81776852Y-141227674D01*
X81772619Y-141120253D01*
X81779763Y-140991666D01*
X81802682Y-140884212D01*
X81847628Y-140814263D01*
X81920554Y-140775865D01*
X82027413Y-140763066D01*
X82177134Y-140781520D01*
X82273872Y-140836884D01*
X82326557Y-140939278D01*
X82344119Y-141098822D01*
X82336380Y-141205085D01*
X82313162Y-141309563D01*
X82270895Y-141425351D01*
X82206006Y-141565547D01*
X82503663Y-141565547D01*
X82550097Y-141454223D01*
X82579863Y-141348853D01*
X82595936Y-141236339D01*
X82601294Y-141103584D01*
X82587899Y-140890463D01*
X82547716Y-140727347D01*
X82476873Y-140608582D01*
X82371503Y-140528513D01*
X82225949Y-140482971D01*
X82034556Y-140467791D01*
X81880073Y-140479399D01*
X81759522Y-140514225D01*
X81667844Y-140575542D01*
X81599978Y-140666625D01*
X81552651Y-140792534D01*
X81522587Y-140958328D01*
X81513062Y-141108347D01*
X81517825Y-141213122D01*
X81222550Y-141189309D01*
X81217788Y-140536847D01*
X80965375Y-140536847D01*
X80965375Y-141453628D01*
X80445469Y-141453628D01*
X80445469Y-139122384D01*
X81744044Y-139122384D01*
X81744044Y-140027259D01*
X82005981Y-140027259D01*
X82005981Y-139122384D01*
X81744044Y-139122384D01*
X80445469Y-139122384D01*
X80445469Y-138146072D01*
X80941563Y-138146072D01*
X80949897Y-138298604D01*
X80974900Y-138426001D01*
X81016572Y-138528263D01*
X81117477Y-138643158D01*
X81270175Y-138718763D01*
X81406171Y-138749851D01*
X81576033Y-138768504D01*
X81779763Y-138774722D01*
X81980581Y-138768504D01*
X82148063Y-138749851D01*
X82282206Y-138718763D01*
X82432820Y-138643158D01*
X82532238Y-138528263D01*
X82573248Y-138426001D01*
X82597854Y-138298604D01*
X82606056Y-138146072D01*
X82597854Y-137993540D01*
X82573248Y-137866143D01*
X82532238Y-137763881D01*
X82432820Y-137648986D01*
X82282206Y-137573381D01*
X82148063Y-137542293D01*
X81980581Y-137523640D01*
X81779763Y-137517422D01*
X81576033Y-137523640D01*
X81406171Y-137542293D01*
X81270175Y-137573381D01*
X81117477Y-137648986D01*
X81016572Y-137763881D01*
X80974900Y-137866143D01*
X80949897Y-137993540D01*
X80941563Y-138146072D01*
X80445469Y-138146072D01*
X80445469Y-137307872D01*
X80965375Y-137307872D01*
X82058369Y-137307872D01*
X82248273Y-137294180D01*
X82389363Y-137253103D01*
X82489375Y-137179880D01*
X82556050Y-137069747D01*
X82593555Y-136914370D01*
X82606056Y-136705416D01*
X82593555Y-136504795D01*
X82556050Y-136355372D01*
X82489375Y-136249406D01*
X82389363Y-136179159D01*
X82247678Y-136139869D01*
X82055988Y-136126772D01*
X80965375Y-136126772D01*
X80965375Y-136431572D01*
X82048844Y-136431572D01*
X82225056Y-136456575D01*
X82313162Y-136539919D01*
X82339356Y-136705416D01*
X82313162Y-136885200D01*
X82223866Y-136975688D01*
X82046463Y-137003072D01*
X80965375Y-137003072D01*
X80965375Y-137307872D01*
X80445469Y-137307872D01*
X80445469Y-135874359D01*
X80965375Y-135874359D01*
X81236838Y-135874359D01*
X81236838Y-135440972D01*
X82584625Y-135440972D01*
X82584625Y-135136172D01*
X81236838Y-135136172D01*
X81236838Y-134702784D01*
X80965375Y-134702784D01*
X80965375Y-135874359D01*
X80445469Y-135874359D01*
X80445469Y-134206691D01*
X83104531Y-134206691D01*
X83104531Y-147793309D01*
X80445469Y-147793309D01*
G37*
G36*
X82252441Y-143575322D02*
G01*
X82321497Y-143686050D01*
X82336677Y-143780407D01*
X82341737Y-143908697D01*
X82340547Y-144008114D01*
X82336975Y-144115866D01*
X81879775Y-144115866D01*
X81879775Y-143842022D01*
X81900016Y-143659856D01*
X81970262Y-143569369D01*
X82113138Y-143541984D01*
X82252441Y-143575322D01*
G37*
%TO.C,R3*%
X38100000Y-134025000D02*
X38100000Y-133405000D01*
X39020000Y-134945000D02*
G75*
G03*
X39020000Y-134945000I-920000J0D01*
G01*
%TO.C,kibuzzard-67C66F80*%
G36*
X65946304Y-131683516D02*
G01*
X66038697Y-131687802D01*
X66158712Y-131726855D01*
X66191097Y-131844012D01*
X66159664Y-131991650D01*
X66042507Y-132032607D01*
X65796762Y-132032607D01*
X65796762Y-131683992D01*
X65878677Y-131682087D01*
X65946304Y-131683516D01*
G37*
G36*
X64122267Y-131221077D02*
G01*
X68755227Y-131221077D01*
X68755227Y-133028923D01*
X64122267Y-133028923D01*
X64122267Y-132125952D01*
X64360392Y-132125952D01*
X64365789Y-132286713D01*
X64381982Y-132421016D01*
X64408969Y-132528860D01*
X64473978Y-132650304D01*
X64571847Y-132730790D01*
X64658842Y-132764127D01*
X64767427Y-132784130D01*
X64897602Y-132790798D01*
X65014759Y-132785559D01*
X65090526Y-132773653D01*
X65554827Y-132773653D01*
X65796762Y-132773653D01*
X65796762Y-132244062D01*
X65918682Y-132244062D01*
X66019647Y-132251444D01*
X66086322Y-132273590D01*
X66154902Y-132386937D01*
X66244437Y-132773653D01*
X66505422Y-132773653D01*
X66648297Y-132773653D01*
X66882612Y-132773653D01*
X66882612Y-132028797D01*
X66855942Y-131758287D01*
X66861657Y-131758287D01*
X67326477Y-132773653D01*
X67623657Y-132773653D01*
X67623657Y-132017367D01*
X67871307Y-132017367D01*
X68214207Y-131805912D01*
X68288502Y-131744952D01*
X68280882Y-131863062D01*
X68280882Y-132773653D01*
X68517102Y-132773653D01*
X68517102Y-131478252D01*
X68280882Y-131478252D01*
X67871307Y-131765907D01*
X67871307Y-132017367D01*
X67623657Y-132017367D01*
X67623657Y-131478252D01*
X67389342Y-131478252D01*
X67389342Y-132223107D01*
X67416012Y-132493618D01*
X67410297Y-132493618D01*
X66945477Y-131478252D01*
X66648297Y-131478252D01*
X66648297Y-132773653D01*
X66505422Y-132773653D01*
X66396837Y-132369792D01*
X66364214Y-132274066D01*
X66327304Y-132211678D01*
X66208242Y-132152623D01*
X66208242Y-132135477D01*
X66343497Y-132092615D01*
X66411124Y-132006890D01*
X66431127Y-131853537D01*
X66418983Y-131723045D01*
X66382549Y-131624937D01*
X66317303Y-131554452D01*
X66218719Y-131506827D01*
X66131407Y-131486719D01*
X66023139Y-131474654D01*
X65893917Y-131470632D01*
X65781522Y-131472537D01*
X65554827Y-131480157D01*
X65554827Y-132773653D01*
X65090526Y-132773653D01*
X65114772Y-132769843D01*
X65215261Y-132739362D01*
X65333847Y-132689832D01*
X65333847Y-132044037D01*
X64834737Y-132044037D01*
X64834737Y-132251682D01*
X65103342Y-132251682D01*
X65103342Y-132543147D01*
X65009044Y-132572675D01*
X64891887Y-132581248D01*
X64790684Y-132571246D01*
X64715674Y-132541242D01*
X64662573Y-132487188D01*
X64627092Y-132405035D01*
X64607089Y-132288592D01*
X64600422Y-132131667D01*
X64606375Y-131971171D01*
X64624234Y-131851632D01*
X64656381Y-131766860D01*
X64705197Y-131710662D01*
X64774253Y-131679230D01*
X64867122Y-131668752D01*
X65001424Y-131683992D01*
X65072862Y-131734475D01*
X65101437Y-131836392D01*
X65337657Y-131836392D01*
X65320750Y-131704947D01*
X65285269Y-131607792D01*
X65226929Y-131539212D01*
X65141442Y-131493492D01*
X65022856Y-131467775D01*
X64865217Y-131459202D01*
X64743191Y-131465870D01*
X64641274Y-131485872D01*
X64559464Y-131519210D01*
X64467310Y-131599696D01*
X64406112Y-131721140D01*
X64380712Y-131829196D01*
X64365472Y-131964133D01*
X64360392Y-132125952D01*
X64122267Y-132125952D01*
X64122267Y-131221077D01*
G37*
%TO.C,kibuzzard-67C67BB4*%
G36*
X66223272Y-119786888D02*
G01*
X66313759Y-119909522D01*
X66334298Y-120013702D01*
X66341144Y-120154791D01*
X66334298Y-120293796D01*
X66313759Y-120396488D01*
X66223272Y-120516741D01*
X66041106Y-120552459D01*
X65858941Y-120516741D01*
X65768453Y-120396488D01*
X65747915Y-120293796D01*
X65741069Y-120154791D01*
X65747915Y-120013702D01*
X65768453Y-119909522D01*
X65858941Y-119786888D01*
X66041106Y-119749978D01*
X66223272Y-119786888D01*
G37*
G36*
X70491663Y-119772600D02*
G01*
X70576197Y-119851181D01*
X70610725Y-120009534D01*
X70051131Y-120009534D01*
X70091613Y-119851181D01*
X70174956Y-119772600D01*
X70329738Y-119749978D01*
X70491663Y-119772600D01*
G37*
G36*
X49349337Y-118648253D02*
G01*
X72650663Y-118648253D01*
X72650663Y-121201747D01*
X49349337Y-121201747D01*
X49349337Y-119971434D01*
X49746212Y-119971434D01*
X49752562Y-120172253D01*
X49771612Y-120339734D01*
X49803362Y-120473878D01*
X49880158Y-120624790D01*
X49996244Y-120725100D01*
X50099696Y-120766772D01*
X50229077Y-120791775D01*
X50384387Y-120800109D01*
X50574590Y-120789691D01*
X50624622Y-120778678D01*
X51198775Y-120778678D01*
X52327487Y-120778678D01*
X52327487Y-120531028D01*
X51920294Y-120531028D01*
X51920294Y-120154791D01*
X52591806Y-120154791D01*
X52597759Y-120311556D01*
X52615619Y-120442128D01*
X52645384Y-120546506D01*
X52717120Y-120663783D01*
X52825169Y-120741769D01*
X52977569Y-120785524D01*
X53182356Y-120800109D01*
X53387144Y-120785524D01*
X53539544Y-120741769D01*
X53647593Y-120663783D01*
X53719328Y-120546506D01*
X53749094Y-120442128D01*
X53766953Y-120311556D01*
X53772725Y-120159553D01*
X54053894Y-120159553D01*
X54059847Y-120314996D01*
X54077706Y-120444774D01*
X54107472Y-120548888D01*
X54179802Y-120665866D01*
X54289637Y-120742959D01*
X54445014Y-120785822D01*
X54653969Y-120800109D01*
X54833455Y-120790584D01*
X54889140Y-120778678D01*
X55506456Y-120778678D01*
X55792206Y-120778678D01*
X55792206Y-120102403D01*
X56351800Y-120778678D01*
X56716131Y-120778678D01*
X56116056Y-120090497D01*
X56233075Y-119971434D01*
X58318712Y-119971434D01*
X58325062Y-120172253D01*
X58344112Y-120339734D01*
X58375862Y-120473878D01*
X58452658Y-120624790D01*
X58568744Y-120725100D01*
X58672196Y-120766772D01*
X58801577Y-120791775D01*
X58956887Y-120800109D01*
X59147090Y-120789691D01*
X59289072Y-120758438D01*
X59391168Y-120701883D01*
X59461712Y-120615563D01*
X59505766Y-120493226D01*
X59528387Y-120328622D01*
X59230731Y-120328622D01*
X59154531Y-120496500D01*
X59076545Y-120529540D01*
X58956887Y-120540553D01*
X58840802Y-120527754D01*
X58754481Y-120489356D01*
X58693462Y-120420598D01*
X58653278Y-120316716D01*
X58630954Y-120169673D01*
X58630395Y-120154791D01*
X59735556Y-120154791D01*
X59741509Y-120311556D01*
X59759369Y-120442128D01*
X59789134Y-120546506D01*
X59860870Y-120663783D01*
X59968919Y-120741769D01*
X60121319Y-120785524D01*
X60326106Y-120800109D01*
X60530894Y-120785524D01*
X60554739Y-120778678D01*
X61202406Y-120778678D01*
X61492919Y-120778678D01*
X61492919Y-120133359D01*
X61499765Y-120004474D01*
X61520303Y-119908331D01*
X61610791Y-119795222D01*
X61790575Y-119761884D01*
X61902791Y-119773791D01*
X61972741Y-119809509D01*
X62009352Y-119877970D01*
X62021556Y-119988103D01*
X62021556Y-120778678D01*
X62312069Y-120778678D01*
X62312069Y-119992866D01*
X62301651Y-119822309D01*
X62291381Y-119780934D01*
X62621631Y-119780934D01*
X62928812Y-119780934D01*
X62928812Y-120381009D01*
X62936552Y-120519420D01*
X62959769Y-120625087D01*
X63078831Y-120759628D01*
X63187773Y-120793561D01*
X63338387Y-120804872D01*
X63498527Y-120797133D01*
X63672194Y-120778678D01*
X64164681Y-120778678D01*
X64450431Y-120778678D01*
X64450431Y-120166697D01*
X64453288Y-120154791D01*
X65450556Y-120154791D01*
X65456509Y-120311556D01*
X65474369Y-120442128D01*
X65504134Y-120546506D01*
X65575870Y-120663783D01*
X65683919Y-120741769D01*
X65836319Y-120785524D01*
X66041106Y-120800109D01*
X66245894Y-120785524D01*
X66269739Y-120778678D01*
X66915025Y-120778678D01*
X68043738Y-120778678D01*
X68343775Y-120778678D01*
X69472488Y-120778678D01*
X69472488Y-120531028D01*
X69065294Y-120531028D01*
X69065294Y-120145266D01*
X69755856Y-120145266D01*
X69761809Y-120303751D01*
X69779669Y-120436307D01*
X69809434Y-120542934D01*
X69881170Y-120662890D01*
X69989219Y-120741769D01*
X70142214Y-120785524D01*
X70348788Y-120800109D01*
X70512498Y-120790882D01*
X70567351Y-120778678D01*
X71308431Y-120778678D01*
X71594181Y-120778678D01*
X71594181Y-120166697D01*
X71629900Y-120017869D01*
X71720388Y-119885709D01*
X71822781Y-119823797D01*
X71944225Y-119814867D01*
X72108531Y-119811891D01*
X72253788Y-119814272D01*
X72253788Y-119528522D01*
X72106150Y-119524950D01*
X71948988Y-119523759D01*
X71791825Y-119535666D01*
X71710863Y-119595197D01*
X71660261Y-119667825D01*
X71584656Y-119790459D01*
X71558463Y-119790459D01*
X71570369Y-119535666D01*
X71308431Y-119535666D01*
X71308431Y-120778678D01*
X70567351Y-120778678D01*
X70636919Y-120763200D01*
X70729192Y-120714087D01*
X70796463Y-120640566D01*
X70843492Y-120536981D01*
X70875044Y-120397678D01*
X70579769Y-120397678D01*
X70502378Y-120521503D01*
X70346406Y-120554841D01*
X70176147Y-120527456D01*
X70086850Y-120435778D01*
X70048750Y-120252422D01*
X70894094Y-120252422D01*
X70896475Y-120159553D01*
X70890654Y-120002391D01*
X70873192Y-119870628D01*
X70844088Y-119764266D01*
X70774436Y-119644013D01*
X70670256Y-119564241D01*
X70524405Y-119519592D01*
X70329738Y-119504709D01*
X70129415Y-119518997D01*
X69980884Y-119561859D01*
X69876109Y-119638952D01*
X69807053Y-119755931D01*
X69778610Y-119860045D01*
X69761545Y-119989823D01*
X69755856Y-120145266D01*
X69065294Y-120145266D01*
X69065294Y-119045128D01*
X68367588Y-119045128D01*
X68367588Y-119292778D01*
X68779544Y-119292778D01*
X68779544Y-120531028D01*
X68343775Y-120531028D01*
X68343775Y-120778678D01*
X68043738Y-120778678D01*
X68043738Y-120531028D01*
X67636544Y-120531028D01*
X67636544Y-119045128D01*
X66938838Y-119045128D01*
X66938838Y-119292778D01*
X67350794Y-119292778D01*
X67350794Y-120531028D01*
X66915025Y-120531028D01*
X66915025Y-120778678D01*
X66269739Y-120778678D01*
X66398294Y-120741769D01*
X66506343Y-120663783D01*
X66578078Y-120546506D01*
X66607844Y-120442128D01*
X66625703Y-120311556D01*
X66631656Y-120154791D01*
X66625703Y-119996570D01*
X66607844Y-119864807D01*
X66578078Y-119759503D01*
X66506641Y-119641334D01*
X66399484Y-119563050D01*
X66247382Y-119519295D01*
X66041106Y-119504709D01*
X65834830Y-119519295D01*
X65682728Y-119563050D01*
X65575572Y-119641334D01*
X65504134Y-119759503D01*
X65474369Y-119864807D01*
X65456509Y-119996570D01*
X65450556Y-120154791D01*
X64453288Y-120154791D01*
X64486150Y-120017869D01*
X64576638Y-119885709D01*
X64679031Y-119823797D01*
X64800475Y-119814867D01*
X64964781Y-119811891D01*
X65110038Y-119814272D01*
X65110038Y-119528522D01*
X64962400Y-119524950D01*
X64805238Y-119523759D01*
X64648075Y-119535666D01*
X64567112Y-119595197D01*
X64516511Y-119667825D01*
X64440906Y-119790459D01*
X64414712Y-119790459D01*
X64426619Y-119535666D01*
X64164681Y-119535666D01*
X64164681Y-120778678D01*
X63672194Y-120778678D01*
X63717006Y-120773916D01*
X63717006Y-120523884D01*
X63544961Y-120545316D01*
X63419350Y-120552459D01*
X63284809Y-120535791D01*
X63227659Y-120483403D01*
X63214562Y-120371484D01*
X63214562Y-119780934D01*
X63678906Y-119780934D01*
X63678906Y-119535666D01*
X63214562Y-119535666D01*
X63214562Y-119166572D01*
X62938338Y-119283253D01*
X62938338Y-119535666D01*
X62678781Y-119535666D01*
X62621631Y-119780934D01*
X62291381Y-119780934D01*
X62270397Y-119696400D01*
X62214735Y-119607698D01*
X62131094Y-119548763D01*
X62012627Y-119515723D01*
X61852487Y-119504709D01*
X61736402Y-119515425D01*
X61650081Y-119547572D01*
X61579834Y-119608889D01*
X61511969Y-119707116D01*
X61492919Y-119707116D01*
X61492919Y-119535666D01*
X61202406Y-119535666D01*
X61202406Y-120778678D01*
X60554739Y-120778678D01*
X60683294Y-120741769D01*
X60791343Y-120663783D01*
X60863078Y-120546506D01*
X60892844Y-120442128D01*
X60910703Y-120311556D01*
X60916656Y-120154791D01*
X60910703Y-119996570D01*
X60892844Y-119864807D01*
X60863078Y-119759503D01*
X60791641Y-119641334D01*
X60684484Y-119563050D01*
X60532382Y-119519295D01*
X60326106Y-119504709D01*
X60119830Y-119519295D01*
X59967728Y-119563050D01*
X59860572Y-119641334D01*
X59789134Y-119759503D01*
X59759369Y-119864807D01*
X59741509Y-119996570D01*
X59735556Y-120154791D01*
X58630395Y-120154791D01*
X58623512Y-119971434D01*
X58630954Y-119770814D01*
X58653278Y-119621391D01*
X58693462Y-119515723D01*
X58754481Y-119446369D01*
X58840802Y-119407971D01*
X58956887Y-119395172D01*
X59065234Y-119407078D01*
X59137862Y-119442797D01*
X59184892Y-119511258D01*
X59216444Y-119621391D01*
X59514100Y-119621391D01*
X59495645Y-119452620D01*
X59454569Y-119327306D01*
X59386108Y-119238605D01*
X59285500Y-119179669D01*
X59145006Y-119146629D01*
X58956887Y-119135616D01*
X58801577Y-119143950D01*
X58672196Y-119168953D01*
X58568744Y-119210625D01*
X58452658Y-119311530D01*
X58375862Y-119464228D01*
X58344112Y-119599959D01*
X58325062Y-119769028D01*
X58318712Y-119971434D01*
X56233075Y-119971434D01*
X56661362Y-119535666D01*
X56318462Y-119535666D01*
X55792206Y-120080972D01*
X55792206Y-119045128D01*
X55506456Y-119045128D01*
X55506456Y-120778678D01*
X54889140Y-120778678D01*
X54967103Y-120762009D01*
X55062353Y-120710813D01*
X55126647Y-120633422D01*
X55164449Y-120523884D01*
X55180225Y-120376247D01*
X54894475Y-120376247D01*
X54824228Y-120513169D01*
X54665875Y-120550078D01*
X54553956Y-120541446D01*
X54470612Y-120515550D01*
X54372981Y-120397678D01*
X54351550Y-120297070D01*
X54344406Y-120161934D01*
X54351550Y-120020548D01*
X54372981Y-119915475D01*
X54469422Y-119791650D01*
X54551873Y-119763968D01*
X54663494Y-119754741D01*
X54826609Y-119796413D01*
X54892094Y-119954766D01*
X55180225Y-119954766D01*
X55164449Y-119798496D01*
X55126647Y-119682113D01*
X55062055Y-119599662D01*
X54965912Y-119545191D01*
X54830777Y-119514830D01*
X54649206Y-119504709D01*
X54442335Y-119519295D01*
X54288447Y-119563050D01*
X54179505Y-119641929D01*
X54107472Y-119761884D01*
X54077706Y-119868511D01*
X54059847Y-120001068D01*
X54053894Y-120159553D01*
X53772725Y-120159553D01*
X53772906Y-120154791D01*
X53766953Y-119996570D01*
X53749094Y-119864807D01*
X53719328Y-119759503D01*
X53647891Y-119641334D01*
X53540734Y-119563050D01*
X53388632Y-119519295D01*
X53182356Y-119504709D01*
X52976080Y-119519295D01*
X52823978Y-119563050D01*
X52716822Y-119641334D01*
X52645384Y-119759503D01*
X52615619Y-119864807D01*
X52597759Y-119996570D01*
X52591806Y-120154791D01*
X51920294Y-120154791D01*
X51920294Y-119045128D01*
X51222587Y-119045128D01*
X51222587Y-119292778D01*
X51634544Y-119292778D01*
X51634544Y-120531028D01*
X51198775Y-120531028D01*
X51198775Y-120778678D01*
X50624622Y-120778678D01*
X50716572Y-120758438D01*
X50818668Y-120701883D01*
X50889212Y-120615563D01*
X50933266Y-120493226D01*
X50955887Y-120328622D01*
X50658231Y-120328622D01*
X50582031Y-120496500D01*
X50504045Y-120529540D01*
X50384387Y-120540553D01*
X50268302Y-120527754D01*
X50181981Y-120489356D01*
X50120962Y-120420598D01*
X50080778Y-120316716D01*
X50058454Y-120169673D01*
X50051012Y-119971434D01*
X50058454Y-119770814D01*
X50080778Y-119621391D01*
X50120962Y-119515723D01*
X50181981Y-119446369D01*
X50268302Y-119407971D01*
X50384387Y-119395172D01*
X50492734Y-119407078D01*
X50565362Y-119442797D01*
X50612392Y-119511258D01*
X50643944Y-119621391D01*
X50941600Y-119621391D01*
X50923145Y-119452620D01*
X50882069Y-119327306D01*
X50813608Y-119238605D01*
X50713000Y-119179669D01*
X50572506Y-119146629D01*
X50384387Y-119135616D01*
X50229077Y-119143950D01*
X50099696Y-119168953D01*
X49996244Y-119210625D01*
X49880158Y-119311530D01*
X49803362Y-119464228D01*
X49771612Y-119599959D01*
X49752562Y-119769028D01*
X49746212Y-119971434D01*
X49349337Y-119971434D01*
X49349337Y-118648253D01*
G37*
G36*
X60508272Y-119786888D02*
G01*
X60598759Y-119909522D01*
X60619298Y-120013702D01*
X60626144Y-120154791D01*
X60619298Y-120293796D01*
X60598759Y-120396488D01*
X60508272Y-120516741D01*
X60326106Y-120552459D01*
X60143941Y-120516741D01*
X60053453Y-120396488D01*
X60032915Y-120293796D01*
X60026069Y-120154791D01*
X60032915Y-120013702D01*
X60053453Y-119909522D01*
X60143941Y-119786888D01*
X60326106Y-119749978D01*
X60508272Y-119786888D01*
G37*
G36*
X53364522Y-119786888D02*
G01*
X53455009Y-119909522D01*
X53475548Y-120013702D01*
X53482394Y-120154791D01*
X53475548Y-120293796D01*
X53455009Y-120396488D01*
X53364522Y-120516741D01*
X53182356Y-120552459D01*
X53000191Y-120516741D01*
X52909703Y-120396488D01*
X52889165Y-120293796D01*
X52882319Y-120154791D01*
X52889165Y-120013702D01*
X52909703Y-119909522D01*
X53000191Y-119786888D01*
X53182356Y-119749978D01*
X53364522Y-119786888D01*
G37*
%TO.C,kibuzzard-67C643A6*%
G36*
X82458150Y-155371659D02*
G01*
X91741850Y-155371659D01*
X91741850Y-158028341D01*
X82458150Y-158028341D01*
X82458150Y-157429853D01*
X82954244Y-157429853D01*
X83065567Y-157476287D01*
X83170937Y-157506053D01*
X83283452Y-157522127D01*
X83416206Y-157527484D01*
X83629328Y-157514090D01*
X83792444Y-157473906D01*
X83911209Y-157403064D01*
X83991278Y-157297694D01*
X84036820Y-157152140D01*
X84052000Y-156960747D01*
X84040391Y-156806263D01*
X84005566Y-156685712D01*
X83944248Y-156594034D01*
X83853166Y-156526169D01*
X83727257Y-156478841D01*
X83561462Y-156448778D01*
X83411444Y-156439253D01*
X83306669Y-156444016D01*
X83330481Y-156148741D01*
X83982944Y-156143978D01*
X83982944Y-155891566D01*
X84275837Y-155891566D01*
X84756850Y-157510816D01*
X85130706Y-157510816D01*
X85369798Y-156705953D01*
X87173819Y-156705953D01*
X87180036Y-156906772D01*
X87198690Y-157074253D01*
X87229778Y-157208397D01*
X87305383Y-157359011D01*
X87420278Y-157458428D01*
X87522540Y-157499439D01*
X87649936Y-157524045D01*
X87802469Y-157532247D01*
X87955001Y-157524045D01*
X88082398Y-157499439D01*
X88184659Y-157458428D01*
X88299555Y-157359011D01*
X88375159Y-157208397D01*
X88406248Y-157074253D01*
X88416238Y-156984559D01*
X88640669Y-156984559D01*
X88654361Y-157174464D01*
X88695437Y-157315553D01*
X88768661Y-157415566D01*
X88878794Y-157482241D01*
X89034170Y-157519745D01*
X89243125Y-157532247D01*
X89443745Y-157519745D01*
X89593169Y-157482241D01*
X89699134Y-157415566D01*
X89769381Y-157315553D01*
X89808672Y-157173869D01*
X89821769Y-156982178D01*
X89821769Y-156163028D01*
X90074181Y-156163028D01*
X90507569Y-156163028D01*
X90507569Y-157510816D01*
X90812369Y-157510816D01*
X90812369Y-156163028D01*
X91245756Y-156163028D01*
X91245756Y-155891566D01*
X90074181Y-155891566D01*
X90074181Y-156163028D01*
X89821769Y-156163028D01*
X89821769Y-155891566D01*
X89516969Y-155891566D01*
X89516969Y-156975034D01*
X89491966Y-157151247D01*
X89408622Y-157239353D01*
X89243125Y-157265547D01*
X89063341Y-157239353D01*
X88972853Y-157150056D01*
X88945469Y-156972653D01*
X88945469Y-155891566D01*
X88640669Y-155891566D01*
X88640669Y-156984559D01*
X88416238Y-156984559D01*
X88424901Y-156906772D01*
X88431119Y-156705953D01*
X88424901Y-156502224D01*
X88406248Y-156332361D01*
X88375159Y-156196366D01*
X88299555Y-156043668D01*
X88184659Y-155942762D01*
X88082398Y-155901091D01*
X87955001Y-155876088D01*
X87802469Y-155867753D01*
X87649936Y-155876088D01*
X87522540Y-155901091D01*
X87420278Y-155942762D01*
X87305383Y-156043668D01*
X87229778Y-156196366D01*
X87198690Y-156332361D01*
X87180036Y-156502224D01*
X87173819Y-156705953D01*
X85369798Y-156705953D01*
X85611719Y-155891566D01*
X85302156Y-155891566D01*
X84949731Y-157153628D01*
X84937825Y-157153628D01*
X84585400Y-155891566D01*
X84275837Y-155891566D01*
X83982944Y-155891566D01*
X83066163Y-155891566D01*
X82994725Y-156736909D01*
X83157179Y-156715743D01*
X83292117Y-156703043D01*
X83399538Y-156698809D01*
X83528125Y-156705953D01*
X83635579Y-156728873D01*
X83705528Y-156773819D01*
X83743926Y-156846745D01*
X83756725Y-156953603D01*
X83738270Y-157103324D01*
X83682906Y-157200062D01*
X83580512Y-157252748D01*
X83420969Y-157270309D01*
X83314705Y-157262570D01*
X83210228Y-157239353D01*
X83094440Y-157197086D01*
X82954244Y-157132197D01*
X82954244Y-157429853D01*
X82458150Y-157429853D01*
X82458150Y-155371659D01*
G37*
G36*
X87916173Y-156142490D02*
G01*
X88000113Y-156180887D01*
X88059346Y-156249944D01*
X88098934Y-156354719D01*
X88121259Y-156503845D01*
X88128700Y-156705953D01*
X88121259Y-156902109D01*
X88098934Y-157047662D01*
X88059346Y-157150652D01*
X88000113Y-157219112D01*
X87916173Y-157257510D01*
X87802469Y-157270309D01*
X87688466Y-157257510D01*
X87603634Y-157219112D01*
X87543508Y-157150652D01*
X87503622Y-157047662D01*
X87481298Y-156902109D01*
X87473856Y-156705953D01*
X87481298Y-156505333D01*
X87503622Y-156355909D01*
X87543508Y-156250241D01*
X87603634Y-156180887D01*
X87688466Y-156142490D01*
X87802469Y-156129691D01*
X87916173Y-156142490D01*
G37*
%TO.C,kibuzzard-67C66B42*%
G36*
X56446773Y-143921077D02*
G01*
X57890763Y-143921077D01*
X57890763Y-145728923D01*
X56446773Y-145728923D01*
X56446773Y-144827857D01*
X56684898Y-144827857D01*
X56689978Y-144988513D01*
X56705218Y-145122497D01*
X56730618Y-145229812D01*
X56792054Y-145350542D01*
X56884923Y-145430790D01*
X56967685Y-145464127D01*
X57071190Y-145484130D01*
X57195438Y-145490798D01*
X57347600Y-145482463D01*
X57461185Y-145457460D01*
X57542862Y-145412216D01*
X57599298Y-145343160D01*
X57634540Y-145245291D01*
X57652638Y-145113607D01*
X57414513Y-145113607D01*
X57353553Y-145247910D01*
X57291164Y-145274342D01*
X57195438Y-145283153D01*
X57102569Y-145272913D01*
X57033513Y-145242195D01*
X56984697Y-145187188D01*
X56952550Y-145104083D01*
X56934691Y-144986449D01*
X56928738Y-144827857D01*
X56934691Y-144667361D01*
X56952550Y-144547822D01*
X56984697Y-144463288D01*
X57033513Y-144407805D01*
X57102569Y-144377087D01*
X57195438Y-144366847D01*
X57282115Y-144376372D01*
X57340218Y-144404947D01*
X57377842Y-144459716D01*
X57403083Y-144547822D01*
X57641208Y-144547822D01*
X57626444Y-144412806D01*
X57593583Y-144312555D01*
X57538814Y-144241594D01*
X57458328Y-144194445D01*
X57345933Y-144168013D01*
X57195438Y-144159202D01*
X57071190Y-144165870D01*
X56967685Y-144185872D01*
X56884923Y-144219210D01*
X56792054Y-144299934D01*
X56730618Y-144422092D01*
X56705218Y-144530677D01*
X56689978Y-144665932D01*
X56684898Y-144827857D01*
X56446773Y-144827857D01*
X56446773Y-143921077D01*
G37*
%TO.C,J3*%
X60995000Y-130795000D02*
X63595000Y-130795000D01*
X58395000Y-133395000D02*
X58395000Y-151235000D01*
X60995000Y-133395000D02*
X60995000Y-130795000D01*
X58395000Y-133395000D02*
X60995000Y-133395000D01*
X58395000Y-151235000D02*
X63595000Y-151235000D01*
X63595000Y-130795000D02*
X63595000Y-151235000D01*
X58395000Y-132125000D02*
X58395000Y-130795000D01*
X58395000Y-130795000D02*
X59725000Y-130795000D01*
%TO.C,kibuzzard-6514EFEE*%
G36*
X39344369Y-166296731D02*
G01*
X40555631Y-166296731D01*
X40555631Y-167803269D01*
X39344369Y-167803269D01*
X39344369Y-167050794D01*
X39542806Y-167050794D01*
X39547304Y-167184761D01*
X39560798Y-167296680D01*
X39583287Y-167386550D01*
X39637461Y-167487753D01*
X39719019Y-167554825D01*
X39791515Y-167582606D01*
X39882002Y-167599275D01*
X39990481Y-167604831D01*
X40088112Y-167600466D01*
X40171456Y-167587369D01*
X40255197Y-167561969D01*
X40354019Y-167520694D01*
X40354019Y-166982531D01*
X39938094Y-166982531D01*
X39938094Y-167155569D01*
X40161931Y-167155569D01*
X40161931Y-167398456D01*
X40083350Y-167423062D01*
X39985719Y-167430206D01*
X39901383Y-167421872D01*
X39838875Y-167396869D01*
X39794623Y-167351823D01*
X39765056Y-167283363D01*
X39748387Y-167186327D01*
X39742831Y-167055556D01*
X39747792Y-166921809D01*
X39762675Y-166822194D01*
X39789464Y-166751550D01*
X39830144Y-166704719D01*
X39887691Y-166678525D01*
X39965081Y-166669794D01*
X40077000Y-166682494D01*
X40136531Y-166724562D01*
X40160344Y-166809494D01*
X40357194Y-166809494D01*
X40343105Y-166699956D01*
X40313538Y-166618994D01*
X40264920Y-166561844D01*
X40193681Y-166523744D01*
X40094859Y-166502312D01*
X39963494Y-166495169D01*
X39861806Y-166500725D01*
X39776874Y-166517394D01*
X39708700Y-166545175D01*
X39631905Y-166612247D01*
X39580906Y-166713450D01*
X39559740Y-166803497D01*
X39547040Y-166915944D01*
X39542806Y-167050794D01*
X39344369Y-167050794D01*
X39344369Y-166296731D01*
G37*
%TO.C,JP1*%
X36970000Y-154730000D02*
X39570000Y-154730000D01*
X35700000Y-154730000D02*
X34370000Y-154730000D01*
X34370000Y-154730000D02*
X34370000Y-153400000D01*
X36970000Y-154730000D02*
X36970000Y-152070000D01*
X36970000Y-152070000D02*
X39570000Y-152070000D01*
X39570000Y-154730000D02*
X39570000Y-152070000D01*
%TO.C,TP1*%
X60100000Y-162875000D02*
G75*
G03*
X60100000Y-162875000I-700000J0D01*
G01*
%TO.C,kibuzzard-67C66FDB*%
G36*
X67588098Y-149462564D02*
G01*
X67677632Y-149469707D01*
X67787408Y-149490424D01*
X67869085Y-149525905D01*
X67926949Y-149580674D01*
X67965288Y-149659255D01*
X67986719Y-149767126D01*
X67993863Y-149909762D01*
X67986481Y-150060496D01*
X67964335Y-150173605D01*
X67924568Y-150254806D01*
X67864323Y-150309812D01*
X67779074Y-150343150D01*
X67664298Y-150359342D01*
X67513803Y-150353627D01*
X67513803Y-149460182D01*
X67588098Y-149462564D01*
G37*
G36*
X64122267Y-149905000D02*
G01*
X64724882Y-149001077D01*
X68477733Y-149001077D01*
X68477733Y-150808923D01*
X64724882Y-150808923D01*
X64122902Y-149905952D01*
X64963007Y-149905952D01*
X64968405Y-150066713D01*
X64984597Y-150201016D01*
X65011585Y-150308860D01*
X65076593Y-150430304D01*
X65174462Y-150510790D01*
X65261457Y-150544127D01*
X65370042Y-150564130D01*
X65500217Y-150570798D01*
X65617375Y-150565559D01*
X65693141Y-150553653D01*
X66107912Y-150553653D01*
X66342228Y-150553653D01*
X66342228Y-149808797D01*
X66315557Y-149538287D01*
X66321273Y-149538287D01*
X66786092Y-150553653D01*
X67083272Y-150553653D01*
X67269963Y-150553653D01*
X67394634Y-150562119D01*
X67507029Y-150567199D01*
X67607148Y-150568892D01*
X67759759Y-150562331D01*
X67887394Y-150542646D01*
X67990053Y-150509837D01*
X68105781Y-150431018D01*
X68182458Y-150312670D01*
X68214207Y-150208001D01*
X68233257Y-150078143D01*
X68239607Y-149923097D01*
X68234104Y-149774825D01*
X68217594Y-149650047D01*
X68190078Y-149548765D01*
X68123164Y-149431369D01*
X68021485Y-149347787D01*
X67931209Y-149308417D01*
X67819132Y-149279207D01*
X67685253Y-149260157D01*
X67593813Y-149253014D01*
X67490943Y-149250632D01*
X67386168Y-149252537D01*
X67269963Y-149258252D01*
X67269963Y-150553653D01*
X67083272Y-150553653D01*
X67083272Y-149258252D01*
X66848958Y-149258252D01*
X66848958Y-150003107D01*
X66875628Y-150273618D01*
X66869912Y-150273618D01*
X66405092Y-149258252D01*
X66107912Y-149258252D01*
X66107912Y-150553653D01*
X65693141Y-150553653D01*
X65717387Y-150549843D01*
X65817876Y-150519362D01*
X65936462Y-150469832D01*
X65936462Y-149824037D01*
X65437352Y-149824037D01*
X65437352Y-150031682D01*
X65705957Y-150031682D01*
X65705957Y-150323147D01*
X65611660Y-150352675D01*
X65494502Y-150361248D01*
X65393299Y-150351246D01*
X65318290Y-150321242D01*
X65265188Y-150267188D01*
X65229707Y-150185035D01*
X65209705Y-150068592D01*
X65203037Y-149911667D01*
X65208991Y-149751171D01*
X65226850Y-149631632D01*
X65258997Y-149546860D01*
X65307812Y-149490662D01*
X65376869Y-149459230D01*
X65469737Y-149448752D01*
X65604040Y-149463992D01*
X65675477Y-149514475D01*
X65704052Y-149616392D01*
X65940272Y-149616392D01*
X65923366Y-149484947D01*
X65887885Y-149387792D01*
X65829544Y-149319212D01*
X65744057Y-149273492D01*
X65625471Y-149247775D01*
X65467832Y-149239202D01*
X65345807Y-149245870D01*
X65243889Y-149265872D01*
X65162080Y-149299210D01*
X65069926Y-149379696D01*
X65008727Y-149501140D01*
X64983327Y-149609196D01*
X64968087Y-149744133D01*
X64963007Y-149905952D01*
X64122902Y-149905952D01*
X64122267Y-149905000D01*
G37*
%TO.C,kibuzzard-67C67BA5*%
G36*
X66868591Y-116899981D02*
G01*
X66953125Y-116978562D01*
X66987653Y-117136916D01*
X66428059Y-117136916D01*
X66468541Y-116978562D01*
X66551884Y-116899981D01*
X66706666Y-116877359D01*
X66868591Y-116899981D01*
G37*
G36*
X58361873Y-117454217D02*
G01*
X58340144Y-117544109D01*
X58248466Y-117648884D01*
X58065109Y-117679841D01*
X57906756Y-117646503D01*
X57865084Y-117522678D01*
X57888897Y-117409569D01*
X57971050Y-117353609D01*
X58136547Y-117334559D01*
X58372291Y-117332178D01*
X58361873Y-117454217D01*
G37*
G36*
X55215944Y-116543389D02*
G01*
X55331434Y-116548747D01*
X55481453Y-116597562D01*
X55521934Y-116744009D01*
X55482644Y-116928556D01*
X55336197Y-116979753D01*
X55029016Y-116979753D01*
X55029016Y-116543984D01*
X55131409Y-116541603D01*
X55215944Y-116543389D01*
G37*
G36*
X56867341Y-116899981D02*
G01*
X56951875Y-116978562D01*
X56986403Y-117136916D01*
X56426809Y-117136916D01*
X56467291Y-116978562D01*
X56550634Y-116899981D01*
X56705416Y-116877359D01*
X56867341Y-116899981D01*
G37*
G36*
X54329722Y-115775634D02*
G01*
X67670278Y-115775634D01*
X67670278Y-118324366D01*
X54329722Y-118324366D01*
X54329722Y-117906059D01*
X54726597Y-117906059D01*
X55029016Y-117906059D01*
X55029016Y-117244072D01*
X55181416Y-117244072D01*
X55307622Y-117253299D01*
X55390966Y-117280981D01*
X55476691Y-117422666D01*
X55588609Y-117906059D01*
X55914841Y-117906059D01*
X55779109Y-117401234D01*
X55738330Y-117281577D01*
X55733047Y-117272647D01*
X56131534Y-117272647D01*
X56137487Y-117431132D01*
X56155347Y-117563689D01*
X56185112Y-117670316D01*
X56256848Y-117790271D01*
X56364897Y-117869150D01*
X56517892Y-117912905D01*
X56724466Y-117927491D01*
X56888177Y-117918263D01*
X57012597Y-117890581D01*
X57104870Y-117841468D01*
X57172141Y-117767947D01*
X57219170Y-117664363D01*
X57246407Y-117544109D01*
X57574572Y-117544109D01*
X57584395Y-117677162D01*
X57613862Y-117776281D01*
X57747212Y-117892962D01*
X57861215Y-117918859D01*
X58015103Y-117927491D01*
X58133570Y-117918561D01*
X58222272Y-117891772D01*
X58294305Y-117840575D01*
X58362766Y-117758422D01*
X58381816Y-117758422D01*
X58381816Y-117906059D01*
X58653278Y-117906059D01*
X59005703Y-117906059D01*
X60134416Y-117906059D01*
X60134416Y-117658409D01*
X59727222Y-117658409D01*
X59727222Y-116558272D01*
X61832247Y-116558272D01*
X62265634Y-116558272D01*
X62265634Y-117906059D01*
X62570434Y-117906059D01*
X63346722Y-117906059D01*
X64444478Y-117906059D01*
X64608784Y-117906059D01*
X64885009Y-117906059D01*
X64885009Y-117203591D01*
X64895725Y-117013091D01*
X64933825Y-116917841D01*
X65011216Y-116889266D01*
X65113609Y-116947606D01*
X65136231Y-117029462D01*
X65142184Y-117158347D01*
X65137422Y-117906059D01*
X65413647Y-117906059D01*
X65413647Y-117191684D01*
X65425553Y-117008328D01*
X65464844Y-116916650D01*
X65542234Y-116889266D01*
X65637484Y-116945225D01*
X65657130Y-117026485D01*
X65663678Y-117158347D01*
X65663678Y-117906059D01*
X65939903Y-117906059D01*
X65939903Y-117272647D01*
X66132784Y-117272647D01*
X66138737Y-117431132D01*
X66156597Y-117563689D01*
X66186363Y-117670316D01*
X66258098Y-117790271D01*
X66366147Y-117869150D01*
X66519142Y-117912905D01*
X66725716Y-117927491D01*
X66889427Y-117918263D01*
X67013847Y-117890581D01*
X67106120Y-117841468D01*
X67173391Y-117767947D01*
X67220420Y-117664363D01*
X67251972Y-117525059D01*
X66956697Y-117525059D01*
X66879306Y-117648884D01*
X66723334Y-117682222D01*
X66553075Y-117654838D01*
X66463778Y-117563159D01*
X66425678Y-117379803D01*
X67271022Y-117379803D01*
X67273403Y-117286934D01*
X67267582Y-117129772D01*
X67250120Y-116998009D01*
X67221016Y-116891647D01*
X67151364Y-116771394D01*
X67047184Y-116691622D01*
X66901333Y-116646973D01*
X66706666Y-116632091D01*
X66506343Y-116646378D01*
X66357813Y-116689241D01*
X66253038Y-116766334D01*
X66183981Y-116883313D01*
X66155539Y-116987426D01*
X66138473Y-117117204D01*
X66132784Y-117272647D01*
X65939903Y-117272647D01*
X65939903Y-117115484D01*
X65933057Y-116947011D01*
X65912519Y-116822591D01*
X65819650Y-116676144D01*
X65635103Y-116632091D01*
X65474369Y-116670191D01*
X65389834Y-116815447D01*
X65387453Y-116815447D01*
X65296966Y-116673763D01*
X65123134Y-116632091D01*
X64993356Y-116670191D01*
X64896916Y-116815447D01*
X64877866Y-116815447D01*
X64877866Y-116663047D01*
X64608784Y-116663047D01*
X64608784Y-117906059D01*
X64444478Y-117906059D01*
X64444478Y-117660791D01*
X64046809Y-117660791D01*
X64046809Y-116663047D01*
X63370534Y-116663047D01*
X63370534Y-116908316D01*
X63761059Y-116908316D01*
X63761059Y-117660791D01*
X63346722Y-117660791D01*
X63346722Y-117906059D01*
X62570434Y-117906059D01*
X62570434Y-116558272D01*
X63003822Y-116558272D01*
X63003822Y-116508266D01*
X63692003Y-116508266D01*
X64056334Y-116508266D01*
X64056334Y-116172509D01*
X63692003Y-116172509D01*
X63692003Y-116508266D01*
X63003822Y-116508266D01*
X63003822Y-116286809D01*
X61832247Y-116286809D01*
X61832247Y-116558272D01*
X59727222Y-116558272D01*
X59727222Y-116172509D01*
X59029516Y-116172509D01*
X59029516Y-116420159D01*
X59441472Y-116420159D01*
X59441472Y-117658409D01*
X59005703Y-117658409D01*
X59005703Y-117906059D01*
X58653278Y-117906059D01*
X58653278Y-117079766D01*
X58641372Y-116923794D01*
X58605653Y-116808303D01*
X58541657Y-116726745D01*
X58444919Y-116672572D01*
X58308295Y-116642211D01*
X58124641Y-116632091D01*
X57941582Y-116641318D01*
X57806744Y-116669000D01*
X57712684Y-116718411D01*
X57651962Y-116792825D01*
X57620709Y-116898493D01*
X57615053Y-117041666D01*
X57905566Y-117041666D01*
X57947237Y-116909506D01*
X58124641Y-116874978D01*
X58246680Y-116885694D01*
X58322284Y-116917841D01*
X58374672Y-117079766D01*
X58374672Y-117094053D01*
X58186553Y-117094053D01*
X57973431Y-117104173D01*
X57815078Y-117134534D01*
X57703159Y-117189005D01*
X57629341Y-117271456D01*
X57588264Y-117387840D01*
X57574572Y-117544109D01*
X57246407Y-117544109D01*
X57250722Y-117525059D01*
X56955447Y-117525059D01*
X56878056Y-117648884D01*
X56722084Y-117682222D01*
X56551825Y-117654838D01*
X56462528Y-117563159D01*
X56424428Y-117379803D01*
X57269772Y-117379803D01*
X57272153Y-117286934D01*
X57266332Y-117129772D01*
X57248870Y-116998009D01*
X57219766Y-116891647D01*
X57150114Y-116771394D01*
X57045934Y-116691622D01*
X56900083Y-116646973D01*
X56705416Y-116632091D01*
X56505093Y-116646378D01*
X56356562Y-116689241D01*
X56251787Y-116766334D01*
X56182731Y-116883313D01*
X56154289Y-116987426D01*
X56137223Y-117117204D01*
X56131534Y-117272647D01*
X55733047Y-117272647D01*
X55692194Y-117203591D01*
X55543366Y-117129772D01*
X55543366Y-117108341D01*
X55712434Y-117054763D01*
X55796969Y-116947606D01*
X55821972Y-116755916D01*
X55806791Y-116592800D01*
X55761250Y-116470166D01*
X55679692Y-116382059D01*
X55556462Y-116322528D01*
X55447322Y-116297393D01*
X55311987Y-116282311D01*
X55150459Y-116277284D01*
X55009966Y-116279666D01*
X54726597Y-116289191D01*
X54726597Y-117906059D01*
X54329722Y-117906059D01*
X54329722Y-115775634D01*
G37*
%TO.C,R2*%
X89267500Y-125250000D02*
X88317500Y-125250000D01*
X84477500Y-124330000D02*
X84477500Y-126170000D01*
X84477500Y-126170000D02*
X88317500Y-126170000D01*
X88317500Y-124330000D02*
X84477500Y-124330000D01*
X88317500Y-126170000D02*
X88317500Y-124330000D01*
X83527500Y-125250000D02*
X84477500Y-125250000D01*
%TO.C,D1*%
X38510000Y-137845000D02*
X38510000Y-137689000D01*
X38510000Y-140161000D02*
X38510000Y-140005000D01*
X37990961Y-137845000D02*
G75*
G03*
X35908870Y-137845163I-1040961J-1080000D01*
G01*
X35277665Y-140003608D02*
G75*
G03*
X38510000Y-140160516I1672335J1078608D01*
G01*
X38510000Y-137689484D02*
G75*
G03*
X35277665Y-137846392I-1560000J-1235516D01*
G01*
X35908870Y-140004837D02*
G75*
G03*
X37990961Y-140005000I1041130J1079837D01*
G01*
%TO.C,R1*%
X35900000Y-134025000D02*
X35900000Y-133405000D01*
X36820000Y-134945000D02*
G75*
G03*
X36820000Y-134945000I-920000J0D01*
G01*
%TO.C,J4*%
X88495000Y-130795000D02*
X91095000Y-130795000D01*
X88495000Y-133395000D02*
X88495000Y-130795000D01*
X85895000Y-130795000D02*
X87225000Y-130795000D01*
X85895000Y-132125000D02*
X85895000Y-130795000D01*
X91095000Y-130795000D02*
X91095000Y-151235000D01*
X85895000Y-133395000D02*
X88495000Y-133395000D01*
X85895000Y-133395000D02*
X85895000Y-151235000D01*
X85895000Y-151235000D02*
X91095000Y-151235000D01*
%TO.C,kibuzzard-67C648F1*%
G36*
X41398885Y-163507507D02*
G01*
X44001115Y-163507507D01*
X44001115Y-165292493D01*
X41398885Y-165292493D01*
X41398885Y-164976263D01*
X41637010Y-164976263D01*
X41726069Y-165013410D01*
X41810365Y-165037223D01*
X41900376Y-165050081D01*
X42006580Y-165054368D01*
X42177078Y-165043652D01*
X42307570Y-165011505D01*
X42402582Y-164954831D01*
X42466638Y-164870535D01*
X42503071Y-164754092D01*
X42515215Y-164600978D01*
X42505928Y-164477391D01*
X42478068Y-164380950D01*
X42429014Y-164307608D01*
X42356148Y-164253315D01*
X42255421Y-164215453D01*
X42122785Y-164191402D01*
X42002770Y-164183782D01*
X41918950Y-164187592D01*
X41938000Y-163951373D01*
X42459970Y-163947563D01*
X42459970Y-163745632D01*
X42694285Y-163745632D01*
X43079095Y-165041033D01*
X43378180Y-165041033D01*
X43762990Y-163745632D01*
X43515340Y-163745632D01*
X43233400Y-164755282D01*
X43223875Y-164755282D01*
X42941935Y-163745632D01*
X42694285Y-163745632D01*
X42459970Y-163745632D01*
X41726545Y-163745632D01*
X41669395Y-164421907D01*
X41799358Y-164404974D01*
X41907308Y-164394814D01*
X41993245Y-164391427D01*
X42096115Y-164397143D01*
X42182078Y-164415478D01*
X42238038Y-164451435D01*
X42268756Y-164509776D01*
X42278995Y-164595263D01*
X42264231Y-164715039D01*
X42219940Y-164792430D01*
X42138025Y-164834578D01*
X42010390Y-164848628D01*
X41925379Y-164842436D01*
X41841797Y-164823863D01*
X41749167Y-164790049D01*
X41637010Y-164738138D01*
X41637010Y-164976263D01*
X41398885Y-164976263D01*
X41398885Y-163507507D01*
G37*
%TO.C,kibuzzard-67C6473C*%
G36*
X60784077Y-164230136D02*
G01*
X64115923Y-164230136D01*
X64115923Y-165869864D01*
X60784077Y-165869864D01*
X60784077Y-165579987D01*
X61002359Y-165579987D01*
X61083778Y-165614039D01*
X61160394Y-165635867D01*
X61242250Y-165647654D01*
X61339385Y-165651583D01*
X61495238Y-165641979D01*
X61613546Y-165613166D01*
X61699331Y-165562961D01*
X61757612Y-165489182D01*
X61791009Y-165387463D01*
X61802141Y-165253438D01*
X61795593Y-165138840D01*
X61775947Y-165050000D01*
X61741677Y-164984297D01*
X61691254Y-164939113D01*
X61622496Y-164912919D01*
X61533219Y-164904188D01*
X61463369Y-164907681D01*
X61463369Y-164898949D01*
X61756739Y-164650982D01*
X61756739Y-164448417D01*
X61987244Y-164448417D01*
X62339986Y-165635867D01*
X62614148Y-165635867D01*
X62630748Y-165579987D01*
X63097859Y-165579987D01*
X63179278Y-165614039D01*
X63255894Y-165635867D01*
X63337750Y-165647654D01*
X63434885Y-165651583D01*
X63590738Y-165641979D01*
X63709046Y-165613166D01*
X63794831Y-165562961D01*
X63853112Y-165489182D01*
X63886509Y-165387463D01*
X63897641Y-165253438D01*
X63891093Y-165138840D01*
X63871448Y-165050000D01*
X63837177Y-164984297D01*
X63786754Y-164939113D01*
X63717996Y-164912919D01*
X63628719Y-164904188D01*
X63558869Y-164907681D01*
X63558869Y-164898949D01*
X63852239Y-164650982D01*
X63852239Y-164448417D01*
X63122306Y-164448417D01*
X63122306Y-164633519D01*
X63586809Y-164633519D01*
X63293439Y-164893711D01*
X63293439Y-165099768D01*
X63399087Y-165084052D01*
X63485526Y-165078813D01*
X63575458Y-165089291D01*
X63635704Y-165120723D01*
X63669756Y-165174857D01*
X63681106Y-165253438D01*
X63667355Y-165352756D01*
X63626099Y-165416713D01*
X63550356Y-165451419D01*
X63433139Y-165462988D01*
X63354339Y-165457313D01*
X63278596Y-165440287D01*
X63196304Y-165409291D01*
X63097859Y-165361706D01*
X63097859Y-165579987D01*
X62630748Y-165579987D01*
X62966890Y-164448417D01*
X62739878Y-164448417D01*
X62481432Y-165373929D01*
X62472701Y-165373929D01*
X62214256Y-164448417D01*
X61987244Y-164448417D01*
X61756739Y-164448417D01*
X61026806Y-164448417D01*
X61026806Y-164633519D01*
X61491309Y-164633519D01*
X61197939Y-164893711D01*
X61197939Y-165099768D01*
X61303587Y-165084052D01*
X61390026Y-165078813D01*
X61479958Y-165089291D01*
X61540204Y-165120723D01*
X61574256Y-165174857D01*
X61585606Y-165253438D01*
X61571855Y-165352756D01*
X61530599Y-165416713D01*
X61454856Y-165451419D01*
X61337639Y-165462988D01*
X61258839Y-165457313D01*
X61183096Y-165440287D01*
X61100804Y-165409291D01*
X61002359Y-165361706D01*
X61002359Y-165579987D01*
X60784077Y-165579987D01*
X60784077Y-164230136D01*
G37*
%TO.C,kibuzzard-67C66AFA*%
G36*
X54146485Y-134761203D02*
G01*
X54218875Y-134817400D01*
X54240783Y-134931700D01*
X54214113Y-135043143D01*
X54125530Y-135098387D01*
X54050045Y-135110532D01*
X53947413Y-135114580D01*
X53867879Y-135113627D01*
X53781678Y-135110770D01*
X53781678Y-134745010D01*
X54000753Y-134745010D01*
X54146485Y-134761203D01*
G37*
G36*
X54002658Y-134217325D02*
G01*
X54093860Y-134233041D01*
X54150295Y-134261140D01*
X54189348Y-134381155D01*
X54159820Y-134500217D01*
X54048378Y-134535460D01*
X53781678Y-134535460D01*
X53781678Y-134211610D01*
X53844543Y-134211610D01*
X54002658Y-134217325D01*
G37*
G36*
X53303523Y-133765840D02*
G01*
X57890763Y-133765840D01*
X57890763Y-135564160D01*
X53303523Y-135564160D01*
X53303523Y-135305080D01*
X53541648Y-135305080D01*
X53674575Y-135315663D01*
X53799035Y-135322013D01*
X53915028Y-135324130D01*
X54053352Y-135320426D01*
X54168605Y-135309313D01*
X54180192Y-135306985D01*
X54713223Y-135306985D01*
X55612383Y-135306985D01*
X55612383Y-135093625D01*
X54957063Y-135093625D01*
X54957063Y-134887885D01*
X55799073Y-134887885D01*
X55810027Y-135039809D01*
X55842888Y-135152680D01*
X55901467Y-135232690D01*
X55989573Y-135286030D01*
X56113874Y-135316034D01*
X56281038Y-135326035D01*
X56441534Y-135316034D01*
X56561073Y-135286030D01*
X56645845Y-135232690D01*
X56702043Y-135152680D01*
X56733475Y-135039333D01*
X56743953Y-134885980D01*
X56743953Y-134552605D01*
X57006843Y-134552605D01*
X57349743Y-134341150D01*
X57424038Y-134280190D01*
X57416418Y-134398300D01*
X57416418Y-135308890D01*
X57652638Y-135308890D01*
X57652638Y-134013490D01*
X57416418Y-134013490D01*
X57006843Y-134301145D01*
X57006843Y-134552605D01*
X56743953Y-134552605D01*
X56743953Y-134013490D01*
X56500113Y-134013490D01*
X56500113Y-134880265D01*
X56480110Y-135021235D01*
X56413435Y-135091720D01*
X56281038Y-135112675D01*
X56137210Y-135091720D01*
X56064820Y-135020283D01*
X56042913Y-134878360D01*
X56042913Y-134013490D01*
X55799073Y-134013490D01*
X55799073Y-134887885D01*
X54957063Y-134887885D01*
X54957063Y-134013490D01*
X54713223Y-134013490D01*
X54713223Y-135306985D01*
X54180192Y-135306985D01*
X54260785Y-135290792D01*
X54364370Y-135245787D01*
X54433188Y-135177445D01*
X54471764Y-135080290D01*
X54484623Y-134948845D01*
X54479622Y-134855024D01*
X54464620Y-134783110D01*
X54396040Y-134687860D01*
X54257928Y-134638330D01*
X54257928Y-134626900D01*
X54340081Y-134596896D01*
X54392230Y-134548795D01*
X54420091Y-134474024D01*
X54429378Y-134364010D01*
X54416281Y-134238994D01*
X54376990Y-134145887D01*
X54306744Y-134079927D01*
X54200778Y-134036350D01*
X54106586Y-134018358D01*
X53989111Y-134007563D01*
X53855355Y-134004144D01*
X53541648Y-134009680D01*
X53541648Y-135305080D01*
X53303523Y-135305080D01*
X53303523Y-133765840D01*
G37*
%TD*%
D14*
%TO.C,U1*%
X47030000Y-122680000D03*
X47030000Y-125220000D03*
X47030000Y-127760000D03*
X47030000Y-130300000D03*
X47030000Y-132840000D03*
X47030000Y-135380000D03*
X47030000Y-137920000D03*
X47030000Y-140460000D03*
X47030000Y-143000000D03*
X47030000Y-145540000D03*
X47030000Y-148080000D03*
X47030000Y-150620000D03*
X47030000Y-153160000D03*
X47030000Y-155700000D03*
X47030000Y-158240000D03*
X74970000Y-158240000D03*
X74970000Y-155700000D03*
X74970000Y-153160000D03*
X74970000Y-150620000D03*
X74970000Y-148080000D03*
X74970000Y-145540000D03*
X74970000Y-143000000D03*
X74970000Y-140460000D03*
X74970000Y-137920000D03*
X74970000Y-135380000D03*
X74970000Y-132840000D03*
X74970000Y-130300000D03*
X74970000Y-127760000D03*
X74970000Y-125220000D03*
X74970000Y-122680000D03*
%TD*%
M02*
